<?xml version="1.0" standalone="no"?>
<!DOCTYPE svg PUBLIC "-//W3C//DTD SVG 20010904//EN"
 "http://www.w3.org/TR/2001/REC-SVG-20010904/DTD/svg10.dtd">
<svg version="1.0" xmlns="http://www.w3.org/2000/svg"
 width="278.000000pt" height="278.000000pt" viewBox="0 0 278.000000 278.000000"
 preserveAspectRatio="xMidYMid meet">
<metadata>
Created by potrace 1.14, written by Peter Selinger 2001-2017
</metadata>
<g transform="translate(0.000000,278.000000) scale(0.100000,-0.100000)"
fill="#000000" stroke="none">
<path d="M0 1390 l0 -1390 501 0 c322 0 498 3 494 10 -3 5 -23 17 -43 27 -29
13 -107 61 -131 79 -6 6 30 77 74 144 23 36 50 80 59 97 9 18 19 33 22 33 4 0
47 -23 96 -52 66 -38 88 -56 84 -67 -27 -81 -48 -128 -78 -173 -19 -30 -38
-64 -42 -76 l-7 -22 875 0 876 0 0 1390 0 1390 -1390 0 -1390 0 0 -1390z m660
1309 c0 -40 8 -62 45 -122 25 -41 45 -81 45 -90 0 -12 -93 -67 -114 -67 -5 0
-23 -7 -42 -16 -40 -19 -61 -13 -74 20 -5 13 -13 27 -19 30 -5 4 -21 30 -36
60 -21 44 -25 65 -23 117 l3 63 48 18 c26 10 68 26 95 36 59 24 72 15 72 -49z
m-348 11 c-2 -19 -3 -95 -4 -169 l0 -134 -76 7 c-41 3 -92 6 -113 6 l-37 0
-12 71 c-7 40 -9 90 -6 113 3 23 9 59 12 81 10 64 14 66 133 63 l106 -3 -3
-35z m799 23 c5 -5 1 -35 -7 -68 -19 -75 -18 -64 -9 -169 l8 -89 -104 8 c-57
4 -111 11 -120 15 -10 6 -19 35 -27 87 -11 72 -10 83 11 143 34 99 26 94 140
87 55 -4 104 -10 108 -14z m321 -15 c12 -18 42 -57 65 -86 24 -29 43 -59 43
-67 0 -8 -17 -26 -37 -42 -21 -15 -55 -42 -76 -60 -50 -44 -80 -43 -112 5 -14
20 -41 56 -60 80 -19 24 -35 47 -35 51 0 8 59 62 132 123 43 35 52 35 80 -4z
m451 -63 l68 -56 -38 -48 c-78 -97 -108 -131 -116 -131 -10 0 -171 129 -175
141 -4 11 29 57 97 136 l44 52 26 -19 c14 -10 57 -44 94 -75z m408 -15 c3 -58
9 -128 13 -157 9 -63 10 -62 -134 -66 l-95 -2 -12 70 c-8 42 -11 104 -7 157
l6 87 42 10 c22 5 73 9 111 8 l70 -2 6 -105z m354 96 l69 -12 12 -64 c22 -114
19 -129 -33 -193 -54 -65 -33 -61 -191 -41 -64 8 -69 15 -83 123 l-11 80 53
61 c60 67 61 68 184 46z m-825 -405 c0 -16 7 -34 15 -41 8 -7 15 -18 15 -24 0
-7 14 -25 30 -41 17 -16 30 -33 30 -38 0 -5 9 -20 20 -34 25 -32 25 -52 3 -60
-10 -4 -37 -19 -60 -35 -23 -15 -46 -28 -51 -28 -5 0 -17 -9 -27 -20 -10 -11
-23 -20 -29 -20 -7 0 -38 35 -71 78 -53 69 -59 83 -63 133 l-4 56 63 38 c35
21 75 47 88 57 29 22 41 16 41 -21z m811 -14 c6 -23 31 -73 56 -110 68 -105
66 -111 -46 -169 -52 -26 -96 -48 -97 -48 -2 0 -27 35 -56 78 -40 59 -54 90
-59 131 -4 29 -5 60 -2 68 6 16 174 103 185 97 4 -3 12 -24 19 -47z m-1205 23
c19 -11 57 -35 84 -53 l48 -33 -19 -39 c-10 -22 -18 -46 -19 -54 0 -8 -17 -37
-39 -65 -21 -28 -46 -63 -56 -78 -17 -27 -40 -37 -47 -20 -4 10 -94 72 -103
72 -4 0 -20 9 -36 20 -38 28 -42 19 110 236 13 18 28 34 32 34 5 0 25 -9 45
-20z m-321 -32 c3 -24 9 -95 11 -159 l6 -116 -44 -6 c-24 -4 -75 -9 -114 -13
-69 -6 -71 -6 -77 17 -4 13 -7 53 -7 89 -1 36 -4 95 -9 133 -4 37 -5 71 -2 76
9 13 45 18 142 20 l87 1 7 -42z m1154 -27 c45 -35 81 -68 81 -75 0 -17 -129
-176 -143 -176 -6 0 -46 27 -87 60 -41 33 -78 60 -82 60 -5 0 -8 7 -8 16 0 22
131 185 146 182 7 -2 49 -32 93 -67z m-2012 12 c15 -20 45 -55 66 -78 20 -23
37 -49 37 -58 0 -9 -19 -29 -43 -46 -23 -16 -58 -45 -76 -65 -19 -20 -42 -36
-52 -36 -9 0 -34 21 -54 48 -21 26 -54 63 -73 83 l-34 37 50 46 c62 58 123
104 139 105 7 1 25 -15 40 -36z m476 1 l37 -7 0 -109 0 -108 -167 2 -168 3 3
70 c1 39 5 92 8 119 l6 49 122 -7 c66 -3 138 -9 159 -12z m1141 -392 c18 -37
38 -83 45 -102 8 -19 20 -50 28 -68 8 -19 13 -34 11 -35 -1 -1 -13 -8 -25 -14
-13 -7 -29 -13 -37 -13 -8 0 -40 -13 -71 -30 -56 -30 -75 -31 -75 -6 0 8 -7
20 -17 27 -9 8 -31 48 -50 89 -19 41 -38 83 -44 92 -17 32 -9 43 45 67 30 13
74 33 98 45 24 13 46 21 51 19 4 -3 22 -35 41 -71z m-1579 16 c44 -28 82 -53
84 -55 8 -6 -36 -91 -93 -178 -32 -49 -60 -92 -61 -93 -2 -2 -23 9 -47 26 -24
16 -63 41 -88 55 -69 39 -70 44 -9 131 30 43 68 98 84 122 17 24 35 44 40 44
6 0 46 -23 90 -52z m1932 30 c21 -12 58 -33 83 -46 25 -14 46 -26 47 -27 5 -3
-28 -100 -46 -135 -27 -52 -62 -113 -74 -128 -18 -23 -9 -101 17 -135 61 -82
104 -151 100 -159 -8 -12 -100 -72 -161 -104 -31 -17 -32 -17 -57 12 -14 16
-26 34 -26 40 0 6 -11 21 -25 34 -38 36 -51 70 -47 123 3 39 8 50 27 57 13 5
26 14 30 19 3 6 25 20 49 31 82 37 83 62 3 99 -29 14 -69 36 -89 49 l-37 24
44 87 c78 151 97 181 111 181 7 0 30 -10 51 -22z m-1178 -30 c78 -58 111 -90
111 -104 0 -7 -20 -37 -44 -67 -24 -29 -49 -63 -55 -75 -25 -47 -43 -45 -122
15 -121 91 -117 86 -83 126 16 19 48 60 72 91 24 31 48 56 54 56 6 0 36 -19
67 -42z m435 -9 c42 -28 76 -54 76 -57 0 -23 -42 -109 -85 -175 -44 -68 -53
-77 -74 -72 -37 9 -171 104 -171 121 0 19 106 184 118 184 5 0 14 11 20 25 6
14 18 25 25 25 8 0 48 -23 91 -51z m1142 18 c78 -93 115 -149 109 -166 -5 -18
-138 -125 -169 -137 -12 -5 -128 134 -142 170 -3 8 11 27 33 45 89 72 138 110
144 111 3 0 14 -10 25 -23z m-1950 -64 c33 -38 68 -80 77 -94 l17 -26 -62 -49
c-127 -101 -118 -97 -141 -77 -33 29 -127 151 -127 164 0 15 106 119 121 119
6 0 17 7 25 15 9 8 19 15 23 15 4 0 34 -30 67 -67z m1171 -334 c16 -23 33 -50
39 -60 6 -11 18 -27 27 -37 10 -10 17 -23 17 -28 0 -5 6 -21 14 -36 14 -27 14
-27 -72 -85 -83 -56 -88 -58 -113 -44 -14 8 -37 35 -52 60 -14 25 -39 66 -56
91 -30 45 -30 45 -10 65 27 28 151 113 166 114 7 1 25 -18 40 -40z m-776 21
l48 0 -5 -157 -5 -158 -108 -3 -108 -3 -11 39 c-15 49 -15 130 -2 208 17 92
12 88 82 80 33 -3 82 -6 109 -6z m-745 -46 l61 -45 -21 -102 -21 -102 -89 -12
-89 -13 -69 47 c-61 42 -69 50 -64 73 3 14 10 48 16 75 19 101 24 110 61 116
19 4 61 7 94 8 56 1 64 -2 121 -45z m361 24 c18 -5 37 -7 43 -3 15 9 40 -62
40 -117 0 -27 5 -58 10 -68 9 -17 1 -25 -61 -66 -76 -51 -94 -54 -183 -34 -78
18 -80 20 -93 101 -18 117 -17 124 20 144 56 29 78 42 90 54 12 12 77 7 134
-11z m2018 -25 l44 -38 0 -80 c-1 -130 1 -127 -109 -146 -105 -19 -109 -18
-171 38 -38 34 -39 37 -39 102 0 36 3 83 6 103 6 33 11 38 38 42 17 3 54 9 81
15 71 13 100 6 150 -36z m-1201 7 l66 -29 -1 -43 c0 -24 -6 -74 -13 -111 l-12
-69 -102 0 c-84 0 -112 4 -158 23 l-56 24 6 70 c14 159 12 154 65 158 119 9
139 7 205 -23z m-854 -378 c0 -26 5 -53 11 -59 6 -6 16 -20 23 -31 6 -11 28
-44 49 -73 20 -30 37 -58 37 -64 0 -5 -46 -32 -101 -59 -96 -46 -101 -47 -120
-30 -10 9 -19 21 -19 25 0 5 -18 32 -40 61 -36 48 -40 58 -40 114 0 44 4 65
16 75 18 15 165 89 177 89 4 0 7 -22 7 -48z m2000 7 c102 -55 107 -61 92 -102
-7 -18 -12 -41 -12 -50 0 -10 -25 -55 -56 -101 -62 -93 -54 -91 -144 -43 -30
17 -65 35 -77 41 -13 6 -25 17 -28 24 -6 15 32 94 80 167 19 28 39 62 46 78 7
15 15 27 18 27 3 0 40 -19 81 -41z m-798 16 c32 -4 60 -11 64 -16 3 -5 0 -35
-7 -67 -7 -31 -13 -99 -13 -151 l-1 -94 -105 2 c-58 1 -108 5 -112 10 -5 4
-13 43 -19 88 -9 68 -8 88 5 127 9 26 16 51 16 56 0 5 5 21 10 35 10 25 13 26
58 21 26 -3 73 -8 104 -11z m398 -17 c42 -70 101 -200 96 -213 -4 -12 -107
-71 -167 -96 -19 -9 -69 56 -118 154 -38 74 -36 90 10 115 13 7 47 26 74 42
65 37 81 37 105 -2z m-1233 8 c-3 -8 14 -35 39 -63 51 -53 104 -126 104 -141
0 -12 -104 -93 -160 -126 -25 -14 -27 -13 -65 35 -22 28 -54 67 -72 87 -29 35
-30 39 -17 62 7 14 13 33 14 43 0 9 6 17 13 17 6 0 26 14 44 30 18 17 36 30
41 30 5 0 17 9 27 20 21 23 40 27 32 6z m471 5 c10 -6 13 -36 11 -115 -2 -71
2 -111 9 -118 7 -7 12 -26 12 -44 l0 -32 -94 -7 c-92 -7 -136 1 -136 26 0 5
-10 23 -22 39 -24 33 -25 64 -7 177 l12 72 46 4 c91 7 156 7 169 -2z m-1348
-52 c38 -17 50 -19 80 -9 19 6 60 10 90 8 l55 -3 3 -111 3 -112 -48 -10 c-26
-6 -75 -13 -108 -16 -52 -5 -66 -2 -110 22 l-50 27 -3 99 c-1 55 0 106 2 113
7 18 34 16 86 -8z m872 -327 c18 -10 59 -27 91 -37 l58 -19 -7 -41 c-3 -22
-10 -44 -15 -49 -5 -6 -9 -20 -9 -33 0 -12 -9 -38 -20 -58 -11 -20 -20 -42
-20 -49 0 -7 -7 -27 -16 -44 -19 -38 -47 -41 -99 -12 -20 11 -41 20 -47 20 -6
0 -29 8 -50 17 -36 16 -38 20 -32 48 3 16 10 35 14 40 4 6 11 21 15 35 4 14
15 43 25 65 11 22 28 61 39 88 11 26 24 47 30 47 6 0 25 -8 43 -18z m393 -2
c12 0 25 -4 31 -8 5 -5 35 -17 67 -27 41 -14 56 -23 53 -35 -2 -8 -10 -40 -17
-70 -6 -30 -23 -79 -36 -108 -14 -29 -28 -65 -32 -80 -9 -33 -40 -40 -84 -19
-18 9 -44 19 -60 22 -15 4 -30 11 -33 16 -3 5 -17 9 -31 9 -24 0 -25 2 -18 36
3 20 10 44 15 53 5 9 25 59 45 111 42 107 53 126 69 110 5 -5 19 -10 31 -10z
m-1145 -38 c0 -38 7 -59 33 -97 54 -81 76 -119 76 -130 1 -10 -197 -110 -204
-104 -19 21 -75 101 -75 108 0 4 -9 16 -20 26 -21 19 -26 65 -14 138 5 25 12
37 23 37 10 0 48 16 87 35 38 19 75 35 82 35 8 0 12 -16 12 -48z m448 3 c7
-14 12 -31 12 -38 0 -7 9 -19 20 -27 21 -15 28 -50 10 -50 -5 0 -10 -21 -10
-47 0 -27 -3 -64 -6 -84 l-6 -37 -77 -6 c-42 -4 -88 -9 -102 -12 -23 -4 -31 2
-64 51 -40 61 -39 48 -19 200 3 28 13 56 22 63 10 8 50 12 112 12 94 0 97 -1
108 -25z m1190 -51 c1 -38 -1 -81 -6 -94 -7 -18 -4 -33 9 -58 27 -46 25 -82
-3 -83 -13 0 -63 -4 -112 -8 l-89 -6 -27 56 c-25 53 -26 61 -18 138 15 138 9
132 135 129 l108 -3 3 -71z m338 52 c8 -8 14 -19 14 -23 0 -5 8 -18 18 -29 10
-10 32 -40 50 -66 l32 -47 -57 -46 c-32 -25 -75 -57 -97 -72 l-38 -27 -29 34
c-17 19 -48 62 -70 95 l-40 60 38 33 c54 46 136 102 151 102 7 0 20 -6 28 -14z
m387 -8 c33 -26 118 -152 115 -172 -3 -18 -27 -39 -135 -115 l-41 -29 -39 50
c-21 27 -50 64 -65 82 -16 19 -28 42 -28 53 0 18 68 83 88 83 4 0 21 14 37 30
32 33 43 36 68 18z m-358 -380 c34 -83 84 -242 79 -250 -3 -4 -14 -8 -24 -8
-11 0 -35 -9 -55 -20 -20 -11 -44 -20 -55 -20 -10 0 -22 -5 -25 -10 -10 -16
-55 -12 -55 5 0 9 -8 28 -17 42 -10 15 -32 67 -50 117 -32 90 -32 91 -12 106
11 9 52 27 92 40 40 13 76 27 82 32 16 14 22 9 40 -34z m-1577 24 c7 -5 17
-47 23 -103 5 -52 16 -116 24 -144 8 -27 10 -54 6 -58 -10 -10 -125 -29 -185
-31 l-38 -1 -20 60 c-11 33 -22 103 -25 155 l-6 95 99 16 c55 9 101 17 104 17
3 1 11 -2 18 -6z m800 -87 c24 -50 51 -103 59 -118 20 -38 19 -39 -115 -109
l-63 -33 -27 35 c-28 36 -112 197 -112 215 0 5 36 27 80 48 44 21 82 42 86 48
3 6 15 9 27 7 15 -2 33 -27 65 -93z m1239 61 c1 -1 5 -49 9 -107 5 -85 4 -108
-8 -119 -8 -8 -22 -27 -32 -43 -18 -27 -20 -27 -126 -27 l-107 0 -7 77 c-11
131 -9 146 25 193 l31 42 106 -7 c59 -4 108 -8 109 -9z m-2585 -47 c29 -21 63
-25 73 -9 3 6 40 10 81 10 l75 0 -3 -112 -3 -112 -30 -8 c-16 -5 -63 -13 -103
-19 l-73 -10 -55 36 -54 36 0 103 c0 56 2 105 5 108 9 9 59 -4 87 -23z m1816
-64 c20 -129 21 -127 -106 -176 -31 -12 -70 -11 -146 3 -63 12 -64 13 -70 48
-3 19 -6 70 -6 113 l0 77 53 0 c28 0 68 -4 87 -10 22 -6 38 -6 44 0 6 6 19 10
31 10 12 0 25 4 31 9 10 10 44 20 59 17 5 -2 16 -42 23 -91z"/>
</g>
</svg>
