<?xml version="1.0" standalone="no"?>
<!DOCTYPE svg PUBLIC "-//W3C//DTD SVG 20010904//EN"
 "http://www.w3.org/TR/2001/REC-SVG-20010904/DTD/svg10.dtd">
<svg version="1.0" xmlns="http://www.w3.org/2000/svg"
 width="825.000000pt" height="825.000000pt" viewBox="0 0 825.000000 825.000000"
 preserveAspectRatio="xMidYMid meet">
<metadata>
Created by potrace 1.14, written by Peter Selinger 2001-2017
</metadata>
<g transform="translate(0.000000,825.000000) scale(0.100000,-0.100000)"
fill="#000000" stroke="none">
<path d="M3920 7474 c-19 -2 -96 -11 -170 -20 -271 -31 -547 -94 -815 -187
-1359 -471 -2356 -1716 -2550 -3186 -22 -164 -38 -476 -33 -619 l5 -123 -40
-38 c-33 -32 -40 -46 -44 -88 -6 -60 12 -100 62 -139 19 -14 35 -30 35 -35 0
-5 -27 -22 -59 -38 -72 -37 -101 -78 -101 -145 0 -59 19 -105 58 -138 l30 -25
-46 -22 c-84 -39 -126 -90 -143 -173 -20 -100 28 -196 123 -244 l53 -27 -35
-14 c-68 -28 -110 -85 -110 -148 0 -82 54 -143 145 -166 28 -6 52 -13 54 -15
1 -1 -12 -21 -30 -44 -31 -39 -34 -48 -34 -111 0 -59 -2 -69 -18 -69 -29 0
-88 -28 -109 -53 -57 -64 -50 -144 19 -209 31 -30 91 -58 124 -58 13 0 49 -26
89 -64 86 -81 156 -110 245 -103 34 2 79 14 104 26 35 18 50 21 80 14 34 -8
36 -11 41 -58 14 -120 104 -195 236 -195 35 0 59 -7 84 -23 52 -35 95 -47 170
-47 111 0 193 40 246 120 l25 38 56 -29 c44 -23 68 -29 119 -29 53 0 72 -5
107 -27 36 -23 55 -28 136 -31 90 -4 96 -6 144 -42 91 -69 192 -78 271 -23 22
16 50 47 61 68 11 22 21 42 23 44 1 3 19 -5 40 -17 47 -26 143 -52 193 -52 25
0 47 -8 66 -24 39 -32 87 -56 115 -56 13 0 41 -6 62 -14 60 -21 134 11 151 64
4 13 16 16 64 12 33 -2 67 1 79 7 17 9 39 6 109 -14 87 -24 226 -53 373 -75
105 -17 430 -26 587 -18 228 12 529 70 712 137 83 30 101 32 101 7 0 -22 58
-95 89 -111 17 -8 54 -15 83 -15 31 -1 61 -7 72 -15 28 -21 105 -19 142 4 18
11 40 34 50 51 19 31 19 31 80 24 81 -8 161 15 213 61 30 27 47 35 77 35 45 0
53 -4 82 -46 12 -18 45 -47 74 -65 49 -32 58 -34 128 -32 41 1 91 3 110 3 19
1 63 -2 98 -6 48 -5 73 -2 109 11 77 30 142 100 163 175 6 24 8 22 33 -25 46
-90 123 -145 201 -145 42 1 108 32 132 62 11 14 35 28 56 32 74 14 157 103
158 169 0 15 5 17 38 10 61 -13 146 -7 193 14 43 20 119 87 119 105 0 6 24 6
55 3 76 -10 135 8 193 60 26 22 68 49 93 58 178 67 143 278 -51 304 l-37 5 0
57 c0 58 -18 107 -55 147 -19 21 -19 21 13 28 53 10 115 52 133 90 20 43 21
108 1 146 -15 28 -73 80 -91 80 -5 0 -15 4 -23 9 -12 8 -4 19 36 56 92 82 110
210 44 316 l-32 52 34 156 c102 454 120 869 56 1316 -105 742 -406 1412 -899
2001 -90 107 -346 366 -452 457 -503 429 -1154 737 -1794 847 -257 44 -345 51
-649 55 -165 2 -316 1 -335 -1z m705 -180 c298 -36 502 -82 780 -177 205 -71
256 -92 448 -187 190 -95 398 -221 519 -314 15 -12 48 -37 74 -56 74 -55 183
-148 256 -218 36 -35 75 -70 87 -78 11 -8 76 -77 145 -154 299 -335 532 -705
704 -1117 106 -251 195 -574 238 -854 21 -142 27 -223 31 -444 6 -289 -2 -420
-39 -647 l-22 -136 -48 36 c-59 46 -65 63 -38 100 19 26 21 38 15 88 -9 88
-10 157 -1 394 4 118 4 249 -1 290 l-8 75 -100 52 c-55 29 -124 60 -153 70
l-52 17 24 25 c35 39 46 65 46 114 0 57 -32 104 -92 137 -26 14 -50 28 -53 32
-3 3 2 24 11 47 21 53 13 105 -22 142 -18 19 -24 33 -19 48 7 22 -7 54 -37 87
-11 12 -19 28 -18 35 6 37 -3 61 -32 94 -31 36 -31 37 -14 67 23 38 15 81 -24
130 -19 23 -30 48 -30 67 0 22 -9 39 -30 57 -26 24 -29 32 -24 64 6 40 -4 70
-39 107 -18 21 -19 26 -8 61 15 45 6 71 -38 108 -15 12 -31 41 -38 66 -6 24
-22 56 -34 71 -45 58 -118 13 -134 -82 -4 -22 -13 -42 -20 -45 -25 -9 -48 -67
-42 -108 4 -33 1 -43 -24 -67 -22 -22 -29 -39 -29 -68 0 -21 4 -44 9 -51 5 -9
-2 -23 -20 -43 -28 -30 -46 -80 -34 -99 4 -6 -5 -24 -19 -41 -30 -35 -35 -97
-12 -139 13 -22 12 -27 -14 -57 -16 -18 -32 -48 -36 -68 -3 -19 -10 -37 -14
-40 -10 -6 -138 131 -163 174 l-18 31 35 0 c19 0 37 4 41 9 3 6 -22 76 -55
158 -34 81 -70 172 -81 201 -15 37 -26 52 -39 52 -23 0 -31 -13 -71 -122 -16
-46 -41 -106 -54 -134 -39 -83 -64 -151 -58 -158 4 -3 21 -6 40 -6 18 0 33 -4
33 -9 0 -14 -66 -107 -138 -196 -114 -141 -119 -180 -24 -180 66 1 70 7 -99
-179 l-27 -29 -7 24 c-4 13 -14 35 -23 49 -9 14 -15 36 -14 50 2 14 -6 34 -16
46 -14 14 -18 30 -15 48 4 18 -3 38 -20 64 -14 20 -30 56 -37 79 -14 54 -43
73 -64 41 -8 -13 -19 -42 -25 -64 -6 -23 -18 -47 -26 -54 -8 -7 -15 -28 -15
-47 0 -20 -9 -48 -21 -65 -16 -22 -20 -39 -16 -68 3 -21 0 -43 -6 -49 -5 -5
-11 -25 -12 -43 -1 -19 -7 -43 -14 -55 -6 -12 -11 -32 -11 -45 0 -13 -7 -32
-15 -42 -8 -11 -15 -33 -15 -48 0 -16 -8 -41 -17 -55 -12 -18 -18 -48 -18 -89
-1 -45 -6 -68 -18 -82 -9 -10 -17 -32 -17 -49 0 -16 -8 -37 -19 -47 -17 -16
-22 -13 -91 68 -40 47 -76 87 -79 88 -3 2 -21 22 -39 46 l-34 42 51 0 c29 0
67 7 86 14 30 13 35 20 35 47 0 36 -20 66 -120 179 -78 89 -110 130 -110 141
0 5 18 9 40 9 22 0 40 5 40 10 0 9 -126 329 -153 387 -20 45 -43 28 -76 -57
-17 -44 -45 -116 -62 -160 -17 -44 -34 -80 -38 -80 -3 0 -25 22 -48 49 -24 28
-59 55 -78 62 -34 12 -35 15 -35 62 0 43 -5 54 -35 84 -36 36 -58 39 -109 18
-17 -7 -18 -5 -13 17 12 45 27 162 27 208 0 43 3 46 41 64 95 44 185 173 196
283 4 38 11 56 22 60 144 43 268 119 363 222 72 79 116 147 163 258 116 269
78 610 -97 880 -91 139 -261 294 -398 363 -125 62 -319 110 -450 110 -75 0
-221 -26 -304 -55 -185 -64 -378 -232 -450 -393 -14 -30 -25 -42 -40 -42 -12
0 -42 -6 -67 -14 -259 -79 -410 -354 -343 -625 23 -92 58 -156 120 -222 l55
-56 -12 -96 c-20 -173 24 -311 137 -423 l62 -62 -5 -66 c-8 -97 25 -193 87
-255 50 -50 121 -89 177 -98 29 -5 33 -9 33 -38 0 -19 -8 -39 -19 -49 -44 -40
-29 -118 28 -152 l31 -18 0 -163 0 -163 -50 0 c-28 0 -80 -7 -116 -16 -36 -9
-66 -15 -67 -13 -2 2 -16 23 -31 46 l-29 43 22 17 22 18 -45 70 -45 70 29 8
c39 10 38 29 -3 98 -18 30 -55 107 -82 172 -42 100 -52 117 -70 115 -16 -2
-27 -23 -50 -94 -35 -101 -60 -153 -105 -215 -23 -32 -27 -45 -19 -55 6 -8 15
-11 20 -8 21 13 6 -20 -36 -77 -25 -34 -45 -68 -45 -75 0 -8 11 -19 25 -24 25
-10 25 -10 9 -42 -28 -54 -83 -138 -148 -225 l-61 -82 -27 29 c-15 17 -31 30
-36 30 -5 0 -8 28 -8 63 1 74 -23 116 -84 147 l-39 20 25 27 c23 24 25 35 21
78 -4 42 -10 54 -41 81 -29 25 -36 38 -36 68 0 21 -5 47 -12 59 -6 12 -11 38
-9 58 2 29 -4 44 -29 73 -32 36 -32 38 -26 109 6 61 4 77 -14 109 -11 21 -20
54 -20 73 0 25 -7 43 -24 58 -18 17 -22 29 -18 55 4 34 -35 139 -65 174 -12
14 -13 23 -4 51 15 44 3 75 -41 112 -19 16 -40 47 -49 73 -8 25 -27 55 -42 66
l-27 20 -27 -21 c-18 -12 -33 -38 -41 -67 -7 -25 -22 -51 -32 -56 -29 -16 -52
-67 -49 -110 2 -22 -4 -48 -14 -63 -9 -15 -17 -40 -17 -57 0 -16 -4 -30 -9
-30 -16 0 -32 -57 -26 -91 5 -26 2 -39 -14 -56 -12 -12 -21 -31 -21 -42 0 -11
-5 -23 -10 -26 -6 -4 -8 -10 -5 -15 2 -4 -4 -18 -14 -31 -30 -39 -35 -84 -15
-139 l17 -48 -31 -37 c-22 -25 -32 -46 -32 -69 0 -19 -7 -47 -15 -62 -8 -16
-15 -43 -15 -61 0 -24 -7 -37 -30 -53 -35 -25 -50 -72 -38 -120 5 -19 12 -44
15 -56 4 -16 -4 -24 -37 -39 -22 -10 -54 -31 -69 -47 l-28 -28 -37 40 -37 40
44 0 c28 0 53 7 67 18 21 17 22 19 6 56 -9 22 -45 71 -79 110 -69 77 -117 139
-117 149 0 4 11 7 24 7 35 0 37 10 15 60 -12 25 -38 91 -59 147 -52 137 -59
149 -75 132 -13 -14 -135 -311 -135 -330 0 -5 14 -9 30 -9 17 0 30 -3 30 -8 0
-13 -69 -113 -125 -182 -64 -80 -78 -105 -70 -130 5 -16 15 -20 52 -20 24 0
43 -4 41 -9 -1 -5 -23 -31 -48 -58 -127 -134 -152 -182 -115 -213 13 -11 23
-8 62 19 l46 33 -21 -34 c-25 -39 -132 -148 -146 -148 -25 0 -46 35 -46 77 0
29 -8 56 -25 83 -15 23 -25 54 -25 75 0 42 -28 100 -71 150 -21 23 -32 48 -34
70 -1 19 -9 43 -18 53 -10 10 -17 29 -17 41 0 27 -25 77 -54 111 -12 14 -32
57 -44 97 -38 120 -104 167 -151 107 -22 -29 -51 -113 -51 -150 0 -13 -18 -44
-41 -70 -39 -45 -40 -49 -37 -110 2 -55 -1 -66 -21 -88 -14 -14 -26 -25 -27
-23 -13 13 87 395 146 555 132 361 329 722 553 1012 136 175 339 391 506 538
597 526 1371 841 2185 892 172 11 469 3 631 -16z m13 -160 c257 -50 506 -242
627 -484 75 -150 100 -271 92 -434 -9 -173 -51 -298 -143 -417 -111 -145 -243
-224 -435 -263 -26 -6 -27 -7 -25 -88 1 -72 -3 -90 -26 -135 -41 -76 -104
-123 -205 -149 -10 -2 -13 -34 -13 -116 0 -70 -6 -140 -16 -184 l-17 -70 -186
0 c-102 1 -203 -3 -223 -7 l-38 -8 0 109 0 109 -67 5 c-134 10 -205 76 -211
197 -3 55 1 73 21 110 l24 45 -56 27 c-127 61 -211 203 -211 357 0 34 19 122
35 163 4 11 -10 26 -48 52 -291 200 -166 681 186 714 l64 6 18 50 c25 70 106
187 167 242 178 160 424 221 686 169z m-2150 -1615 c6 -35 13 -47 37 -58 54
-26 60 -38 46 -85 -7 -22 -13 -48 -15 -56 -1 -9 -9 -26 -18 -39 -14 -20 -24
-22 -99 -22 -100 0 -121 13 -93 56 13 19 23 25 39 21 26 -7 95 11 95 25 0 6
-10 8 -22 4 -13 -4 -30 -9 -39 -11 -24 -7 -49 23 -49 56 0 22 7 33 29 45 23
11 33 27 46 71 18 64 31 62 43 -7z m4479 -22 c5 -39 11 -50 44 -73 39 -27 52
-65 28 -80 -6 -3 -8 -16 -5 -28 4 -16 -1 -29 -17 -43 -12 -11 -35 -36 -50 -56
-48 -61 -129 -73 -162 -23 -30 45 15 101 93 117 34 6 35 7 8 8 -35 1 -66 26
-66 53 0 10 13 32 29 48 17 18 35 55 46 91 15 55 18 60 32 46 8 -8 18 -35 20
-60z m-4451 -270 c3 -3 -17 -28 -45 -56 -42 -42 -57 -51 -87 -51 -53 0 -74 15
-74 54 0 54 27 67 133 62 37 -2 70 -6 73 -9z m4465 -122 c22 -12 29 -22 27
-38 -3 -24 -50 -38 -165 -50 -59 -6 -64 -5 -79 17 -20 31 -6 60 39 81 39 18
134 12 178 -10z m-4501 -31 c50 -20 50 -45 0 -55 -114 -23 -172 -30 -185 -25
-24 9 -19 62 7 80 30 21 126 21 178 0z m4504 -93 c9 -7 27 -11 41 -9 13 3 22
2 20 -3 -3 -4 -1 -10 4 -13 5 -4 12 -2 16 4 10 17 35 11 35 -7 0 -15 -2 -16
-10 -3 -6 9 -10 10 -10 3 0 -6 -8 -14 -17 -16 -10 -3 -3 -5 16 -6 29 -1 32 -3
21 -16 -7 -8 -22 -15 -34 -15 -29 0 -42 -11 -49 -42 -8 -29 -37 -40 -110 -39
-48 0 -152 33 -179 58 -27 24 -22 60 12 95 l31 30 98 -4 c62 -2 105 -9 115
-17z m-4441 -17 c107 -6 120 -18 49 -44 -22 -8 -60 -33 -84 -55 -42 -40 -43
-40 -123 -40 -99 0 -130 8 -150 39 -14 21 -14 28 -1 59 21 51 39 58 131 52 44
-2 124 -7 178 -11z m4261 -184 c-12 -5 -31 -22 -43 -39 -29 -40 -58 -56 -76
-41 -36 30 31 90 100 89 32 0 36 -2 19 -9z m-4488 -20 c15 0 25 -38 12 -46 -6
-4 -5 -10 3 -15 11 -7 10 -9 -4 -9 -10 0 -28 -7 -42 -16 -33 -21 -89 -15 -94
11 -5 26 66 87 94 80 11 -2 25 -5 31 -5z m2187 -33 c56 -24 48 -41 -15 -30
-65 10 -395 11 -460 1 -38 -6 -48 -5 -48 7 0 30 112 45 325 41 118 -3 170 -7
198 -19z m167 -6 c5 -11 7 -27 4 -36 -7 -18 -39 -37 -48 -28 -10 11 -7 58 6
71 17 17 26 15 38 -7z m-3831 -30 c25 -45 59 -281 47 -319 -4 -11 -27 -30 -51
-42 -44 -21 -140 -41 -150 -31 -4 3 10 20 31 37 35 31 36 33 20 55 -26 38 -20
77 18 113 29 27 34 40 40 94 7 62 20 112 30 112 3 0 10 -8 15 -19z m3346 -53
c25 -11 26 -15 20 -56 -14 -93 -15 -195 -2 -211 9 -12 9 -13 0 -7 -17 10 -18
-85 -1 -102 9 -9 8 -12 -4 -12 -21 0 -26 -31 -16 -90 7 -40 6 -47 -14 -62 -13
-10 -27 -18 -32 -18 -4 0 -17 -11 -28 -25 -11 -14 -24 -25 -29 -25 -5 0 -9
126 -9 310 l0 310 45 0 c24 0 56 -5 70 -12z m2825 -4 c135 -1 250 -3 257 -3
21 -2 26 -41 7 -62 -17 -19 -26 -20 -115 -13 -95 6 -99 6 -161 -24 -38 -19
-88 -34 -127 -38 -54 -6 -67 -11 -93 -40 -35 -38 -130 -78 -164 -70 -24 6 -58
55 -69 97 -6 24 -4 27 33 33 48 7 65 25 56 60 -4 17 0 35 11 52 16 24 20 25
68 19 29 -4 162 -9 297 -11z m-1245 -46 c23 -70 15 -94 -30 -95 -42 -1 -44 11
-15 76 11 24 20 49 20 57 0 26 8 14 25 -38z m-3265 16 c129 -3 245 -7 256 -10
28 -5 37 -29 21 -55 -11 -19 -18 -20 -87 -13 -93 10 -124 8 -225 -13 -121 -24
-154 -38 -197 -88 -60 -68 -139 -80 -168 -25 -18 33 -8 62 30 88 31 21 35 28
32 61 -5 52 19 75 67 67 20 -3 142 -9 271 -12z m2216 -9 c49 -14 104 -60 117
-97 11 -30 -9 -28 -32 2 -43 59 -117 87 -182 70 -144 -39 -179 -248 -57 -344
l33 -26 -82 0 c-46 0 -83 4 -83 9 0 12 25 38 42 43 9 3 9 24 -2 91 -12 77 -11
91 4 130 21 56 72 105 127 122 57 18 57 18 115 0z m3 -71 c53 -21 74 -55 72
-117 -1 -68 -33 -131 -75 -151 -43 -20 -69 -20 -111 0 -109 51 -102 220 10
270 39 17 57 17 104 -2z m1000 -86 c10 -27 4 -39 -9 -18 -8 12 -10 10 -10 -7
0 -16 -6 -23 -19 -23 -26 0 -35 29 -15 51 23 25 43 24 53 -3z m-744 -10 c31
-28 44 -73 34 -114 -12 -41 -40 -65 -86 -71 -32 -4 -45 0 -71 22 -29 24 -32
32 -32 78 0 29 6 59 13 68 34 44 101 52 142 17z m-627 -62 c4 -51 -5 -86 -23
-86 -17 0 -35 30 -35 59 0 73 52 97 58 27z m80 -24 c3 -18 -2 -22 -22 -22 -33
0 -44 20 -20 37 24 17 38 12 42 -15z m1288 19 c-4 -5 2 -7 12 -4 17 4 18 1 8
-41 -11 -50 -27 -57 -80 -36 -33 12 -33 35 0 65 25 24 72 36 60 16z m-1509
-73 c-2 -13 -4 -3 -4 22 0 25 2 35 4 23 2 -13 2 -33 0 -45z m1678 -7 c3 -5 2
-12 -3 -15 -5 -3 -9 1 -9 9 0 17 3 19 12 6z m1508 0 c17 -7 26 -20 31 -46 9
-45 -1 -58 -56 -75 -24 -7 -47 -17 -53 -22 -5 -4 -18 -8 -30 -8 -12 0 -26 -5
-32 -11 -21 -21 -124 -14 -218 15 -27 9 -61 15 -75 15 -23 -2 -24 -2 -2 -6 26
-5 30 -23 5 -23 -15 0 -16 -2 -3 -10 11 -7 11 -10 2 -10 -7 0 -11 -4 -8 -9 3
-5 -14 -11 -37 -12 -54 -5 -79 0 -72 12 4 5 -5 9 -19 9 -14 0 -26 -4 -26 -10
0 -6 -54 -10 -142 -10 -162 0 -198 11 -231 68 -24 40 -17 74 23 113 l28 29
446 0 c249 0 455 -4 469 -9z m-4775 -8 c-3 -15 14 -43 23 -37 5 3 9 -2 9 -10
0 -9 4 -16 9 -16 5 0 12 -7 15 -16 5 -13 2 -15 -14 -11 -13 3 -20 0 -20 -9 0
-22 -41 -37 -104 -36 -79 0 -167 12 -161 22 9 15 -22 18 -46 5 -65 -38 -104
-40 -130 -9 -6 8 -19 14 -28 14 -13 -1 -13 -3 3 -15 20 -15 10 -20 -18 -9 -9
3 -13 10 -10 15 6 11 1 11 -20 3 -9 -3 -16 -10 -16 -14 0 -13 71 -34 105 -32
23 2 26 0 15 -8 -8 -5 -33 -10 -55 -10 -31 0 -37 -3 -25 -11 11 -8 -6 -9 -62
-6 -86 4 -102 13 -118 62 -9 26 -8 41 4 69 26 62 44 65 364 66 155 0 281 -3
280 -7z m-1758 -21 c29 -14 35 -23 38 -55 5 -60 -15 -72 -122 -72 -50 0 -103
3 -118 8 -25 6 -28 12 -28 48 0 29 7 47 25 64 21 22 33 25 97 25 49 0 84 -6
108 -18z m4917 2 c-3 -3 -12 -4 -19 -1 -8 3 -5 6 6 6 11 1 17 -2 13 -5z m-947
-26 c44 -25 53 -44 18 -34 -13 3 -47 6 -77 6 l-54 0 34 24 c19 13 35 25 37 25
2 1 21 -9 42 -21z m885 -10 c1 -31 -28 -49 -68 -41 -55 11 -20 77 37 71 26 -3
31 -7 31 -30z m290 -25 c-21 -27 -40 -50 -42 -52 -6 -8 -32 22 -27 31 3 5 8 7
11 5 2 -3 23 12 46 33 23 22 43 37 46 35 2 -3 -13 -26 -34 -52z m-159 -9 c2
-10 -3 -14 -13 -10 -8 3 -20 6 -26 6 -7 0 -6 4 3 10 10 6 11 10 3 10 -7 0 -13
7 -13 16 0 14 2 14 22 0 12 -9 23 -23 24 -32z m22 34 c15 -15 16 -38 2 -38 -5
0 -9 3 -9 8 3 20 -3 31 -18 35 -14 4 -14 5 -2 6 8 0 20 -4 27 -11z m-1914 -4
c34 -5 46 -11 46 -23 0 -14 -10 -17 -56 -17 -49 1 -59 -2 -80 -27 -42 -49 -34
-57 56 -57 47 0 80 -4 80 -10 0 -6 -48 -10 -122 -10 -68 0 -140 -3 -160 -6
-46 -8 -47 0 -10 55 33 49 78 79 136 91 56 11 57 11 110 4z m1741 -82 c5 -3
-13 -12 -40 -19 -53 -13 -72 -6 -61 22 5 14 14 15 49 10 23 -4 46 -10 52 -13z
m-1345 -40 c0 -10 -13 -23 -32 -31 -18 -7 -64 -31 -101 -54 -79 -46 -229 -199
-220 -224 4 -10 10 -6 21 16 15 33 35 43 25 14 -4 -12 0 -11 11 5 10 12 14 27
10 34 -4 7 -3 8 4 4 7 -4 10 -19 7 -34 -3 -15 -2 -21 1 -13 5 10 8 11 14 1 5
-8 -6 -35 -27 -68 -20 -30 -46 -80 -59 -111 -13 -31 -23 -51 -23 -46 -1 20 30
99 50 126 10 15 19 31 19 37 0 5 7 15 15 22 12 10 13 16 5 24 -8 8 -13 7 -20
-4 -7 -10 -10 -11 -10 -2 0 24 -19 11 -25 -18 -4 -17 -11 -28 -16 -24 -5 3 -9
3 -9 0 0 -2 -3 -12 -7 -22 -4 -11 -3 -15 5 -10 6 3 14 1 18 -5 5 -8 3 -9 -6
-4 -9 5 -10 2 -6 -12 4 -14 2 -20 -9 -20 -11 0 -13 6 -9 20 4 12 2 17 -4 13
-5 -3 -12 -15 -15 -26 -3 -11 -1 -18 4 -14 5 3 9 1 9 -5 0 -5 -9 -9 -20 -8
-11 1 -20 2 -20 4 0 1 14 25 31 53 17 27 29 55 27 61 -2 7 -21 -20 -41 -58
-35 -67 -49 -105 -26 -73 8 12 9 9 4 -9 -4 -13 -8 -47 -8 -75 0 -37 -2 -44 -7
-26 -4 14 -5 41 -3 60 3 34 3 34 -13 -10 -13 -34 -17 -80 -17 -190 -1 -124 2
-153 21 -202 l21 -58 -28 0 c-26 0 -28 4 -47 78 -38 154 -18 357 51 509 65
141 203 286 337 353 88 44 118 50 118 22z m-3598 -14 c26 -5 66 -24 90 -42 24
-18 64 -42 90 -54 76 -33 82 -44 39 -64 -28 -14 -52 -16 -112 -11 -59 4 -82 2
-107 -11 -39 -20 -112 -22 -112 -2 0 7 -16 33 -35 57 -49 61 -45 107 10 138
20 11 44 9 137 -11z m4226 -15 c222 -131 353 -336 382 -597 18 -152 -28 -377
-77 -384 -19 -3 -21 1 -20 31 1 19 5 33 8 31 10 -5 31 75 23 88 -4 6 -3 8 4 5
14 -10 26 144 18 230 -7 64 -30 156 -46 178 -3 6 -14 31 -23 56 -21 56 -53 92
-75 85 -24 -8 -44 8 -36 27 9 24 27 21 19 -3 -4 -12 -2 -20 5 -20 6 0 8 5 4
11 -4 7 2 6 17 -2 20 -10 17 -3 -15 37 -22 27 -42 53 -46 57 -4 4 -17 3 -31
-2 -13 -5 -18 -10 -11 -10 7 -1 10 -6 6 -12 -4 -8 -9 -7 -14 2 -7 10 -12 10
-27 -1 -11 -9 -10 -5 4 11 18 19 20 28 11 37 -8 8 -8 12 -1 12 6 0 16 -7 23
-15 7 -9 15 -13 18 -10 6 5 -25 33 -86 76 -33 24 -47 28 -55 20 -9 -9 -8 -11
3 -7 17 6 57 -20 47 -31 -4 -4 -13 -1 -19 5 -15 15 -32 16 -23 2 3 -5 -1 -10
-9 -10 -9 0 -16 6 -16 14 0 17 -50 30 -82 21 -18 -5 -20 -4 -8 4 8 6 29 11 45
12 28 1 29 1 6 8 -25 7 -42 31 -21 31 6 0 8 -4 5 -10 -4 -6 1 -7 11 -3 15 5
15 7 0 15 -22 12 -21 48 2 48 9 0 46 -17 80 -37z m-2750 20 c-10 -2 -26 -2
-35 0 -10 3 -2 5 17 5 19 0 27 -2 18 -5z m139 1 c-3 -3 -12 -4 -19 -1 -8 3 -5
6 6 6 11 1 17 -2 13 -5z m1234 -35 c16 -26 9 -31 -35 -25 -38 6 -48 3 -75 -19
-50 -43 -42 -52 44 -47 65 3 75 2 75 -13 0 -13 -9 -16 -47 -15 -27 1 -63 1
-80 1 l-33 -1 0 -95 c0 -57 -4 -95 -10 -95 -6 0 -10 39 -10 96 l0 96 -60 -4
c-70 -4 -72 2 -31 59 44 61 101 85 185 80 43 -3 71 -10 77 -18z m2101 7 c31 0
60 -5 65 -9 4 -5 4 -7 -2 -6 -5 2 -20 -2 -33 -9 -33 -19 -152 -28 -152 -12 0
7 -7 10 -16 6 -10 -4 -13 -2 -8 7 19 34 29 39 58 32 17 -4 57 -8 88 -9z
m-1872 -96 c0 -60 -4 -100 -10 -100 -6 0 -10 40 -10 100 0 60 4 100 10 100 6
0 10 -40 10 -100z m549 75 c6 3 11 1 11 -4 0 -6 10 -11 23 -11 12 0 -11 -14
-51 -30 -40 -17 -79 -30 -85 -29 -9 0 -8 2 1 6 6 2 12 11 12 19 0 10 7 13 24
8 14 -3 36 1 53 11 27 16 24 16 -26 0 -13 -4 -21 -3 -18 2 3 5 -10 7 -29 5
-25 -3 -34 -8 -30 -18 3 -9 -1 -14 -12 -14 -12 0 -13 -3 -5 -8 9 -5 6 -12 -10
-21 -19 -12 -20 -12 -11 0 6 8 10 22 9 31 -4 20 33 49 80 65 24 9 33 8 42 -4
6 -8 16 -12 22 -8z m-2345 -13 c3 -5 31 -14 63 -21 32 -7 88 -19 125 -28 78
-18 159 -13 183 10 20 21 -8 18 280 23 132 3 253 5 268 6 16 0 32 -3 37 -8 5
-5 -12 -8 -41 -6 -50 4 -158 -11 -215 -29 -20 -6 -38 -22 -50 -44 -12 -23 -37
-44 -74 -64 -93 -49 -150 -61 -338 -68 -112 -4 -178 -10 -185 -18 -7 -6 -21
-24 -32 -38 -47 -64 -155 -12 -190 90 -18 51 -10 67 56 125 33 28 59 57 59 64
0 15 45 19 54 6z m1694 -94 c-3 -89 -5 -103 -20 -106 -16 -3 -18 7 -18 102 0
100 1 106 20 106 20 0 21 -5 18 -102z m3691 35 c35 -73 34 -93 -2 -93 -13 0
-32 -7 -43 -15 -10 -8 -27 -15 -36 -15 -30 0 -20 -20 10 -20 27 0 131 -17 161
-26 11 -4 10 -8 -4 -24 -17 -19 -17 -21 1 -42 16 -18 17 -20 2 -15 -23 8 -47
-21 -27 -34 8 -5 21 -9 30 -9 9 0 22 -7 29 -15 36 -43 -29 -75 -116 -56 -36 8
-59 9 -78 1 -39 -14 -91 -12 -105 4 -9 10 -9 25 0 57 6 24 11 61 10 81 -1 38
22 88 42 88 18 0 36 35 37 72 0 40 34 128 49 128 5 0 23 -30 40 -67z m-286 42
c81 0 147 -3 147 -7 0 -5 -17 -8 -39 -8 -38 0 -67 -17 -120 -68 -31 -31 -98
-59 -196 -83 -44 -10 -116 -32 -160 -48 -44 -16 -109 -35 -143 -41 -35 -7 -80
-24 -100 -38 -88 -60 -147 -64 -197 -14 -34 34 -58 88 -51 116 7 28 143 166
163 166 9 0 24 6 32 14 14 13 27 12 101 -4 47 -11 121 -20 166 -20 71 0 85 3
115 25 30 21 40 24 84 18 28 -4 116 -8 198 -8z m-3974 -51 c-28 -30 -53 -31
-73 -2 -9 12 -16 25 -16 28 0 3 25 3 56 2 l56 -4 -23 -24z m1057 21 c-3 -23
-12 -26 -13 -5 -1 11 2 20 7 20 4 0 7 -7 6 -15z m728 -23 c14 -13 20 -14 23
-4 6 16 20 15 26 -2 4 -10 1 -13 -9 -9 -7 3 -14 0 -14 -7 0 -7 -15 -1 -34 14
-19 14 -42 26 -50 26 -9 0 -16 4 -16 10 0 13 49 -6 74 -28z m2596 23 c31 -12
32 -14 10 -14 -14 0 -36 6 -50 14 -31 18 -7 18 40 0z m-2959 -15 c5 0 9 -7 9
-15 0 -8 5 -15 11 -15 5 0 7 5 4 10 -3 6 4 10 17 10 18 0 20 2 8 10 -11 7 -11
10 -2 10 7 0 17 -10 22 -22 5 -13 9 -17 9 -10 1 6 6 12 12 12 5 0 7 -4 4 -10
-3 -5 -1 -10 4 -10 6 0 11 5 11 11 0 6 5 7 13 2 19 -12 41 -13 48 -2 4 8 12 8
25 1 11 -6 43 -22 72 -37 105 -52 201 -150 254 -261 37 -77 40 -87 28 -109 -7
-14 -10 -28 -7 -32 4 -3 7 1 7 10 0 32 17 17 23 -20 8 -50 -1 -206 -13 -238
-5 -14 -21 -30 -34 -35 -16 -6 -28 -21 -34 -41 -4 -18 -14 -35 -21 -37 -9 -3
-11 0 -6 8 6 10 4 12 -8 7 -19 -7 -21 1 -7 23 9 13 10 13 10 0 0 -25 29 38 32
72 2 17 9 34 17 36 10 3 12 0 8 -12 -4 -10 -1 -19 9 -23 18 -7 20 -5 28 32 5
24 4 26 -4 12 -15 -24 -30 -12 -30 24 0 16 -4 29 -10 29 -5 0 -10 -13 -10 -29
0 -16 -8 -35 -17 -42 -15 -12 -16 -12 -9 6 5 11 11 31 13 45 3 14 7 32 10 40
13 34 1 95 -24 124 -19 23 -24 37 -20 63 6 38 0 43 -12 11 -7 -20 -10 -17 -31
25 -13 26 -28 47 -32 47 -5 0 -7 8 -4 18 3 9 1 24 -5 32 -8 11 -9 9 -3 -10 6
-22 5 -24 -10 -11 -9 8 -15 20 -12 27 3 8 0 11 -8 8 -7 -3 -18 7 -25 23 -10
21 -14 24 -22 12 -5 -8 -9 -9 -9 -2 0 6 -9 15 -20 18 -22 7 -18 25 6 25 8 0
12 -4 9 -10 -3 -5 -2 -10 4 -10 5 0 12 4 16 9 7 12 -21 19 -60 17 -16 -1 -39
2 -50 8 -11 6 -39 13 -62 16 -40 5 -41 6 -27 25 14 19 16 19 25 3 6 -10 18
-18 27 -17 14 0 14 2 2 6 -20 8 -30 24 -30 51 0 20 -5 24 -27 21 -5 -1 -7 -5
-5 -10 1 -5 -3 -9 -9 -9 -6 0 -9 9 -6 20 5 21 -16 45 -33 35 -5 -3 -10 -15
-10 -26 0 -16 -5 -19 -19 -14 -21 6 -38 -10 -22 -20 6 -3 19 -19 31 -35 l21
-29 -33 0 c-18 1 -46 -4 -63 -11 -16 -7 -36 -12 -44 -11 -8 1 -10 -2 -5 -10 5
-8 3 -10 -5 -4 -7 4 -22 -1 -34 -13 -12 -11 -32 -25 -45 -31 -12 -7 -21 -15
-19 -19 4 -7 -26 -40 -40 -44 -4 -2 -8 -9 -10 -17 -1 -8 -6 -17 -11 -20 -32
-20 -62 -135 -63 -239 0 -47 -3 -61 -9 -47 -8 19 -9 19 -9 -2 -1 -12 5 -28 13
-36 11 -11 12 -17 4 -25 -7 -7 -8 -15 -4 -19 4 -4 10 -2 14 4 5 7 11 3 19 -13
6 -13 7 -24 2 -24 -5 0 -9 5 -9 12 0 6 -3 9 -6 5 -3 -3 10 -23 30 -43 20 -21
35 -43 32 -50 -5 -12 26 -61 49 -76 5 -4 -3 -8 -18 -8 -19 0 -26 4 -21 12 4 7
3 8 -4 4 -15 -9 -15 -33 -1 -38 7 -2 8 -14 1 -38 -6 -19 -11 -27 -11 -17 -1
16 -19 55 -31 67 -3 3 -6 12 -8 20 -2 8 -10 20 -19 25 -9 6 -25 18 -35 28 -11
10 -23 16 -26 12 -4 -3 0 -10 8 -15 8 -5 11 -13 6 -17 -5 -4 -11 -2 -13 5 -3
6 -11 12 -19 12 -9 0 -13 4 -10 8 3 5 -9 6 -25 4 -23 -3 -34 1 -45 17 -9 12
-19 19 -23 16 -5 -2 -7 22 -6 55 2 33 -1 58 -5 55 -4 -2 -13 35 -19 83 -7 48
-15 92 -16 99 -4 13 10 70 32 130 11 30 19 40 30 36 12 -5 14 -1 9 14 -4 12 1
27 13 39 10 11 22 30 25 42 17 51 192 183 263 197 23 4 24 4 8 -4 -14 -7 -15
-10 -5 -10 19 -1 42 13 42 25 -1 5 6 8 15 6 10 -2 12 1 7 9 -4 7 -3 10 3 6 5
-3 23 -2 39 3 16 4 35 6 42 4 8 -2 18 -4 23 -4z m116 4 c-3 -3 -12 -4 -19 -1
-8 3 -5 6 6 6 11 1 17 -2 13 -5z m-515 -22 c-16 -5 -15 -17 3 -36 9 -9 11 -17
5 -21 -5 -3 -10 -1 -10 4 0 6 -5 11 -11 11 -6 0 -8 -10 -5 -22 3 -13 3 -17 0
-10 -3 6 -10 10 -15 7 -5 -4 -6 0 -3 8 8 22 -15 31 -34 15 -9 -8 -24 -18 -32
-22 -8 -5 3 8 25 27 38 34 40 34 45 14 7 -26 17 -11 15 20 -2 15 2 20 13 15
11 -4 12 -7 4 -10z m864 7 c3 -6 1 -16 -6 -22 -10 -9 -12 -8 -7 5 4 12 2 15
-9 11 -7 -3 -14 0 -14 6 0 14 27 14 36 0z m-777 -2 c-2 -1 -13 -9 -24 -17 -19
-14 -19 -14 -6 3 7 9 18 17 24 17 6 0 8 -1 6 -3z m-919 -140 c0 -87 -8 -117
-32 -117 -4 0 -8 47 -8 105 0 98 1 105 20 105 19 0 20 -7 20 -93z m2254 84 c3
-4 3 -11 0 -14 -8 -8 -34 3 -34 14 0 11 27 12 34 0z m-474 -25 c9 -11 9 -19 0
-33 -10 -16 -10 -15 -5 5 7 23 -10 32 -18 10 -2 -8 -8 -9 -13 -4 -5 5 -4 11 4
13 6 3 10 9 6 14 -9 15 13 10 26 -5z m453 -6 c9 -11 25 -20 36 -20 13 0 18 -6
16 -17 -2 -10 -4 -21 -4 -25 -1 -5 -12 -8 -25 -8 -13 0 -32 -3 -40 -6 -15 -6
-15 -8 1 -20 21 -16 37 -18 28 -4 -3 6 -4 10 -1 10 15 0 14 -21 -1 -36 -17
-17 -17 -18 0 -11 16 6 56 -18 46 -27 -2 -2 -48 -6 -101 -8 -76 -3 -98 -1 -98
9 0 7 5 13 10 13 6 0 9 12 8 28 -3 25 0 27 40 30 46 3 49 6 27 28 -22 22 -18
50 7 68 28 20 30 20 51 -4z m-1653 -9 c0 -10 -15 -16 -70 -26 -157 -29 -277
-112 -341 -237 -73 -144 -75 -285 -4 -452 6 -14 5 -18 -6 -14 -19 6 -56 120
-65 195 -19 178 82 376 239 468 78 45 247 90 247 66z m-3080 -21 c124 -3 236
-11 250 -17 14 -6 36 -22 49 -36 20 -22 21 -25 5 -21 -17 5 -19 -1 -16 -58 l4
-63 -30 40 c-73 102 -160 109 -258 23 -54 -47 -59 -49 -103 -44 -140 17 -172
12 -221 -36 l-43 -42 5 57 c3 40 11 64 26 80 12 13 22 36 22 51 0 53 31 91 65
80 11 -4 121 -10 245 -14z m5105 -10 c3 -5 1 -10 -4 -10 -6 0 -11 5 -11 10 0
6 2 10 4 10 3 0 8 -4 11 -10z m-847 -25 c-3 -3 -9 2 -12 12 -6 14 -5 15 5 6 7
-7 10 -15 7 -18z m864 -7 c-8 -8 -9 -4 -5 13 4 13 8 18 11 10 2 -7 -1 -18 -6
-23z m-2072 14 c0 -4 -4 -12 -10 -18 -5 -5 -32 -65 -59 -134 -28 -69 -51 -116
-51 -105 l-1 20 -9 -20 c-8 -18 -9 -18 -9 -2 -1 11 -5 15 -13 11 -6 -4 -23 -8
-37 -10 -14 -1 -66 -11 -114 -22 l-89 -20 7 25 c21 86 106 187 193 232 64 33
192 61 192 43z m883 -61 c59 -29 139 -108 166 -165 87 -179 10 -401 -168 -485
-47 -22 -70 -26 -141 -26 -72 0 -93 4 -141 28 -134 65 -222 221 -205 365 16
132 108 250 234 297 58 23 195 15 255 -14z m-1615 3 c78 -8 71 -24 -11 -24
-74 -1 -142 -14 -347 -69 -180 -48 -749 -194 -993 -255 -92 -23 -170 -39 -173
-35 -7 11 36 38 76 48 127 33 712 185 948 247 345 91 390 99 500 88z m2074
-66 c3 -15 1 -25 -4 -22 -4 3 -8 14 -8 25 0 11 -7 32 -16 47 l-16 27 20 -25
c11 -13 22 -37 24 -52z m-1677 43 c-6 -5 -42 -16 -82 -24 -99 -22 -161 -56
-219 -120 -64 -69 -91 -126 -105 -218 -11 -72 -3 -144 26 -236 4 -13 3 -23 -1
-23 -16 0 -44 119 -44 187 1 84 13 140 47 210 53 107 124 166 253 210 65 22
142 31 125 14z m-950 -21 c-16 -4 -43 -8 -60 -8 -29 1 -29 1 5 8 19 4 46 7 60
8 22 0 22 -1 -5 -8z m901 -32 c-27 -39 -59 -101 -71 -142 -13 -44 -29 -51
-159 -76 -60 -11 -78 -21 -58 -33 4 -2 1 -2 -5 -1 -7 2 -15 -7 -18 -19 -11
-52 -14 -59 -10 -22 8 85 28 132 81 194 54 63 162 118 238 120 17 1 17 0 2
-21z m-2186 -5 c-1 -16 -50 -64 -60 -58 -14 9 -12 52 3 58 19 8 57 8 57 0z
m787 -11 c24 -15 -31 -78 -80 -92 -54 -14 -92 -8 -132 24 -27 21 -28 26 -17
50 11 26 13 26 114 26 57 0 109 -4 115 -8z m3698 -25 c162 -10 206 -15 228
-30 30 -19 30 -19 21 -41 -5 -13 -26 -16 -130 -16 -113 0 -128 -2 -155 -22
-27 -20 -32 -21 -62 -8 -20 9 -78 15 -152 18 -66 2 -125 8 -132 14 -21 17 -15
46 15 79 27 31 28 31 97 24 39 -4 160 -12 270 -18z m-2565 -2 c0 -3 -12 -18
-26 -33 -14 -15 -42 -61 -62 -102 -20 -41 -41 -78 -46 -82 -19 -13 -76 -9 -76
5 0 22 55 100 101 143 60 56 109 86 109 69z m687 -77 c-2 -13 -4 -3 -4 22 0
25 2 35 4 23 2 -13 2 -33 0 -45z m1357 6 c3 -8 2 -12 -4 -9 -6 3 -10 10 -10
16 0 14 7 11 14 -7z m1156 -3 c139 -22 254 -24 318 -6 70 20 112 17 240 -16
81 -21 92 -26 92 -46 0 -12 -4 -25 -10 -28 -5 -3 -10 -29 -10 -56 0 -36 -7
-61 -26 -90 -14 -23 -23 -47 -20 -55 4 -10 -3 -14 -27 -14 -18 0 -41 -2 -52
-4 -11 -2 -14 -1 -7 1 6 3 12 11 12 19 0 8 -6 14 -12 15 -10 0 -10 2 0 6 19 8
14 25 -6 19 -10 -4 -38 1 -62 9 -35 12 -50 13 -72 4 -15 -6 -33 -9 -40 -6 -7
3 2 8 20 12 47 11 26 25 -26 18 -24 -3 -39 -9 -33 -13 6 -3 -10 -6 -36 -6 -37
1 -48 -3 -51 -16 -3 -15 4 -18 37 -18 23 0 41 5 41 10 0 6 7 10 15 10 8 0 15
-4 15 -9 0 -5 20 -12 45 -15 25 -4 45 -11 45 -15 0 -14 -42 -18 -95 -10 l-50
8 53 -3 c28 -2 52 1 52 5 0 5 -34 9 -76 9 -67 0 -80 -3 -106 -25 -22 -18 -37
-23 -56 -19 -19 4 -23 3 -14 -4 11 -7 10 -10 -3 -16 -9 -3 -24 -6 -33 -6 -15
0 -15 2 -2 10 9 6 10 10 3 10 -6 0 -19 -7 -28 -16 -13 -14 -28 -15 -83 -10
-68 7 -182 34 -149 35 9 1 17 6 17 12 0 5 -4 8 -8 5 -5 -3 -16 4 -25 15 -21
24 -21 29 -2 29 8 0 15 -4 15 -10 0 -5 4 -10 9 -10 6 0 9 8 8 18 -1 18 -32 23
-56 8 -24 -15 -64 64 -45 89 76 103 132 169 149 175 21 8 25 8 135 -9z m976 4
c115 0 143 -3 156 -16 15 -15 8 -17 -91 -27 -60 -6 -147 -21 -194 -33 -99 -25
-137 -21 -137 15 0 13 10 36 22 51 19 25 25 27 62 19 23 -5 104 -8 182 -9z
m-3529 -27 c-3 -8 -6 -5 -6 6 -1 11 2 17 5 13 3 -3 4 -12 1 -19z m-1072 -553
c0 -529 -1 -530 -23 -572 -32 -61 -48 -67 -176 -60 -125 6 -664 54 -713 63
-48 9 -43 33 5 28 63 -7 458 -42 624 -55 181 -15 205 -10 230 41 16 32 18 80
18 563 0 498 1 528 18 525 16 -3 17 -36 17 -533z m2202 513 c-3 -8 -6 -5 -6 6
-1 11 2 17 5 13 3 -3 4 -12 1 -19z m-1065 -20 c-8 -8 -9 -4 -5 13 4 13 8 18
11 10 2 -7 -1 -18 -6 -23z m-1208 7 c-3 -8 -22 -19 -43 -24 -46 -12 -325 -69
-371 -75 -19 -3 -102 -19 -183 -36 -81 -17 -153 -28 -159 -24 -5 4 -14 1 -18
-6 -5 -8 -18 -10 -41 -4 l-34 8 40 7 c45 8 259 49 290 55 11 2 71 15 134 29
63 14 123 22 134 19 12 -4 17 -2 13 4 -7 12 105 35 129 26 13 -5 16 -4 11 5
-6 9 1 11 31 6 26 -5 34 -3 24 3 -11 8 -9 11 10 15 13 2 27 5 31 6 4 0 5 -6 2
-14z m806 11 c0 -2 -13 -6 -30 -8 -16 -3 -30 -1 -30 4 0 4 14 8 30 8 17 0 30
-2 30 -4z m334 -53 c-9 -78 -15 -80 -12 -5 2 34 7 62 11 62 5 0 5 -26 1 -57z
m1403 15 c-3 -7 -5 -2 -5 12 0 14 2 19 5 13 2 -7 2 -19 0 -25z m-260 -40 c-2
-13 -4 -3 -4 22 0 25 2 35 4 23 2 -13 2 -33 0 -45z m568 47 c-33 -7 -51 -13
-40 -14 11 -1 31 -4 45 -7 20 -4 22 -3 10 5 -12 8 -8 11 19 11 33 0 33 -1 17
-19 -15 -16 -15 -19 -1 -24 8 -4 21 -4 29 -1 7 3 16 -1 19 -9 10 -27 -94 -58
-200 -60 l-78 -2 -7 45 c-12 85 -13 84 147 86 l100 1 -60 -12z m-4491 -18 c29
-21 16 -50 -29 -63 -22 -7 -92 -13 -156 -13 -84 -1 -138 -7 -195 -22 -43 -12
-110 -22 -147 -23 -61 -1 -71 2 -88 23 -21 26 -25 81 -7 99 18 18 597 17 622
-1z m2223 -3 c-3 -3 -12 -4 -19 -1 -8 3 -5 6 6 6 11 1 17 -2 13 -5z m2767 -10
c24 -23 20 -33 -19 -50 -40 -16 -141 -19 -150 -3 -8 12 22 48 50 60 35 14 102
10 119 -7z m-2834 -10 c0 -8 -5 -12 -10 -9 -6 4 -8 11 -5 16 9 14 15 11 15 -7z
m227 -16 c-3 -7 -5 -2 -5 12 0 14 2 19 5 13 2 -7 2 -19 0 -25z m410 -5 c-3
-10 -5 -4 -5 12 0 17 2 24 5 18 2 -7 2 -21 0 -30z m3411 23 c12 -4 20 -11 17
-16 -11 -17 -110 -39 -152 -33 -36 5 -43 9 -43 28 0 12 2 24 4 26 7 7 150 3
174 -5z m-3272 -96 c4 -36 3 -62 -1 -58 -4 4 -11 37 -14 73 -4 36 -3 61 1 57
4 -4 11 -37 14 -72z m1261 58 c-3 -8 -6 -5 -6 6 -1 11 2 17 5 13 3 -3 4 -12 1
-19z m-1810 -60 c-3 -7 -5 -2 -5 12 0 14 2 19 5 13 2 -7 2 -19 0 -25z m400 2
c-4 -17 -2 -30 3 -30 6 0 10 12 10 26 0 23 2 25 16 13 10 -8 12 -15 5 -17 -6
-2 -16 -22 -23 -45 l-11 -42 -7 38 c-7 37 -3 87 7 87 3 0 3 -13 0 -30z m3543
1 c69 -5 133 -12 143 -16 17 -7 34 -51 24 -61 -12 -13 -91 -24 -242 -34 -174
-13 -165 -9 -220 -84 -15 -20 -25 -26 -38 -20 -15 5 -17 13 -12 38 4 17 7 60
6 97 -2 64 -1 65 31 82 26 13 49 16 108 12 41 -3 131 -9 200 -14z m-2413 -13
c-3 -8 -6 -5 -6 6 -1 11 2 17 5 13 3 -3 4 -12 1 -19z m-4522 -23 c24 -10 33
-12 106 -14 58 -1 75 -14 63 -45 -11 -28 -157 -47 -208 -27 -10 4 -24 18 -31
31 -11 20 -9 26 13 52 14 15 28 25 31 20 3 -5 15 -12 26 -17z m2219 3 c13 -19
16 -61 16 -260 0 -249 -5 -282 -44 -292 -49 -13 -116 -6 -136 14 -19 19 -20
33 -20 263 0 179 3 248 13 260 15 21 58 35 114 36 33 1 45 -4 57 -21z m3961
12 c3 -5 -1 -10 -9 -10 -9 0 -16 5 -16 10 0 6 4 10 9 10 6 0 13 -4 16 -10z
m-4795 -6 c0 -1 -14 -7 -30 -13 -17 -5 -28 -6 -25 -1 3 4 0 10 -6 12 -7 2 4 4
25 4 20 0 36 -1 36 -2z m5000 -4 c12 -8 9 -10 -12 -10 -15 0 -30 5 -33 10 -8
13 25 13 45 0z m-5105 -20 c-3 -4 -29 -11 -58 -15 -28 -4 -67 -10 -84 -15 -18
-5 -35 -5 -38 0 -7 11 69 28 101 22 17 -3 25 -1 21 6 -5 6 6 10 28 10 19 0 33
-4 30 -8z m1462 4 c-3 -3 -12 -4 -19 -1 -8 3 -5 6 6 6 11 1 17 -2 13 -5z
m-787 -23 c13 -25 14 -466 0 -490 -22 -42 -152 -33 -164 12 -8 29 -8 406 0
446 7 35 37 49 111 50 32 1 45 -4 53 -18z m3775 -2 c11 -17 -13 -17 -30 1 -16
18 -16 18 4 13 12 -3 24 -9 26 -14z m-2298 -11 c-3 -8 -6 -5 -6 6 -1 11 2 17
5 13 3 -3 4 -12 1 -19z m2730 16 c-3 -3 -12 -4 -19 -1 -8 3 -5 6 6 6 11 1 17
-2 13 -5z m256 -1 c-7 -2 -21 -2 -30 0 -10 3 -4 5 12 5 17 0 24 -2 18 -5z
m-4699 -29 c14 -13 16 -48 16 -230 0 -129 -4 -223 -10 -235 -9 -15 -22 -19
-65 -19 -86 0 -85 -3 -85 243 0 117 4 218 8 225 5 7 28 16 53 21 64 13 66 13
83 -5z m2779 1 c-3 -9 -8 -14 -10 -11 -3 3 -2 9 2 15 9 16 15 13 8 -4z m42 5
c3 -6 -1 -13 -9 -16 -9 -3 -16 -15 -16 -25 0 -10 -5 -19 -11 -19 -7 0 -8 7 -4
18 4 9 10 25 12 35 6 19 19 22 28 7z m-3035 -30 c12 -8 16 -46 18 -218 3 -235
2 -242 -64 -242 -75 0 -74 -4 -74 230 0 223 -1 217 54 231 43 10 49 10 66 -1z
m2974 -12 c-4 -7 -12 -20 -19 -28 -32 -41 -26 -47 43 -47 l67 0 -60 7 -60 7
63 1 c52 2 62 5 62 20 0 21 17 49 25 40 3 -3 -2 -24 -11 -47 l-16 -41 -90 0
c-82 0 -88 1 -74 16 9 9 28 31 42 50 26 33 42 46 28 22z m1164 -11 c2 -10 -3
-29 -12 -42 -22 -33 -87 -41 -193 -25 -68 11 -88 11 -108 0 -13 -7 -43 -12
-67 -11 -24 1 -109 2 -190 4 -135 2 -149 4 -169 23 -14 15 -19 28 -14 43 6 20
11 21 353 24 191 1 358 3 372 2 16 0 26 -7 28 -18z m-4310 -206 c2 -142 -1
-208 -9 -217 -13 -16 -76 -18 -99 -4 -12 8 -16 44 -18 200 -2 132 0 196 8 205
13 16 42 23 85 21 l30 -1 3 -204z m3162 185 c0 -3 -4 -8 -10 -11 -5 -3 -10 -1
-10 4 0 6 5 11 10 11 6 0 10 -2 10 -4z m-3350 -36 c0 -20 -5 -30 -15 -30 -10
0 -15 10 -15 30 0 20 5 30 15 30 10 0 15 -10 15 -30z m2726 -17 c-7 -7 -26 7
-26 19 0 6 6 6 15 -2 9 -7 13 -15 11 -17z m1954 7 c25 -6 63 -15 85 -21 75
-21 70 -18 54 -34 -16 -17 -108 -36 -184 -39 -28 -1 -56 -6 -63 -10 -11 -6
-26 -1 -61 22 -17 12 2 52 24 52 8 0 15 6 15 14 0 26 52 33 130 16z m-2097
-15 c-3 -9 -8 -14 -10 -11 -3 3 -2 9 2 15 9 16 15 13 8 -4z m177 -10 c5 3 11
1 14 -4 4 -5 -2 -8 -11 -7 -9 2 -18 8 -19 15 -1 6 0 7 3 1 2 -5 9 -8 13 -5z
m-171 -116 c39 -61 69 -114 66 -119 -13 -21 -46 9 -95 88 -30 48 -59 90 -65
94 -5 4 -115 8 -243 8 l-233 0 33 -57 c18 -32 58 -105 88 -163 l55 -105 858
-3 c471 -1 857 -4 857 -6 0 -3 -3 -11 -6 -20 -6 -14 -91 -16 -859 -16 -798 0
-854 1 -873 18 -12 9 -62 92 -112 185 -84 151 -94 167 -118 167 -15 0 -83 -5
-152 -10 -69 -5 -201 -14 -295 -19 -93 -6 -194 -14 -222 -17 -48 -5 -53 -3
-53 14 0 18 13 20 153 32 83 6 217 18 297 25 80 7 303 13 496 14 l351 1 72
-111z m697 69 c23 -24 63 -72 89 -108 27 -36 54 -68 59 -72 16 -11 2 -18 -23
-11 -21 5 -191 206 -191 225 0 20 29 5 66 -34z m-481 12 c3 -5 -3 -10 -13 -10
-11 0 -25 -7 -32 -15 -15 -18 -36 -5 -27 17 6 16 63 23 72 8z m2561 -9 c29
-23 17 -35 -20 -21 -26 9 -32 21 -19 33 9 10 12 9 39 -12z m-2742 -7 c3 -8 2
-12 -4 -9 -6 3 -10 10 -10 16 0 14 7 11 14 -7z m283 -14 c31 -5 61 -15 66 -22
7 -10 10 -10 14 0 2 6 9 12 14 12 6 0 7 -4 4 -10 -3 -6 6 -11 22 -11 15 -1 35
-2 43 -3 21 -2 63 -26 56 -33 -3 -3 -12 -1 -19 5 -14 12 -80 17 -157 12 -25
-1 -37 -4 -27 -7 9 -2 17 -10 17 -18 0 -24 -32 -39 -83 -39 -48 -1 -52 1 -51
22 1 26 -12 28 -36 7 -15 -14 -18 -14 -30 0 -9 11 -10 19 -3 26 8 8 13 8 17 0
9 -13 36 -2 59 24 9 11 17 16 16 10 -4 -30 3 -45 21 -45 26 0 26 17 -1 25 -38
12 1 25 61 20 35 -3 50 -1 40 5 -21 12 -117 16 -159 6 -23 -6 -31 -5 -27 3 8
12 67 30 78 24 4 -2 33 -8 65 -13z m768 4 c9 -9 32 -42 52 -73 19 -31 44 -66
56 -78 23 -25 15 -43 -11 -27 -9 6 -42 46 -72 90 l-56 79 -92 3 c-122 4 -111
22 13 22 73 0 97 -4 110 -16z m-515 -16 c0 -10 -29 -9 -55 2 -15 6 -11 8 17 7
21 -1 38 -5 38 -9z m-3463 -35 c11 -21 40 -51 64 -68 l44 -30 -43 -3 c-30 -2
-47 2 -59 14 -22 22 -92 53 -119 54 -12 0 -39 -7 -60 -16 -22 -9 -76 -20 -122
-25 -68 -6 -90 -12 -118 -34 -32 -25 -42 -27 -90 -21 -43 5 -60 2 -86 -14 -19
-11 -50 -20 -73 -20 -35 0 -45 6 -84 50 -25 28 -48 50 -53 50 -4 0 -33 -12
-65 -27 -37 -17 -76 -27 -108 -27 l-50 -1 -3 36 c-3 33 0 37 40 54 24 10 52
27 63 36 27 24 55 25 512 27 l391 2 19 -37z m3503 15 c0 -6 -3 -8 -7 -5 -3 4
-11 -1 -18 -10 -11 -15 -14 -15 -36 2 -24 17 -24 17 -2 12 13 -3 26 -1 29 4 8
13 34 11 34 -3z m-451 -2 c-2 -2 -17 -6 -34 -10 -22 -5 -26 -4 -15 4 14 9 59
15 49 6z m1326 -61 c-25 -31 -45 -61 -45 -68 0 -9 -20 -12 -72 -9 -40 2 -78 5
-84 7 -6 2 -29 31 -52 64 l-40 61 169 0 169 0 -45 -55z m1954 27 c7 -16 26
-37 44 -47 80 -47 74 -90 -15 -109 -19 -4 -30 -1 -40 13 -18 25 -87 71 -107
71 -9 0 -40 -16 -70 -36 -57 -39 -155 -61 -219 -49 -19 4 -39 1 -47 -5 -10 -8
-19 -8 -34 0 -12 6 -21 13 -21 16 0 3 4 3 9 0 5 -3 14 1 21 9 15 18 3 19 -37
4 l-28 -11 28 -24 c32 -28 24 -32 -13 -7 -44 30 -52 59 -25 87 24 24 18 27
-40 20 -59 -7 -68 2 -45 46 24 46 48 49 346 50 l282 0 11 -28z m-2791 -17 c-3
-3 -9 2 -12 12 -6 14 -5 15 5 6 7 -7 10 -15 7 -18z m1156 19 c9 -3 23 -30 31
-59 11 -37 27 -62 55 -88 22 -20 40 -41 40 -47 0 -18 -63 -70 -95 -79 l-30 -7
-11 63 c-12 68 -27 94 -45 76 -5 -5 -16 -70 -24 -143 -8 -73 -16 -135 -20
-138 -3 -3 -34 9 -69 26 -40 20 -79 32 -103 31 l-38 0 40 -32 c22 -17 68 -60
103 -94 48 -48 62 -69 62 -92 0 -16 -4 -32 -9 -35 -4 -3 -29 8 -55 25 -47 32
-98 88 -132 147 -19 33 -34 42 -34 19 0 -15 -37 -57 -50 -57 -18 0 -60 75 -60
106 0 42 50 108 100 134 31 16 40 26 40 46 0 57 48 132 102 160 60 31 167 51
202 38z m-1364 -13 c0 -5 -7 -11 -15 -15 -15 -5 -20 5 -8 17 9 10 23 9 23 -2z
m155 -2 c-4 -6 -13 -8 -21 -5 -8 3 -14 1 -14 -4 0 -6 -7 -10 -15 -10 -8 0 -15
-4 -15 -10 0 -5 -6 -10 -12 -10 -20 1 45 50 65 50 10 0 15 -5 12 -11z m-151
-25 c23 4 36 3 36 -4 0 -5 -12 -10 -27 -10 -22 0 -25 -2 -13 -10 12 -7 8 -10
-15 -10 -25 0 -30 4 -32 27 -1 16 2 21 7 13 5 -9 19 -11 44 -6z m186 12 c0 -3
-4 -8 -10 -11 -5 -3 -10 -1 -10 4 0 6 5 11 10 11 6 0 10 -2 10 -4z m-1830 -20
c0 -16 -30 -26 -82 -26 -56 0 -51 28 5 33 23 2 50 4 60 5 9 1 17 -4 17 -12z
m1355 4 c3 -6 -1 -7 -9 -4 -18 7 -21 14 -7 14 6 0 13 -4 16 -10z m440 0 c3 -5
2 -10 -4 -10 -5 0 -13 5 -16 10 -3 6 -2 10 4 10 5 0 13 -4 16 -10z m-371 -25
c25 -19 16 -19 -20 0 -16 8 -22 15 -14 15 8 -1 24 -7 34 -15z m96 5 c0 -5 -2
-10 -4 -10 -3 0 -8 5 -11 10 -3 6 -1 10 4 10 6 0 11 -4 11 -10z m247 4 c-3 -3
-12 -4 -19 -1 -8 3 -5 6 6 6 11 1 17 -2 13 -5z m-42 -14 c-3 -5 -16 -10 -28
-9 -21 0 -21 1 -2 9 28 12 37 12 30 0z m-102 -17 c-29 -2 -78 -2 -110 0 -32 2
-8 3 52 3 61 0 87 -1 58 -3z m-1673 -313 c0 -168 -4 -300 -9 -300 -8 0 -22
577 -14 593 18 35 23 -26 23 -293z m2590 230 c0 -20 -7 -20 -757 -20 -417 0
-769 -3 -783 -5 -14 -3 -7 2 15 10 22 9 63 20 90 24 28 5 362 9 743 10 686 1
692 1 692 -19z m1680 -15 c-14 -8 -34 -14 -45 -14 -18 -1 -17 1 5 13 14 8 34
14 45 15 17 0 17 -2 -5 -14z m-847 -93 c20 -55 23 -262 7 -503 -10 -156 -15
-179 -36 -179 -27 0 -43 42 -34 90 16 78 12 449 -5 537 -15 76 -15 78 5 95 29
24 44 15 63 -40z m-3174 27 c34 -37 53 -108 58 -219 8 -162 -29 -260 -97 -260
-61 0 -105 104 -104 250 0 185 74 303 143 229z m314 -9 c55 -65 80 -233 53
-359 -21 -99 -43 -135 -85 -139 -44 -4 -71 16 -101 74 -36 71 -41 234 -11 332
37 122 90 156 144 92z m3622 -1 c67 -18 123 -22 350 -28 149 -4 279 -11 290
-16 72 -32 111 -87 119 -165 3 -30 3 -46 0 -35 -3 11 -11 25 -16 30 -7 7 -8 3
-3 -12 6 -23 -8 -32 -20 -13 -4 6 -11 7 -17 4 -21 -13 -81 -22 -97 -15 -9 5
-31 16 -50 26 -22 12 -53 17 -90 16 -33 0 -66 5 -81 13 -111 64 -155 68 -229
22 -76 -48 -195 -52 -276 -9 -44 24 -95 35 -95 22 0 -5 5 -9 10 -9 6 0 10 -10
10 -22 0 -21 -1 -21 -15 5 -8 16 -14 31 -13 35 1 4 -4 27 -11 51 -12 43 -12
45 16 67 40 33 84 54 113 54 14 0 61 -10 105 -21z m-5865 -11 c11 -12 20 -27
20 -34 0 -7 6 -14 13 -16 9 -4 13 -82 15 -338 3 -335 2 -349 -30 -350 -5 0 -9
89 -9 198 -1 174 -13 392 -17 320 -1 -16 -4 -28 -6 -28 -3 0 -18 12 -35 28
-50 46 -76 146 -49 195 26 50 65 60 98 25z m2483 -34 c-1 -5 -14 -38 -29 -73
-24 -59 -26 -73 -22 -175 3 -82 9 -120 22 -146 44 -85 87 -101 130 -50 32 38
46 86 53 175 5 75 -16 192 -43 232 -13 20 -13 23 1 23 24 0 43 -39 60 -126 21
-103 9 -211 -33 -294 -49 -100 -115 -96 -171 10 -30 57 -35 75 -39 160 -2 52
0 120 6 150 14 73 40 133 55 127 7 -3 11 -8 10 -13z m3045 0 c22 -15 30 -44
12 -44 -19 0 -63 -55 -148 -184 l-87 -131 -6 43 c-6 45 -21 68 -37 58 -5 -3
-11 -50 -14 -103 -3 -54 -11 -109 -18 -123 l-13 -24 -10 24 c-5 14 -8 63 -7
110 1 83 2 86 38 125 20 22 48 62 62 89 30 60 95 127 152 155 51 25 48 25 76
5z m-2959 -63 c28 -65 27 -77 -5 -52 -15 12 -41 21 -60 21 -19 0 -34 2 -34 5
0 3 10 21 23 40 31 48 50 45 76 -14z m279 17 c11 -18 61 -116 112 -218 51
-102 104 -200 118 -219 47 -63 26 -61 743 -61 577 0 650 2 645 15 -3 8 -75
123 -161 255 -85 132 -155 245 -155 250 0 17 15 11 37 -12 11 -13 80 -115 153
-228 73 -113 148 -229 167 -258 19 -28 31 -57 28 -62 -9 -15 -1361 -14 -1406
1 -64 22 -94 64 -214 303 -64 127 -121 235 -126 241 -15 16 -10 25 15 25 17 0
31 -10 44 -32z m-3024 0 c3 -13 6 -42 6 -64 0 -34 -4 -43 -21 -47 -12 -3 -18
-10 -14 -16 3 -6 -10 -2 -30 10 -38 23 -69 22 -140 -3 -30 -11 -63 -13 -135
-7 -52 4 -105 10 -118 14 -18 6 -21 4 -16 -10 9 -22 -31 -54 -67 -55 -15 0
-46 9 -70 20 -53 24 -126 25 -194 5 -27 -9 -59 -13 -71 -11 -29 8 -64 40 -64
61 0 27 47 83 88 105 35 18 60 19 438 20 l402 0 6 -22z m2203 -25 c-3 -10 -5
-4 -5 12 0 17 2 24 5 18 2 -7 2 -21 0 -30z m692 -15 c20 -101 23 -164 12 -242
-11 -79 -42 -166 -59 -166 -5 0 -1 17 9 38 37 76 48 221 25 350 -14 82 -3 100
13 20z m-1949 26 c36 -3 110 -8 165 -10 220 -8 275 -9 388 -12 98 -2 117 -4
117 -18 0 -13 -16 -15 -132 -9 -179 8 -470 25 -538 30 -30 2 -121 7 -203 11
-81 3 -150 10 -153 15 -5 9 233 4 356 -7z m1587 -167 c-2 -23 -3 -1 -3 48 0
50 1 68 3 42 2 -26 2 -67 0 -90z m1649 91 c15 -24 58 -90 97 -148 38 -57 71
-110 74 -117 7 -19 -900 -19 -915 0 -12 15 -152 291 -152 300 0 4 196 7 435 7
l435 0 26 -42z m-1969 -60 c-2 -18 -4 -6 -4 27 0 33 2 48 4 33 2 -15 2 -42 0
-60z m4106 75 c-7 -2 -19 -2 -25 0 -7 3 -2 5 12 5 14 0 19 -2 13 -5z m-5974
-66 l-64 -64 -3 50 c-5 74 -1 77 69 77 l61 0 -63 -63z m2355 11 c21 -29 20
-101 0 -140 -14 -28 -17 -29 -32 -15 -17 18 -28 111 -18 152 8 31 30 32 50 3z
m-2057 -34 c29 -31 49 -69 57 -110 7 -30 9 -31 73 -37 36 -4 79 -15 96 -25 46
-26 99 -105 104 -156 5 -38 2 -45 -27 -69 -17 -15 -43 -27 -57 -27 -24 0 -25
2 -18 33 3 17 9 49 12 70 l6 37 -39 2 c-65 3 -106 -3 -135 -18 -44 -22 -49
-18 -50 44 0 85 -12 136 -30 140 -19 4 -28 -24 -30 -88 0 -25 -4 -53 -8 -63
-6 -17 -8 -17 -20 -3 -17 20 -80 41 -92 29 -5 -5 9 -24 34 -45 46 -38 79 -92
70 -115 -3 -9 -24 -13 -64 -13 -69 0 -90 17 -109 86 -7 25 -30 74 -51 109 -22
35 -39 70 -39 78 0 25 57 94 104 126 80 56 170 62 213 15z m6134 -4 c10 -6 19
-16 19 -22 0 -7 -7 -5 -17 4 -10 9 -25 18 -33 21 -10 4 -11 6 -2 6 7 1 22 -4
33 -9z m-21 -20 c0 -5 -7 -10 -16 -10 -8 0 -12 5 -9 10 3 6 10 10 16 10 5 0 9
-4 9 -10z m-4553 -57 c-3 -10 -5 -4 -5 12 0 17 2 24 5 18 2 -7 2 -21 0 -30z
m3643 27 c0 -5 -2 -10 -4 -10 -3 0 -8 5 -11 10 -3 6 -1 10 4 10 6 0 11 -4 11
-10z m925 -9 c-3 -6 -11 -11 -17 -11 -6 0 -6 6 2 15 14 17 26 13 15 -4z
m-4250 -58 c-8 -46 -43 -128 -51 -121 -3 4 4 24 14 45 11 21 23 56 27 76 4 20
9 37 12 37 3 0 2 -17 -2 -37z m-1555 1 c0 -8 -6 -11 -15 -8 -8 4 -15 12 -15
20 0 8 6 11 15 8 8 -4 15 -12 15 -20z m80 -2 c0 -26 -11 -34 -27 -21 -20 17
-16 39 7 39 13 0 20 -7 20 -18z m1140 -37 c-6 -19 -15 -37 -19 -39 -4 -3 0 17
8 44 9 27 17 44 19 39 2 -5 -2 -25 -8 -44z m-1072 22 c2 -10 -3 -17 -12 -17
-10 0 -16 9 -16 21 0 24 23 21 28 -4z m-1250 -22 c22 -20 71 -81 108 -136 37
-55 72 -103 79 -107 22 -14 45 -57 45 -84 0 -32 -11 -35 -36 -11 -15 16 -16
15 -10 -18 7 -33 6 -33 -7 -9 -8 14 -17 45 -21 70 -8 55 -34 99 -46 80 -5 -8
-7 -33 -6 -56 l2 -42 -26 37 c-97 134 -192 289 -185 302 13 21 63 8 103 -26z
m6265 28 c-13 -2 -33 -2 -45 0 -13 2 -3 4 22 4 25 0 35 -2 23 -4z m-3385 -50
c-14 -30 -48 -38 -56 -14 -3 10 0 12 11 8 11 -4 23 2 34 17 23 31 29 25 11
-11z m-1143 -8 c0 -11 -8 -21 -17 -23 -14 -3 -18 3 -18 23 0 20 4 26 18 23 9
-2 17 -12 17 -23z m-1426 -202 c1 -71 -2 -113 -9 -113 -6 0 -10 55 -9 153 1
175 16 143 18 -40z m1840 144 c72 -9 106 -17 109 -26 4 -12 -8 -13 -69 -7
-168 15 -249 29 -249 44 0 10 11 12 53 7 28 -3 99 -12 156 -18z m-714 -52
c105 -14 235 -32 290 -41 383 -60 1716 -250 2005 -286 l105 -13 -80 -12 c-67
-11 -96 -11 -175 1 -323 50 -1161 177 -1430 217 -113 16 -245 36 -295 44 -49
8 -200 31 -335 51 -135 20 -265 39 -289 42 -24 4 -46 13 -49 21 -4 11 3 12 29
8 19 -4 120 -18 224 -32z m1145 -13 c0 -12 -13 -13 -82 -7 -74 6 -104 17 -93
35 2 3 42 1 89 -4 65 -7 86 -13 86 -24z m310 -22 c134 -19 173 -30 158 -46 -6
-5 -226 19 -285 32 -13 2 -23 11 -23 19 0 8 1 15 3 15 1 0 68 -9 147 -20z
m-1200 -70 c261 -43 543 -91 625 -105 324 -56 1033 -174 1082 -180 29 -4 55
-10 58 -15 2 -4 -33 -16 -80 -25 -99 -21 -21 -32 -730 100 -286 53 -542 100
-570 105 -255 46 -824 152 -849 158 -30 8 -50 42 -24 42 7 0 227 -36 488 -80z
m-159 -65 c178 -35 457 -91 619 -125 162 -33 439 -89 615 -125 177 -35 331
-68 344 -73 19 -7 7 -12 -65 -27 -98 -20 -113 -19 -319 30 -60 14 -146 32
-190 41 -93 18 -537 113 -840 179 -186 41 -387 85 -467 102 -23 4 -28 11 -28
34 0 16 2 29 3 29 2 0 150 -29 328 -65z m2696 -23 c7 -9 34 -17 65 -19 224
-18 577 -58 586 -68 3 -3 -3 -5 -14 -5 -20 0 -507 53 -639 70 -44 5 -116 13
-159 16 -75 6 -78 7 -50 19 40 18 195 8 211 -13z m1138 -59 c82 -42 136 -97
175 -179 28 -60 32 -76 28 -136 -3 -58 -8 -72 -32 -97 -31 -32 -73 -46 -106
-36 -14 4 -19 12 -16 23 12 37 17 96 12 118 -9 33 -38 31 -74 -6 -36 -35 -62
-38 -109 -9 -31 20 -35 20 -58 5 -19 -12 -25 -25 -25 -52 0 -36 -5 -42 -91
-120 -23 -21 -42 -53 -58 -97 -12 -36 -28 -70 -34 -75 -7 -5 -38 -12 -69 -15
-38 -4 -87 -20 -145 -47 -82 -40 -91 -42 -143 -35 -119 16 -120 15 -153 -40
-35 -60 -42 -65 -87 -65 -19 0 -49 -2 -66 -6 -94 -19 -49 127 58 182 42 22
124 32 190 25 56 -7 59 -6 89 25 49 50 79 59 154 46 34 -7 67 -12 74 -12 21 0
11 42 -19 76 -52 60 -73 112 -77 194 -3 64 -1 81 19 115 13 22 45 56 73 77 27
20 56 50 64 67 21 39 60 68 124 92 42 16 71 19 147 16 82 -3 103 -8 155 -34z
m-4011 -8 c83 -20 187 -45 231 -55 559 -135 1031 -240 1074 -240 11 0 22 -3
25 -8 7 -12 -194 5 -321 28 -112 20 -263 55 -758 175 -121 29 -264 64 -317 76
-79 19 -98 26 -98 41 0 10 3 18 6 18 4 0 74 -16 158 -35z m2333 0 c300 -39
389 -52 359 -54 -30 -2 -351 36 -531 63 -244 36 -141 30 172 -9z m156 28 c-7
-2 -21 -2 -30 0 -10 3 -4 5 12 5 17 0 24 -2 18 -5z m-3300 -18 c20 -8 63 -15
96 -15 74 0 100 -10 157 -57 54 -46 91 -118 100 -195 5 -45 3 -60 -10 -73 -18
-18 -21 -35 -6 -35 17 0 11 -43 -15 -98 -14 -30 -25 -60 -25 -68 0 -7 24 -25
53 -38 29 -14 76 -45 104 -70 42 -36 62 -45 105 -51 45 -6 137 -49 126 -60 -9
-10 -183 19 -252 42 -73 24 -83 25 -132 13 -134 -32 -216 56 -129 140 19 19
35 37 35 41 0 4 -16 10 -35 13 -59 11 -85 60 -61 118 6 13 -3 21 -38 36 -46
21 -54 34 -59 97 -3 36 -25 36 -74 -1 -17 -13 -35 -24 -39 -24 -4 0 -21 -16
-38 -36 -30 -35 -36 -37 -113 -44 -81 -7 -112 -19 -161 -63 -21 -20 -23 -20
-39 -4 -24 24 -19 97 9 154 26 52 86 105 139 122 28 9 41 21 54 52 46 102 150
145 248 104z m3384 9 c-3 -3 -12 -4 -19 -1 -8 3 -5 6 6 6 11 1 17 -2 13 -5z
m76 -11 c-7 -2 -19 -2 -25 0 -7 3 -2 5 12 5 14 0 19 -2 13 -5z m85 -10 c-10
-2 -26 -2 -35 0 -10 3 -2 5 17 5 19 0 27 -2 18 -5z m80 -10 c-10 -2 -28 -2
-40 0 -13 2 -5 4 17 4 22 1 32 -1 23 -4z m192 -17 c63 -8 185 -22 270 -32 178
-19 195 -22 163 -34 -13 -6 -50 -3 -95 6 -40 8 -172 28 -293 43 -121 16 -206
29 -190 30 17 1 82 -5 145 -13z m-227 -33 c-7 -2 -19 -2 -25 0 -7 3 -2 5 12 5
14 0 19 -2 13 -5z m-2700 -154 c106 -16 213 -44 392 -104 444 -148 804 -191
1173 -140 120 17 176 30 372 90 407 124 749 171 1050 145 193 -16 264 -31 268
-54 3 -16 0 -18 -30 -12 -18 3 -128 9 -244 12 -373 12 -640 -27 -1049 -151
-262 -79 -392 -99 -655 -99 -329 0 -546 38 -950 169 -134 44 -247 75 -269 75
-7 0 -2 -10 9 -22 45 -49 33 -110 -27 -135 -45 -18 -70 -16 -110 8 -27 17 -43
20 -76 14 -23 -3 -62 -10 -87 -14 -25 -4 -55 -13 -67 -19 -19 -10 -28 -10 -53
3 -58 30 -69 105 -22 146 74 66 110 88 148 92 80 8 157 7 227 -4z m484 -238
c237 -66 434 -99 711 -117 56 -3 102 -10 102 -15 0 -23 -291 -4 -485 32 -177
33 -457 109 -479 130 -17 15 8 11 151 -30z m2645 -13 c43 -7 78 -15 78 -19 0
-18 -69 -31 -214 -39 -319 -19 -508 -45 -681 -92 -330 -91 -410 -110 -553
-134 -131 -22 -190 -27 -357 -28 -127 0 -218 4 -250 11 -27 7 -72 17 -100 21
-32 6 33 7 180 4 213 -4 243 -3 395 22 187 29 267 48 460 110 261 85 424 121
630 141 178 17 317 18 412 3z m-4359 -95 c30 -20 99 -29 163 -22 37 4 74 5 81
2 17 -7 8 -40 -20 -70 -30 -34 -75 -44 -173 -41 -81 3 -94 1 -145 -26 -65 -33
-93 -31 -135 11 -21 21 -25 32 -20 57 8 38 47 80 89 94 33 12 140 8 160 -5z
m5370 -38 c46 -32 49 -67 11 -109 -22 -23 -33 -27 -60 -23 -20 3 -44 17 -58
33 l-24 28 -7 -32 c-9 -44 -45 -85 -94 -107 -51 -22 -68 -11 -74 48 l-4 42 -1
-47 c-1 -31 2 -48 10 -48 6 0 1 -11 -12 -25 -17 -18 -34 -25 -62 -25 -37 0
-42 -5 -39 -40 1 -8 -12 6 -29 32 -16 27 -30 54 -29 60 0 7 5 2 11 -12 7 -16
12 -20 15 -12 3 8 -7 26 -21 41 -38 39 -35 87 7 143 20 26 40 42 50 40 9 -2
17 2 17 7 0 17 59 21 168 13 56 -4 106 -4 110 -1 8 8 37 16 62 18 9 0 32 -10
53 -24z m-1540 -72 c-7 -2 -19 -2 -25 0 -7 3 -2 5 12 5 14 0 19 -2 13 -5z
m-2268 -13 c-3 -5 -11 -10 -16 -10 -6 0 -7 5 -4 10 3 6 11 10 16 10 6 0 7 -4
4 -10z m2222 4 c-3 -3 -12 -4 -19 -1 -8 3 -5 6 6 6 11 1 17 -2 13 -5z m-2091
-59 c9 -8 19 -15 23 -15 14 0 51 -41 51 -57 0 -22 -71 -12 -97 14 -11 11 -41
35 -67 52 -43 30 -46 34 -30 46 15 10 25 9 62 -6 24 -10 50 -26 58 -34z m2009
45 c-16 -4 -39 -8 -50 -8 -16 0 -15 2 5 8 14 4 36 8 50 8 22 0 22 -1 -5 -8z
m-76 -14 c-8 -7 -301 -78 -305 -73 -2 2 60 20 138 40 134 34 177 42 167 33z
m-339 -86 c-14 -4 -36 -8 -50 -8 -22 0 -22 1 5 8 17 4 39 8 50 8 16 0 15 -2
-5 -8z m-87 -17 c-7 -2 -21 -2 -30 0 -10 3 -4 5 12 5 17 0 24 -2 18 -5z m-60
-10 c-7 -2 -21 -2 -30 0 -10 3 -4 5 12 5 17 0 24 -2 18 -5z m-65 -10 c-10 -2
-28 -2 -40 0 -13 2 -5 4 17 4 22 1 32 -1 23 -4z m-100 -10 c-10 -2 -26 -2 -35
0 -10 3 -2 5 17 5 19 0 27 -2 18 -5z m2022 -53 c0 -5 -7 -7 -15 -4 -8 4 -15 8
-15 10 0 2 7 4 15 4 8 0 15 -4 15 -10z"/>
<path d="M4260 6282 c0 -6 17 -14 38 -18 59 -11 105 -39 159 -98 82 -90 100
-209 49 -322 -30 -65 -31 -74 -12 -74 24 0 76 72 93 129 54 187 -73 373 -264
389 -42 3 -63 1 -63 -6z"/>
<path d="M4505 5344 c-29 -54 -100 -111 -161 -131 -58 -18 -63 -23 -39 -43 26
-22 103 -7 136 26 36 37 99 142 99 166 0 28 -14 21 -35 -18z"/>
<path d="M6960 5086 c0 -2 7 -7 16 -10 8 -3 12 -2 9 4 -6 10 -25 14 -25 6z"/>
<path d="M6703 4193 c9 -2 23 -2 30 0 6 3 -1 5 -18 5 -16 0 -22 -2 -12 -5z"/>
<path d="M6720 4145 c0 -8 4 -15 10 -15 5 0 7 7 4 15 -4 8 -8 15 -10 15 -2 0
-4 -7 -4 -15z"/>
<path d="M6676 4135 c4 -8 7 -15 9 -15 2 0 5 7 9 15 3 9 0 15 -9 15 -9 0 -12
-6 -9 -15z"/>
<path d="M6800 4130 c0 -5 5 -10 11 -10 5 0 7 5 4 10 -3 6 -8 10 -11 10 -2 0
-4 -4 -4 -10z"/>
<path d="M6868 4123 c6 -2 18 -2 25 0 6 3 1 5 -13 5 -14 0 -19 -2 -12 -5z"/>
<path d="M6618 4093 c6 -2 18 -2 25 0 6 3 1 5 -13 5 -14 0 -19 -2 -12 -5z"/>
<path d="M6888 4093 c6 -2 18 -2 25 0 6 3 1 5 -13 5 -14 0 -19 -2 -12 -5z"/>
<path d="M2091 4109 c-18 -6 -31 -12 -29 -14 2 -2 26 2 53 10 28 7 41 13 30
13 -11 0 -35 -4 -54 -9z"/>
<path d="M3789 4137 c-43 -29 -51 -57 -15 -50 15 3 33 19 45 39 24 40 17 42
-30 11z"/>
<path d="M3402 3985 l-37 -34 26 -1 c19 0 35 10 53 35 37 47 9 48 -42 0z"/>
<path d="M4295 4030 c-16 -7 -17 -9 -3 -9 9 -1 20 4 23 9 7 11 7 11 -20 0z"/>
<path d="M4335 4030 c3 -5 11 -10 16 -10 6 0 7 5 4 10 -3 6 -11 10 -16 10 -6
0 -7 -4 -4 -10z"/>
<path d="M7293 3663 c9 -2 23 -2 30 0 6 3 -1 5 -18 5 -16 0 -22 -2 -12 -5z"/>
<path d="M7358 3653 c7 -3 16 -2 19 1 4 3 -2 6 -13 5 -11 0 -14 -3 -6 -6z"/>
<path d="M4550 3950 c8 -5 20 -10 25 -10 6 0 3 5 -5 10 -8 5 -19 10 -25 10 -5
0 -3 -5 5 -10z"/>
<path d="M4760 3920 c0 -5 7 -10 16 -10 8 0 12 5 9 10 -3 6 -10 10 -16 10 -5
0 -9 -4 -9 -10z"/>
<path d="M4368 3893 c7 -3 16 -2 19 1 4 3 -2 6 -13 5 -11 0 -14 -3 -6 -6z"/>
<path d="M4740 3890 c0 -5 10 -10 23 -10 18 0 19 2 7 10 -19 13 -30 13 -30 0z"/>
<path d="M4710 3870 c0 -5 5 -10 10 -10 6 0 10 5 10 10 0 6 -4 10 -10 10 -5 0
-10 -4 -10 -10z"/>
<path d="M4560 3856 c0 -2 8 -10 18 -17 15 -13 16 -12 3 4 -13 16 -21 21 -21
13z"/>
<path d="M4528 3823 c6 -2 18 -2 25 0 6 3 1 5 -13 5 -14 0 -19 -2 -12 -5z"/>
<path d="M4408 3767 c2 -10 5 -16 6 -15 1 2 7 10 13 18 10 13 8 16 -6 16 -13
0 -17 -6 -13 -19z"/>
<path d="M4343 3705 c0 -8 4 -12 9 -9 5 3 6 10 3 15 -9 13 -12 11 -12 -6z"/>
<path d="M5042 3713 c25 -51 44 -83 50 -83 3 0 -5 20 -19 45 -13 25 -27 45
-29 45 -3 0 -4 -3 -2 -7z"/>
<path d="M4120 3660 c0 -5 5 -10 11 -10 5 0 7 5 4 10 -3 6 -8 10 -11 10 -2 0
-4 -4 -4 -10z"/>
<path d="M4276 3613 c-6 -14 -5 -15 5 -6 7 7 10 15 7 18 -3 3 -9 -2 -12 -12z"/>
<path d="M4990 3616 c0 -8 5 -18 10 -21 6 -3 10 1 10 9 0 8 -4 18 -10 21 -5 3
-10 -1 -10 -9z"/>
<path d="M4066 3563 c-6 -14 -5 -15 5 -6 7 7 10 15 7 18 -3 3 -9 -2 -12 -12z"/>
<path d="M4252 3555 c0 -16 2 -22 5 -12 2 9 2 23 0 30 -3 6 -5 -1 -5 -18z"/>
<path d="M4057 3524 c-4 -4 -7 -17 -7 -28 1 -19 1 -20 11 -3 11 19 8 43 -4 31z"/>
<path d="M5132 3460 c0 -19 2 -27 5 -17 2 9 2 25 0 35 -3 9 -5 1 -5 -18z"/>
<path d="M4052 3450 c0 -14 2 -19 5 -12 2 6 2 18 0 25 -3 6 -5 1 -5 -13z"/>
<path d="M5124 3386 c-3 -8 -4 -23 -1 -33 3 -11 5 -7 7 12 2 30 2 30 10 5 7
-23 8 -23 9 -3 1 26 -17 40 -25 19z"/>
<path d="M4260 3179 c0 -5 5 -7 10 -4 6 3 10 8 10 11 0 2 -4 4 -10 4 -5 0 -10
-5 -10 -11z"/>
<path d="M4570 3727 c-120 -34 -202 -127 -230 -260 -27 -130 49 -286 168 -344
77 -38 189 -38 272 -1 157 71 222 259 147 423 -65 140 -222 220 -357 182z
m165 -48 c114 -43 178 -136 177 -258 -1 -159 -113 -273 -269 -273 -128 0 -233
84 -262 212 l-9 43 45 -7 c25 -3 68 -6 94 -6 32 0 49 -4 49 -12 1 -7 9 -23 20
-36 62 -75 190 -30 190 67 0 44 -32 98 -64 111 -21 8 -26 18 -32 69 -10 89
-30 98 -36 17 -5 -59 -9 -68 -42 -99 -20 -19 -36 -41 -36 -49 0 -17 -57 -28
-142 -28 l-50 0 7 33 c39 184 195 278 360 216z m-31 -210 c50 -40 24 -119 -40
-119 -69 0 -101 78 -48 119 15 12 34 21 44 21 10 0 29 -9 44 -21z"/>
<path d="M6650 3340 c-30 -11 -63 -20 -72 -20 -10 0 -18 -5 -18 -11 0 -6 9 -8
21 -4 14 5 25 1 34 -12 8 -10 15 -13 15 -6 0 6 -5 15 -12 19 -17 11 111 45
140 37 17 -4 23 -2 18 6 -10 16 -63 12 -126 -9z"/>
<path d="M6328 3323 c7 -3 16 -2 19 1 4 3 -2 6 -13 5 -11 0 -14 -3 -6 -6z"/>
<path d="M6566 3262 c-2 -4 0 -14 5 -22 8 -13 10 -13 19 0 5 8 10 18 10 23 0
10 -28 9 -34 -1z"/>
<path d="M6408 3203 c7 -3 16 -2 19 1 4 3 -2 6 -13 5 -11 0 -14 -3 -6 -6z"/>
<path d="M2608 3443 c7 -3 16 -2 19 1 4 3 -2 6 -13 5 -11 0 -14 -3 -6 -6z"/>
<path d="M2621 3280 c-70 -11 -71 -14 -71 -271 0 -199 2 -228 17 -240 21 -18
127 -19 145 -1 10 10 13 70 13 258 0 288 7 272 -104 254z m8 -264 c2 -106 -1
-156 -8 -156 -7 0 -11 53 -11 161 0 88 4 158 8 155 5 -3 10 -75 11 -160z"/>
<path d="M2361 3239 c-24 -5 -47 -11 -50 -15 -11 -11 -7 -442 5 -454 17 -17
116 -15 129 3 12 17 13 445 1 465 -8 13 -22 14 -85 1z m19 -254 l-7 -140 -1
150 c-1 87 2 145 7 140 5 -6 6 -71 1 -150z"/>
<path d="M2113 3195 c-22 -16 -23 -20 -23 -206 0 -112 4 -198 10 -210 8 -15
21 -19 59 -19 29 0 53 6 60 14 8 9 11 77 9 222 l-3 209 -45 3 c-29 2 -53 -3
-67 -13z m54 -282 c-2 -38 -3 -7 -3 67 0 74 1 105 3 68 2 -38 2 -98 0 -135z"/>
<path d="M1945 3183 c-16 -3 -33 -10 -37 -16 -13 -21 -9 -382 4 -395 7 -7 28
-12 48 -12 20 0 41 5 48 12 8 8 12 68 12 203 0 189 -5 218 -34 214 -6 -1 -24
-4 -41 -6z m23 -275 c-2 -44 -6 -58 -12 -45 -5 10 -4 65 0 125 8 96 9 101 12
45 2 -35 2 -91 0 -125z"/>
<path d="M1726 3134 c-8 -20 -8 -312 0 -342 7 -25 41 -37 79 -28 l25 6 0 190
0 190 -49 0 c-35 0 -51 -4 -55 -16z m51 -236 c-2 -35 -3 -9 -3 57 0 66 1 94 3
63 2 -32 2 -86 0 -120z"/>
<path d="M7158 2893 c7 -3 16 -2 19 1 4 3 -2 6 -13 5 -11 0 -14 -3 -6 -6z"/>
<path d="M7288 2803 c6 -2 18 -2 25 0 6 3 1 5 -13 5 -14 0 -19 -2 -12 -5z"/>
<path d="M3167 2673 c-73 -82 -75 -327 -2 -410 23 -27 25 -27 52 -13 42 23 66
96 66 200 -1 97 -13 153 -46 201 -27 40 -47 46 -70 22z m58 -73 c24 -47 23
-64 -2 -39 -6 6 -25 14 -41 18 -30 6 -30 6 -17 39 8 17 19 32 24 32 6 0 22
-22 36 -50z m-27 -139 c4 -57 -4 -91 -23 -91 -19 0 -29 44 -26 113 1 23 5 28
24 25 18 -2 23 -10 25 -47z"/>
<path d="M3463 2668 c-31 -34 -63 -149 -63 -229 0 -149 84 -267 143 -201 37
41 50 94 50 202 0 110 -13 164 -53 221 -25 35 -49 37 -77 7z m78 -83 c36 -81
36 -86 -2 -47 -20 20 -42 32 -65 34 l-34 3 25 38 c14 20 30 37 36 37 6 0 23
-29 40 -65z m-54 -83 c20 -13 26 -60 13 -112 -21 -87 -60 -56 -60 48 0 71 12
87 47 64z"/>
<path d="M7034 2535 c8 -8 18 -15 22 -15 3 0 1 7 -6 15 -7 8 -17 15 -22 15 -5
0 -3 -7 6 -15z"/>
<path d="M2283 2563 c9 -2 23 -2 30 0 6 3 -1 5 -18 5 -16 0 -22 -2 -12 -5z"/>
<path d="M4490 2504 c0 -3 5 -14 10 -25 10 -18 25 -19 400 -19 313 0 390 3
390 13 0 35 -17 37 -412 37 -213 0 -388 -3 -388 -6z"/>
<path d="M4540 2411 c0 -42 -8 -41 416 -41 l404 0 -16 25 -16 25 -394 0 c-233
0 -394 -4 -394 -9z"/>
<path d="M4587 2324 c-3 -4 1 -17 10 -30 l15 -24 404 0 c222 0 404 3 404 8 0
4 -7 18 -16 30 l-15 22 -398 0 c-219 0 -400 -3 -404 -6z"/>
<path d="M6240 1270 c0 -5 10 -10 23 -10 18 0 19 2 7 10 -19 13 -30 13 -30 0z"/>
<path d="M6483 1273 c15 -2 39 -2 55 0 15 2 2 4 -28 4 -30 0 -43 -2 -27 -4z"/>
<path d="M6198 1263 c6 -2 18 -2 25 0 6 3 1 5 -13 5 -14 0 -19 -2 -12 -5z"/>
<path d="M6139 1240 c-25 -14 -55 -88 -41 -102 8 -8 11 -6 10 9 -2 26 41 95
54 87 7 -4 8 -2 4 4 -8 14 -7 14 -27 2z"/>
<path d="M6270 1239 c0 -5 5 -7 10 -4 6 3 10 8 10 11 0 2 -4 4 -10 4 -5 0 -10
-5 -10 -11z"/>
<path d="M6133 1175 c-6 -14 -7 -25 -2 -25 5 0 9 6 10 13 1 6 5 1 9 -13 6 -20
8 -21 8 -5 0 11 -2 28 -6 37 -6 15 -9 14 -19 -7z"/>
<path d="M6130 1023 c0 -4 5 -15 10 -23 8 -13 10 -13 10 2 0 9 -4 20 -10 23
-5 3 -10 3 -10 -2z"/>
</g>
</svg>
