<svg version="1.0" xmlns="http://www.w3.org/2000/svg" width="1100" height="1100" viewBox="0 0 825 825"><path d="M392 77.6c-1.9.2-9.6 1.1-17 2-27.1 3.1-54.7 9.4-81.5 18.7-135.9 47.1-235.6 171.6-255 318.6-2.2 16.4-3.8 47.6-3.3 61.9l.5 12.3-4 3.8c-3.3 3.2-4 4.6-4.4 8.8-.6 6 1.2 10 6.2 13.9 1.9 1.4 3.5 3 3.5 3.5s-2.7 2.2-5.9 3.8c-7.2 3.7-10.1 7.8-10.1 14.5 0 5.9 1.9 10.5 5.8 13.8l3 2.5-4.6 2.2c-8.4 3.9-12.6 9-14.3 17.3-2 10 2.8 19.6 12.3 24.4l5.3 2.7-3.5 1.4c-6.8 2.8-11 8.5-11 14.8 0 8.2 5.4 14.3 14.5 16.6 2.8.6 5.2 1.3 5.4 1.5.1.1-1.2 2.1-3 4.4-3.1 3.9-3.4 4.8-3.4 11.1 0 5.9-.2 6.9-1.8 6.9-2.9 0-8.8 2.8-10.9 5.3-5.7 6.4-5 14.4 1.9 20.9 3.1 3 9.1 5.8 12.4 5.8 1.3 0 4.9 2.6 8.9 6.4 8.6 8.1 15.6 11 24.5 10.3 3.4-.2 7.9-1.4 10.4-2.6 3.5-1.8 5-2.1 8-1.4 3.4.8 3.6 1.1 4.1 5.8 1.4 12 10.4 19.5 23.6 19.5 3.5 0 5.9.7 8.4 2.3 5.2 3.5 9.5 4.7 17 4.7 11.1 0 19.3-4 24.6-12l2.5-3.8 5.6 2.9c4.4 2.3 6.8 2.9 11.9 2.9 5.3 0 7.2.5 10.7 2.7 3.6 2.3 5.5 2.8 13.6 3.1 9 .4 9.6.6 14.4 4.2 9.1 6.9 19.2 7.8 27.1 2.3 2.2-1.6 5-4.7 6.1-6.8 1.1-2.2 2.1-4.2 2.3-4.4.1-.3 1.9.5 4 1.7 4.7 2.6 14.3 5.2 19.3 5.2 2.5 0 4.7.8 6.6 2.4 3.9 3.2 8.7 5.6 11.5 5.6 1.3 0 4.1.6 6.2 1.4 6 2.1 13.4-1.1 15.1-6.4.4-1.3 1.6-1.6 6.4-1.2 3.3.2 6.7-.1 7.9-.7 1.7-.9 3.9-.6 10.9 1.4 8.7 2.4 22.6 5.3 37.3 7.5 10.5 1.7 43 2.6 58.7 1.8 22.8-1.2 52.9-7 71.2-13.7 8.3-3 10.1-3.2 10.1-.7 0 2.2 5.8 9.5 8.9 11.1 1.7.8 5.4 1.5 8.3 1.5 3.1.1 6.1.7 7.2 1.5 2.8 2.1 10.5 1.9 14.2-.4 1.8-1.1 4-3.4 5-5.1 1.9-3.1 1.9-3.1 8-2.4 8.1.8 16.1-1.5 21.3-6.1 3-2.7 4.7-3.5 7.7-3.5 4.5 0 5.3.4 8.2 4.6 1.2 1.8 4.5 4.7 7.4 6.5 4.9 3.2 5.8 3.4 12.8 3.2 4.1-.1 9.1-.3 11-.3 1.9-.1 6.3.2 9.8.6 4.8.5 7.3.2 10.9-1.1 7.7-3 14.2-10 16.3-17.5.6-2.4.8-2.2 3.3 2.5 4.6 9 12.3 14.5 20.1 14.5 4.2-.1 10.8-3.2 13.2-6.2 1.1-1.4 3.5-2.8 5.6-3.2 7.4-1.4 15.7-10.3 15.8-16.9 0-1.5.5-1.7 3.8-1 6.1 1.3 14.6.7 19.3-1.4 4.3-2 11.9-8.7 11.9-10.5 0-.6 2.4-.6 5.5-.3 7.6 1 13.5-.8 19.3-6 2.6-2.2 6.8-4.9 9.3-5.8 17.8-6.7 14.3-27.8-5.1-30.4l-3.7-.5v-5.7c0-5.8-1.8-10.7-5.5-14.7-1.9-2.1-1.9-2.1 1.3-2.8 5.3-1 11.5-5.2 13.3-9 2-4.3 2.1-10.8.1-14.6-1.5-2.8-7.3-8-9.1-8-.5 0-1.5-.4-2.3-.9-1.2-.8-.4-1.9 3.6-5.6 9.2-8.2 11-21 4.4-31.6l-3.2-5.2 3.4-15.6c10.2-45.4 12-86.9 5.6-131.6-10.5-74.2-40.6-141.2-89.9-200.1-9-10.7-34.6-36.6-45.2-45.7C619.5 124.8 554.4 94 490.4 83c-25.7-4.4-34.5-5.1-64.9-5.5-16.5-.2-31.6-.1-33.5.1zm70.5 18c29.8 3.6 50.2 8.2 78 17.7 20.5 7.1 25.6 9.2 44.8 18.7 19 9.5 39.8 22.1 51.9 31.4 1.5 1.2 4.8 3.7 7.4 5.6 7.4 5.5 18.3 14.8 25.6 21.8 3.6 3.5 7.5 7 8.7 7.8 1.1.8 7.6 7.7 14.5 15.4 29.9 33.5 53.2 70.5 70.4 111.7 10.6 25.1 19.5 57.4 23.8 85.4 2.1 14.2 2.7 22.3 3.1 44.4.6 28.9-.2 42-3.9 64.7l-2.2 13.6-4.8-3.6c-5.9-4.6-6.5-6.3-3.8-10 1.9-2.6 2.1-3.8 1.5-8.8-.9-8.8-1-15.7-.1-39.4.4-11.8.4-24.9-.1-29l-.8-7.5-10-5.2c-5.5-2.9-12.4-6-15.3-7l-5.2-1.7 2.4-2.5c3.5-3.9 4.6-6.5 4.6-11.4 0-5.7-3.2-10.4-9.2-13.7-2.6-1.4-5-2.8-5.3-3.2-.3-.3.2-2.4 1.1-4.7 2.1-5.3 1.3-10.5-2.2-14.2-1.8-1.9-2.4-3.3-1.9-4.8.7-2.2-.7-5.4-3.7-8.7-1.1-1.2-1.9-2.8-1.8-3.5.6-3.7-.3-6.1-3.2-9.4-3.1-3.6-3.1-3.7-1.4-6.7 2.3-3.8 1.5-8.1-2.4-13-1.9-2.3-3-4.8-3-6.7 0-2.2-.9-3.9-3-5.7-2.6-2.4-2.9-3.2-2.4-6.4.6-4-.4-7-3.9-10.7-1.8-2.1-1.9-2.6-.8-6.1 1.5-4.5.6-7.1-3.8-10.8-1.5-1.2-3.1-4.1-3.8-6.6-.6-2.4-2.2-5.6-3.4-7.1-4.5-5.8-11.8-1.3-13.4 8.2-.4 2.2-1.3 4.2-2 4.5-2.5.9-4.8 6.7-4.2 10.8.4 3.3.1 4.3-2.4 6.7-2.2 2.2-2.9 3.9-2.9 6.8 0 2.1.4 4.4.9 5.1.5.9-.2 2.3-2 4.3-2.8 3-4.6 8-3.4 9.9.4.6-.5 2.4-1.9 4.1-3 3.5-3.5 9.7-1.2 13.9 1.3 2.2 1.2 2.7-1.4 5.7-1.6 1.8-3.2 4.8-3.6 6.8-.3 1.9-1 3.7-1.4 4-1 .6-13.8-13.1-16.3-17.4l-1.8-3.1h3.5c1.9 0 3.7-.4 4.1-.9.3-.6-2.2-7.6-5.5-15.8-3.4-8.1-7-17.2-8.1-20.1-1.5-3.7-2.6-5.2-3.9-5.2-2.3 0-3.1 1.3-7.1 12.2-1.6 4.6-4.1 10.6-5.4 13.4-3.9 8.3-6.4 15.1-5.8 15.8.4.3 2.1.6 4 .6 1.8 0 3.3.4 3.3.9 0 1.4-6.6 10.7-13.8 19.6-11.4 14.1-11.9 18-2.4 18 6.6-.1 7-.7-9.9 17.9l-2.7 2.9-.7-2.4c-.4-1.3-1.4-3.5-2.3-4.9-.9-1.4-1.5-3.6-1.4-5 .2-1.4-.6-3.4-1.6-4.6-1.4-1.4-1.8-3-1.5-4.8.4-1.8-.3-3.8-2-6.4-1.4-2-3-5.6-3.7-7.9-1.4-5.4-4.3-7.3-6.4-4.1-.8 1.3-1.9 4.2-2.5 6.4-.6 2.3-1.8 4.7-2.6 5.4-.8.7-1.5 2.8-1.5 4.7 0 2-.9 4.8-2.1 6.5-1.6 2.2-2 3.9-1.6 6.8.3 2.1 0 4.3-.6 4.9-.5.5-1.1 2.5-1.2 4.3-.1 1.9-.7 4.3-1.4 5.5-.6 1.2-1.1 3.2-1.1 4.5 0 1.3-.7 3.2-1.5 4.2-.8 1.1-1.5 3.3-1.5 4.8 0 1.6-.8 4.1-1.7 5.5-1.2 1.8-1.8 4.8-1.8 8.9-.1 4.5-.6 6.8-1.8 8.2-.9 1-1.7 3.2-1.7 4.9 0 1.6-.8 3.7-1.9 4.7-1.7 1.6-2.2 1.3-9.1-6.8-4-4.7-7.6-8.7-7.9-8.8-.3-.2-2.1-2.2-3.9-4.6l-3.4-4.2h5.1c2.9 0 6.7-.7 8.6-1.4 3-1.3 3.5-2 3.5-4.7 0-3.6-2-6.6-12-17.9-7.8-8.9-11-13-11-14.1 0-.5 1.8-.9 4-.9s4-.5 4-1c0-.9-12.6-32.9-15.3-38.7-2-4.5-4.3-2.8-7.6 5.7-1.7 4.4-4.5 11.6-6.2 16-1.7 4.4-3.4 8-3.8 8-.3 0-2.5-2.2-4.8-4.9-2.4-2.8-5.9-5.5-7.8-6.2-3.4-1.2-3.5-1.5-3.5-6.2 0-4.3-.5-5.4-3.5-8.4-3.6-3.6-5.8-3.9-10.9-1.8-1.7.7-1.8.5-1.3-1.7 1.2-4.5 2.7-16.2 2.7-20.8 0-4.3.3-4.6 4.1-6.4 9.5-4.4 18.5-17.3 19.6-28.3.4-3.8 1.1-5.6 2.2-6 14.4-4.3 26.8-11.9 36.3-22.2 7.2-7.9 11.6-14.7 16.3-25.8 11.6-26.9 7.8-61-9.7-88-9.1-13.9-26.1-29.4-39.8-36.3-12.5-6.2-31.9-11-45-11-7.5 0-22.1 2.6-30.4 5.5-18.5 6.4-37.8 23.2-45 39.3-1.4 3-2.5 4.2-4 4.2-1.2 0-4.2.6-6.7 1.4-25.9 7.9-41 35.4-34.3 62.5 2.3 9.2 5.8 15.6 12 22.2l5.5 5.6-1.2 9.6c-2 17.3 2.4 31.1 13.7 42.3l6.2 6.2-.5 6.6c-.8 9.7 2.5 19.3 8.7 25.5 5 5 12.1 8.9 17.7 9.8 2.9.5 3.3.9 3.3 3.8 0 1.9-.8 3.9-1.9 4.9-4.4 4-2.9 11.8 2.8 15.2l3.1 1.8V397h-5c-2.8 0-8 .7-11.6 1.6-3.6.9-6.6 1.5-6.7 1.3-.2-.2-1.6-2.3-3.1-4.6l-2.9-4.3 2.2-1.7 2.2-1.8-4.5-7-4.5-7 2.9-.8c3.9-1 3.8-2.9-.3-9.8-1.8-3-5.5-10.7-8.2-17.2-4.2-10-5.2-11.7-7-11.5-1.6.2-2.7 2.3-5 9.4-3.5 10.1-6 15.3-10.5 21.5-2.3 3.2-2.7 4.5-1.9 5.5.6.8 1.5 1.1 2 .8 2.1-1.3.6 2-3.6 7.7-2.5 3.4-4.5 6.8-4.5 7.5 0 .8 1.1 1.9 2.5 2.4 2.5 1 2.5 1 .9 4.2-2.8 5.4-8.3 13.8-14.8 22.5l-6.1 8.2-2.7-2.9c-1.5-1.7-3.1-3-3.6-3s-.8-2.8-.8-6.3c.1-7.4-2.3-11.6-8.4-14.7l-3.9-2 2.5-2.7c2.3-2.4 2.5-3.5 2.1-7.8-.4-4.2-1-5.4-4.1-8.1-2.9-2.5-3.6-3.8-3.6-6.8 0-2.1-.5-4.7-1.2-5.9-.6-1.2-1.1-3.8-.9-5.8.2-2.9-.4-4.4-2.9-7.3-3.2-3.6-3.2-3.8-2.6-10.9.6-6.1.4-7.7-1.4-10.9-1.1-2.1-2-5.4-2-7.3 0-2.5-.7-4.3-2.4-5.8-1.8-1.7-2.2-2.9-1.8-5.5.4-3.4-3.5-13.9-6.5-17.4-1.2-1.4-1.3-2.3-.4-5.1 1.5-4.4.3-7.5-4.1-11.2-1.9-1.6-4-4.7-4.9-7.3-.8-2.5-2.7-5.5-4.2-6.6l-2.7-2-2.7 2.1c-1.8 1.2-3.3 3.8-4.1 6.7-.7 2.5-2.2 5.1-3.2 5.6-2.9 1.6-5.2 6.7-4.9 11 .2 2.2-.4 4.8-1.4 6.3-.9 1.5-1.7 4-1.7 5.7 0 1.6-.4 3-.9 3-1.6 0-3.2 5.7-2.6 9.1.5 2.6.2 3.9-1.4 5.6-1.2 1.2-2.1 3.1-2.1 4.2s-.5 2.3-1 2.6c-.6.4-.8 1-.5 1.5.2.4-.4 1.8-1.4 3.1-3 3.9-3.5 8.4-1.5 13.9l1.7 4.8-3.1 3.7c-2.2 2.5-3.2 4.6-3.2 6.9 0 1.9-.7 4.7-1.5 6.2-.8 1.6-1.5 4.3-1.5 6.1 0 2.4-.7 3.7-3 5.3-3.5 2.5-5 7.2-3.8 12 .5 1.9 1.2 4.4 1.5 5.6.4 1.6-.4 2.4-3.7 3.9-2.2 1-5.4 3.1-6.9 4.7l-2.8 2.8-3.7-4-3.7-4h4.4c2.8 0 5.3-.7 6.7-1.8 2.1-1.7 2.2-1.9.6-5.6-.9-2.2-4.5-7.1-7.9-11-6.9-7.7-11.7-13.9-11.7-14.9 0-.4 1.1-.7 2.4-.7 3.5 0 3.7-1 1.5-6-1.2-2.5-3.8-9.1-5.9-14.7-5.2-13.7-5.9-14.9-7.5-13.2-1.3 1.4-13.5 31.1-13.5 33 0 .5 1.4.9 3 .9 1.7 0 3 .3 3 .8 0 1.3-6.9 11.3-12.5 18.2-6.4 8-7.8 10.5-7 13 .5 1.6 1.5 2 5.2 2 2.4 0 4.3.4 4.1.9-.1.5-2.3 3.1-4.8 5.8-12.7 13.4-15.2 18.2-11.5 21.3 1.3 1.1 2.3.8 6.2-1.9l4.6-3.3-2.1 3.4c-2.5 3.9-13.2 14.8-14.6 14.8-2.5 0-4.6-3.5-4.6-7.7 0-2.9-.8-5.6-2.5-8.3-1.5-2.3-2.5-5.4-2.5-7.5 0-4.2-2.8-10-7.1-15-2.1-2.3-3.2-4.8-3.4-7-.1-1.9-.9-4.3-1.8-5.3-1-1-1.7-2.9-1.7-4.1 0-2.7-2.5-7.7-5.4-11.1-1.2-1.4-3.2-5.7-4.4-9.7-3.8-12-10.4-16.7-15.1-10.7-2.2 2.9-5.1 11.3-5.1 15 0 1.3-1.8 4.4-4.1 7-3.9 4.5-4 4.9-3.7 11 .2 5.5-.1 6.6-2.1 8.8-1.4 1.4-2.6 2.5-2.7 2.3-1.3-1.3 8.7-39.5 14.6-55.5 13.2-36.1 32.9-72.2 55.3-101.2 13.6-17.5 33.9-39.1 50.6-53.8C240.6 130.6 318 99.1 399.4 94c17.2-1.1 46.9-.3 63.1 1.6zm1.3 16c25.7 5 50.6 24.2 62.7 48.4 7.5 15 10 27.1 9.2 43.4-.9 17.3-5.1 29.8-14.3 41.7-11.1 14.5-24.3 22.4-43.5 26.3-2.6.6-2.7.7-2.5 8.8.1 7.2-.3 9-2.6 13.5-4.1 7.6-10.4 12.3-20.5 14.9-1 .2-1.3 3.4-1.3 11.6 0 7-.6 14-1.6 18.4l-1.7 7h-18.6c-10.2-.1-20.3.3-22.3.7l-3.8.8v-21.8l-6.7-.5c-13.4-1-20.5-7.6-21.1-19.7-.3-5.5.1-7.3 2.1-11l2.4-4.5-5.6-2.7c-12.7-6.1-21.1-20.3-21.1-35.7 0-3.4 1.9-12.2 3.5-16.3.4-1.1-1-2.6-4.8-5.2-29.1-20-16.6-68.1 18.6-71.4l6.4-.6 1.8-5c2.5-7 10.6-18.7 16.7-24.2 17.8-16 42.4-22.1 68.6-16.9zm-215 161.5c.6 3.5 1.3 4.7 3.7 5.8 5.4 2.6 6 3.8 4.6 8.5-.7 2.2-1.3 4.8-1.5 5.6-.1.9-.9 2.6-1.8 3.9-1.4 2-2.4 2.2-9.9 2.2-10 0-12.1-1.3-9.3-5.6 1.3-1.9 2.3-2.5 3.9-2.1 2.6.7 9.5-1.1 9.5-2.5 0-.6-1-.8-2.2-.4-1.3.4-3 .9-3.9 1.1-2.4.7-4.9-2.3-4.9-5.6 0-2.2.7-3.3 2.9-4.5 2.3-1.1 3.3-2.7 4.6-7.1 1.8-6.4 3.1-6.2 4.3.7zm447.9 2.2c.5 3.9 1.1 5 4.4 7.3 3.9 2.7 5.2 6.5 2.8 8-.6.3-.8 1.6-.5 2.8.4 1.6-.1 2.9-1.7 4.3-1.2 1.1-3.5 3.6-5 5.6-4.8 6.1-12.9 7.3-16.2 2.3-3-4.5 1.5-10.1 9.3-11.7 3.4-.6 3.5-.7.8-.8-3.5-.1-6.6-2.6-6.6-5.3 0-1 1.3-3.2 2.9-4.8 1.7-1.8 3.5-5.5 4.6-9.1 1.5-5.5 1.8-6 3.2-4.6.8.8 1.8 3.5 2 6zm-445.1 27c.3.3-1.7 2.8-4.5 5.6-4.2 4.2-5.7 5.1-8.7 5.1-5.3 0-7.4-1.5-7.4-5.4 0-5.4 2.7-6.7 13.3-6.2 3.7.2 7 .6 7.3.9zm446.5 12.2c2.2 1.2 2.9 2.2 2.7 3.8-.3 2.4-5 3.8-16.5 5-5.9.6-6.4.5-7.9-1.7-2-3.1-.6-6 3.9-8.1 3.9-1.8 13.4-1.2 17.8 1zM248 317.6c5 2 5 4.5 0 5.5-11.4 2.3-17.2 3-18.5 2.5-2.4-.9-1.9-6.2.7-8 3-2.1 12.6-2.1 17.8 0zm450.4 9.3c.9.7 2.7 1.1 4.1.9 1.3-.3 2.2-.2 2 .3-.3.4-.1 1 .4 1.3.5.4 1.2.2 1.6-.4 1-1.7 3.5-1.1 3.5.7 0 1.5-.2 1.6-1 .3-.6-.9-1-1-1-.3 0 .6-.8 1.4-1.7 1.6-1 .3-.3.5 1.6.6 2.9.1 3.2.3 2.1 1.6-.7.8-2.2 1.5-3.4 1.5-2.9 0-4.2 1.1-4.9 4.2-.8 2.9-3.7 4-11 3.9-4.8 0-15.2-3.3-17.9-5.8-2.7-2.4-2.2-6 1.2-9.5l3.1-3 9.8.4c6.2.2 10.5.9 11.5 1.7zm-444.1 1.7c10.7.6 12 1.8 4.9 4.4-2.2.8-6 3.3-8.4 5.5-4.2 4-4.3 4-12.3 4-9.9 0-13-.8-15-3.9-1.4-2.1-1.4-2.8-.1-5.9 2.1-5.1 3.9-5.8 13.1-5.2 4.4.2 12.4.7 17.8 1.1zM680.4 347c-1.2.5-3.1 2.2-4.3 3.9-2.9 4-5.8 5.6-7.6 4.1-3.6-3 3.1-9 10-8.9 3.2 0 3.6.2 1.9.9zm-448.8 2c1.5 0 2.5 3.8 1.2 4.6-.6.4-.5 1 .3 1.5 1.1.7 1 .9-.4.9-1 0-2.8.7-4.2 1.6-3.3 2.1-8.9 1.5-9.4-1.1s6.6-8.7 9.4-8c1.1.2 2.5.5 3.1.5zm218.7 3.3c5.6 2.4 4.8 4.1-1.5 3-6.5-1-39.5-1.1-46-.1-3.8.6-4.8.5-4.8-.7 0-3 11.2-4.5 32.5-4.1 11.8.3 17 .7 19.8 1.9zm16.7.6c.5 1.1.7 2.7.4 3.6-.7 1.8-3.9 3.7-4.8 2.8-1-1.1-.7-5.8.6-7.1 1.7-1.7 2.6-1.5 3.8.7zm-383.1 3c2.5 4.5 5.9 28.1 4.7 31.9-.4 1.1-2.7 3-5.1 4.2-4.4 2.1-14 4.1-15 3.1-.4-.3 1-2 3.1-3.7 3.5-3.1 3.6-3.3 2-5.5-2.6-3.8-2-7.7 1.8-11.3 2.9-2.7 3.4-4 4-9.4.7-6.2 2-11.2 3-11.2.3 0 1 .8 1.5 1.9zm334.6 5.3c2.5 1.1 2.6 1.5 2 5.6-1.4 9.3-1.5 19.5-.2 21.1.9 1.2.9 1.3 0 .7-1.7-1-1.8 8.5-.1 10.2.9.9.8 1.2-.4 1.2-2.1 0-2.6 3.1-1.6 9 .7 4 .6 4.7-1.4 6.2-1.3 1-2.7 1.8-3.2 1.8-.4 0-1.7 1.1-2.8 2.5-1.1 1.4-2.4 2.5-2.9 2.5s-.9-12.6-.9-31v-31h4.5c2.4 0 5.6.5 7 1.2zm282.5.4c13.5.1 25 .3 25.7.3 2.1.2 2.6 4.1.7 6.2-1.7 1.9-2.6 2-11.5 1.3-9.5-.6-9.9-.6-16.1 2.4-3.8 1.9-8.8 3.4-12.7 3.8-5.4.6-6.7 1.1-9.3 4-3.5 3.8-13 7.8-16.4 7-2.4-.6-5.8-5.5-6.9-9.7-.6-2.4-.4-2.7 3.3-3.3 4.8-.7 6.5-2.5 5.6-6-.4-1.7 0-3.5 1.1-5.2 1.6-2.4 2-2.5 6.8-1.9 2.9.4 16.2.9 29.7 1.1zm-124.5 4.6c2.3 7 1.5 9.4-3 9.5-4.2.1-4.4-1.1-1.5-7.6 1.1-2.4 2-4.9 2-5.7 0-2.6.8-1.4 2.5 3.8zM250 364.6c12.9.3 24.5.7 25.6 1 2.8.5 3.7 2.9 2.1 5.5-1.1 1.9-1.8 2-8.7 1.3-9.3-1-12.4-.8-22.5 1.3-12.1 2.4-15.4 3.8-19.7 8.8-6 6.8-13.9 8-16.8 2.5-1.8-3.3-.8-6.2 3-8.8 3.1-2.1 3.5-2.8 3.2-6.1-.5-5.2 1.9-7.5 6.7-6.7 2 .3 14.2.9 27.1 1.2zm221.6.9c4.9 1.4 10.4 6 11.7 9.7 1.1 3-.9 2.8-3.2-.2-4.3-5.9-11.7-8.7-18.2-7-14.4 3.9-17.9 24.8-5.7 34.4l3.3 2.6h-8.2c-4.6 0-8.3-.4-8.3-.9 0-1.2 2.5-3.8 4.2-4.3.9-.3.9-2.4-.2-9.1-1.2-7.7-1.1-9.1.4-13 2.1-5.6 7.2-10.5 12.7-12.2 5.7-1.8 5.7-1.8 11.5 0zm.3 7.1c5.3 2.1 7.4 5.5 7.2 11.7-.1 6.8-3.3 13.1-7.5 15.1-4.3 2-6.9 2-11.1 0-10.9-5.1-10.2-22 1-27 3.9-1.7 5.7-1.7 10.4.2zm100 8.6c1 2.7.4 3.9-.9 1.8-.8-1.2-1-1-1 .7 0 1.6-.6 2.3-1.9 2.3-2.6 0-3.5-2.9-1.5-5.1 2.3-2.5 4.3-2.4 5.3.3zm-74.4 1c3.1 2.8 4.4 7.3 3.4 11.4-1.2 4.1-4 6.5-8.6 7.1-3.2.4-4.5 0-7.1-2.2-2.9-2.4-3.2-3.2-3.2-7.8 0-2.9.6-5.9 1.3-6.8 3.4-4.4 10.1-5.2 14.2-1.7zm-62.7 6.2c.4 5.1-.5 8.6-2.3 8.6-1.7 0-3.5-3-3.5-5.9 0-7.3 5.2-9.7 5.8-2.7zm8 2.4c.3 1.8-.2 2.2-2.2 2.2-3.3 0-4.4-2-2-3.7 2.4-1.7 3.8-1.2 4.2 1.5zm128.8-1.9c-.4.5.2.7 1.2.4 1.7-.4 1.8-.1.8 4.1-1.1 5-2.7 5.7-8 3.6-3.3-1.2-3.3-3.5 0-6.5 2.5-2.4 7.2-3.6 6-1.6zm-150.9 7.3c-.2 1.3-.4.3-.4-2.2s.2-3.5.4-2.3c.2 1.3.2 3.3 0 4.5zm167.8.7c.3.5.2 1.2-.3 1.5-.5.3-.9-.1-.9-.9 0-1.7.3-1.9 1.2-.6zm150.8 0c1.7.7 2.6 2 3.1 4.6.9 4.5-.1 5.8-5.6 7.5-2.4.7-4.7 1.7-5.3 2.2-.5.4-1.8.8-3 .8s-2.6.5-3.2 1.1c-2.1 2.1-12.4 1.4-21.8-1.5-2.7-.9-6.1-1.5-7.5-1.5-2.3.2-2.4.2-.2.6 2.6.5 3 2.3.5 2.3-1.5 0-1.6.2-.3 1 1.1.7 1.1 1 .2 1-.7 0-1.1.4-.8.9.3.5-1.4 1.1-3.7 1.2-5.4.5-7.9 0-7.2-1.2.4-.5-.5-.9-1.9-.9s-2.6.4-2.6 1-5.4 1-14.2 1c-16.2 0-19.8-1.1-23.1-6.8-2.4-4-1.7-7.4 2.3-11.3l2.8-2.9h44.6c24.9 0 45.5.4 46.9.9zm-477.5.8c-.3 1.5 1.4 4.3 2.3 3.7.5-.3.9.2.9 1 0 .9.4 1.6.9 1.6s1.2.7 1.5 1.6c.5 1.3.2 1.5-1.4 1.1-1.3-.3-2 0-2 .9 0 2.2-4.1 3.7-10.4 3.6-7.9 0-16.7-1.2-16.1-2.2.9-1.5-2.2-1.8-4.6-.5-6.5 3.8-10.4 4-13 .9-.6-.8-1.9-1.4-2.8-1.4-1.3.1-1.3.3.3 1.5 2 1.5 1 2-1.8.9-.9-.3-1.3-1-1-1.5.6-1.1.1-1.1-2-.3-.9.3-1.6 1-1.6 1.4 0 1.3 7.1 3.4 10.5 3.2 2.3-.2 2.6 0 1.5.8-.8.5-3.3 1-5.5 1-3.1 0-3.7.3-2.5 1.1 1.1.8-.6.9-6.2.6-8.6-.4-10.2-1.3-11.8-6.2-.9-2.6-.8-4.1.4-6.9 2.6-6.2 4.4-6.5 36.4-6.6 15.5 0 28.1.3 28 .7zM86 399.8c2.9 1.4 3.5 2.3 3.8 5.5.5 6-1.5 7.2-12.2 7.2-5 0-10.3-.3-11.8-.8-2.5-.6-2.8-1.2-2.8-4.8 0-2.9.7-4.7 2.5-6.4 2.1-2.2 3.3-2.5 9.7-2.5 4.9 0 8.4.6 10.8 1.8zm491.7-.2c-.3.3-1.2.4-1.9.1-.8-.3-.5-.6.6-.6 1.1-.1 1.7.2 1.3.5zm-94.7 2.6c4.4 2.5 5.3 4.4 1.8 3.4-1.3-.3-4.7-.6-7.7-.6h-5.4l3.4-2.4c1.9-1.3 3.5-2.5 3.7-2.5.2-.1 2.1.9 4.2 2.1zm88.5 1c.1 3.1-2.8 4.9-6.8 4.1-5.5-1.1-2-7.7 3.7-7.1 2.6.3 3.1.7 3.1 3zm29 2.5c-2.1 2.7-4 5-4.2 5.2-.6.8-3.2-2.2-2.7-3.1.3-.5.8-.7 1.1-.5.2.3 2.3-1.2 4.6-3.3 2.3-2.2 4.3-3.7 4.6-3.5.2.3-1.3 2.6-3.4 5.2zm-15.9.9c.2 1-.3 1.4-1.3 1-.8-.3-2-.6-2.6-.6-.7 0-.6-.4.3-1 1-.6 1.1-1 .3-1-.7 0-1.3-.7-1.3-1.6 0-1.4.2-1.4 2.2 0 1.2.9 2.3 2.3 2.4 3.2zm2.2-3.4c1.5 1.5 1.6 3.8.2 3.8-.5 0-.9-.3-.9-.8.3-2-.3-3.1-1.8-3.5-1.4-.4-1.4-.5-.2-.6.8 0 2 .4 2.7 1.1zm-191.4.4c3.4.5 4.6 1.1 4.6 2.3 0 1.4-1 1.7-5.6 1.7-4.9-.1-5.9.2-8 2.7-4.2 4.9-3.4 5.7 5.6 5.7 4.7 0 8 .4 8 1s-4.8 1-12.2 1c-6.8 0-14 .3-16 .6-4.6.8-4.7 0-1-5.5 3.3-4.9 7.8-7.9 13.6-9.1 5.6-1.1 5.7-1.1 11-.4zm174.1 8.2c.5.3-1.3 1.2-4 1.9-5.3 1.3-7.2.6-6.1-2.2.5-1.4 1.4-1.5 4.9-1 2.3.4 4.6 1 5.2 1.3zm-134.5 4c0 1-1.3 2.3-3.2 3.1-1.8.7-6.4 3.1-10.1 5.4-7.9 4.6-22.9 19.9-22 22.4.4 1 1 .6 2.1-1.6 1.5-3.3 3.5-4.3 2.5-1.4-.4 1.2 0 1.1 1.1-.5 1-1.2 1.4-2.7 1-3.4-.4-.7-.3-.8.4-.4s1 1.9.7 3.4c-.3 1.5-.2 2.1.1 1.3.5-1 .8-1.1 1.4-.1.5.8-.6 3.5-2.7 6.8-2 3-4.6 8-5.9 11.1-1.3 3.1-2.3 5.1-2.3 4.6-.1-2 3-9.9 5-12.6 1-1.5 1.9-3.1 1.9-3.7 0-.5.7-1.5 1.5-2.2 1.2-1 1.3-1.6.5-2.4-.8-.8-1.3-.7-2 .4-.7 1-1 1.1-1 .2 0-2.4-1.9-1.1-2.5 1.8-.4 1.7-1.1 2.8-1.6 2.4-.5-.3-.9-.3-.9 0 0 .2-.3 1.2-.7 2.2-.4 1.1-.3 1.5.5 1 .6-.3 1.4-.1 1.8.5.5.8.3.9-.6.4-.9-.5-1-.2-.6 1.2s.2 2-.9 2-1.3-.6-.9-2c.4-1.2.2-1.7-.4-1.3-.5.3-1.2 1.5-1.5 2.6-.3 1.1-.1 1.8.4 1.4.5-.3.9-.1.9.5 0 .5-.9.9-2 .8-1.1-.1-2-.2-2-.4 0-.1 1.4-2.5 3.1-5.3 1.7-2.7 2.9-5.5 2.7-6.1-.2-.7-2.1 2-4.1 5.8-3.5 6.7-4.9 10.5-2.6 7.3.8-1.2.9-.9.4.9-.4 1.3-.8 4.7-.8 7.5 0 3.7-.2 4.4-.7 2.6-.4-1.4-.5-4.1-.3-6 .3-3.4.3-3.4-1.3 1-1.3 3.4-1.7 8-1.7 19-.1 12.4.2 15.3 2.1 20.2l2.1 5.8h-2.8c-2.6 0-2.8-.4-4.7-7.8-3.8-15.4-1.8-35.7 5.1-50.9 6.5-14.1 20.3-28.6 33.7-35.3 8.8-4.4 11.8-5 11.8-2.2zm-359.8 1.4c2.6.5 6.6 2.4 9 4.2 2.4 1.8 6.4 4.2 9 5.4 7.6 3.3 8.2 4.4 3.9 6.4-2.8 1.4-5.2 1.6-11.2 1.1-5.9-.4-8.2-.2-10.7 1.1-3.9 2-11.2 2.2-11.2.2 0-.7-1.6-3.3-3.5-5.7-4.9-6.1-4.5-10.7 1-13.8 2-1.1 4.4-.9 13.7 1.1zm422.6 1.5c22.2 13.1 35.3 33.6 38.2 59.7 1.8 15.2-2.8 37.7-7.7 38.4-1.9.3-2.1-.1-2-3.1.1-1.9.5-3.3.8-3.1 1 .5 3.1-7.5 2.3-8.8-.4-.6-.3-.8.4-.5 1.4 1 2.6-14.4 1.8-23-.7-6.4-3-15.6-4.6-17.8-.3-.6-1.4-3.1-2.3-5.6-2.1-5.6-5.3-9.2-7.5-8.5-2.4.8-4.4-.8-3.6-2.7.9-2.4 2.7-2.1 1.9.3-.4 1.2-.2 2 .5 2 .6 0 .8-.5.4-1.1-.4-.7.2-.6 1.7.2 2 1 1.7.3-1.5-3.7-2.2-2.7-4.2-5.3-4.6-5.7-.4-.4-1.7-.3-3.1.2-1.3.5-1.8 1-1.1 1 .7.1 1 .6.6 1.2-.4.8-.9.7-1.4-.2-.7-1-1.2-1-2.7.1-1.1.9-1 .5.4-1.1 1.8-1.9 2-2.8 1.1-3.7-.8-.8-.8-1.2-.1-1.2.6 0 1.6.7 2.3 1.5.7.9 1.5 1.3 1.8 1 .6-.5-2.5-3.3-8.6-7.6-3.3-2.4-4.7-2.8-5.5-2-.9.9-.8 1.1.3.7 1.7-.6 5.7 2 4.7 3.1-.4.4-1.3.1-1.9-.5-1.5-1.5-3.2-1.6-2.3-.2.3.5-.1 1-.9 1-.9 0-1.6-.6-1.6-1.4 0-1.7-5-3-8.2-2.1-1.8.5-2 .4-.8-.4.8-.6 2.9-1.1 4.5-1.2 2.8-.1 2.9-.1.6-.8-2.5-.7-4.2-3.1-2.1-3.1.6 0 .8.4.5 1-.4.6.1.7 1.1.3 1.5-.5 1.5-.7 0-1.5-2.2-1.2-2.1-4.8.2-4.8.9 0 4.6 1.7 8 3.7zm-275-2c-1 .2-2.6.2-3.5 0-1-.3-.2-.5 1.7-.5s2.7.2 1.8.5zm13.9-.1c-.3.3-1.2.4-1.9.1-.8-.3-.5-.6.6-.6 1.1-.1 1.7.2 1.3.5zm123.4 3.5c1.6 2.6.9 3.1-3.5 2.5-3.8-.6-4.8-.3-7.5 1.9-5 4.3-4.2 5.2 4.4 4.7 6.5-.3 7.5-.2 7.5 1.3 0 1.3-.9 1.6-4.7 1.5-2.7-.1-6.3-.1-8-.1l-3.3.1v9.5c0 5.7-.4 9.5-1 9.5s-1-3.9-1-9.6v-9.6l-6 .4c-7 .4-7.2-.2-3.1-5.9 4.4-6.1 10.1-8.5 18.5-8 4.3.3 7.1 1 7.7 1.8zm210.1-.7c3.1 0 6 .5 6.5.9.4.5.4.7-.2.6-.5-.2-2 .2-3.3.9-3.3 1.9-15.2 2.8-15.2 1.2 0-.7-.7-1-1.6-.6-1 .4-1.3.2-.8-.7 1.9-3.4 2.9-3.9 5.8-3.2 1.7.4 5.7.8 8.8.9zM383 429c0 6-.4 10-1 10s-1-4-1-10 .4-10 1-10 1 4 1 10zm54.9-7.5c.6-.3 1.1-.1 1.1.4 0 .6 1 1.1 2.3 1.1 1.2 0-1.1 1.4-5.1 3-4 1.7-7.9 3-8.5 2.9-.9 0-.8-.2.1-.6.6-.2 1.2-1.1 1.2-1.9 0-1 .7-1.3 2.4-.8 1.4.3 3.6-.1 5.3-1.1 2.7-1.6 2.4-1.6-2.6 0-1.3.4-2.1.3-1.8-.2.3-.5-1-.7-2.9-.5-2.5.3-3.4.8-3 1.8.3.9-.1 1.4-1.2 1.4-1.2 0-1.3.3-.5.8.9.5.6 1.2-1 2.1-1.9 1.2-2 1.2-1.1 0 .6-.8 1-2.2.9-3.1-.4-2 3.3-4.9 8-6.5 2.4-.9 3.3-.8 4.2.4.6.8 1.6 1.2 2.2.8zm-234.5 1.3c.3.5 3.1 1.4 6.3 2.1 3.2.7 8.8 1.9 12.5 2.8 7.8 1.8 15.9 1.3 18.3-1 2-2.1-.8-1.8 28-2.3 13.2-.3 25.3-.5 26.8-.6 1.6 0 3.2.3 3.7.8s-1.2.8-4.1.6c-5-.4-15.8 1.1-21.5 2.9-2 .6-3.8 2.2-5 4.4-1.2 2.3-3.7 4.4-7.4 6.4-9.3 4.9-15 6.1-33.8 6.8-11.2.4-17.8 1-18.5 1.8-.7.6-2.1 2.4-3.2 3.8-4.7 6.4-15.5 1.2-19-9-1.8-5.1-1-6.7 5.6-12.5 3.3-2.8 5.9-5.7 5.9-6.4 0-1.5 4.5-1.9 5.4-.6zm169.4 9.4c-.3 8.9-.5 10.3-2 10.6-1.6.3-1.8-.7-1.8-10.2 0-10 .1-10.6 2-10.6 2 0 2.1.5 1.8 10.2zm369.1-3.5c3.5 7.3 3.4 9.3-.2 9.3-1.3 0-3.2.7-4.3 1.5-1 .8-2.7 1.5-3.6 1.5-3 0-2 2 1 2 2.7 0 13.1 1.7 16.1 2.6 1.1.4 1 .8-.4 2.4-1.7 1.9-1.7 2.1.1 4.2 1.6 1.8 1.7 2 .2 1.5-2.3-.8-4.7 2.1-2.7 3.4.8.5 2.1.9 3 .9.9 0 2.2.7 2.9 1.5 3.6 4.3-2.9 7.5-11.6 5.6-3.6-.8-5.9-.9-7.8-.1-3.9 1.4-9.1 1.2-10.5-.4-.9-1-.9-2.5 0-5.7.6-2.4 1.1-6.1 1-8.1-.1-3.8 2.2-8.8 4.2-8.8 1.8 0 3.6-3.5 3.7-7.2 0-4 3.4-12.8 4.9-12.8.5 0 2.3 3 4 6.7zm-28.6-4.2c8.1 0 14.7.3 14.7.7 0 .5-1.7.8-3.9.8-3.8 0-6.7 1.7-12 6.8-3.1 3.1-9.8 5.9-19.6 8.3-4.4 1-11.6 3.2-16 4.8-4.4 1.6-10.9 3.5-14.3 4.1-3.5.7-8 2.4-10 3.8-8.8 6-14.7 6.4-19.7 1.4-3.4-3.4-5.8-8.8-5.1-11.6.7-2.8 14.3-16.6 16.3-16.6.9 0 2.4-.6 3.2-1.4 1.4-1.3 2.7-1.2 10.1.4 4.7 1.1 12.1 2 16.6 2 7.1 0 8.5-.3 11.5-2.5 3-2.1 4-2.4 8.4-1.8 2.8.4 11.6.8 19.8.8zm-397.4 5.1c-2.8 3-5.3 3.1-7.3.2-.9-1.2-1.6-2.5-1.6-2.8 0-.3 2.5-.3 5.6-.2l5.6.4-2.3 2.4zm105.7-2.1c-.3 2.3-1.2 2.6-1.3.5-.1-1.1.2-2 .7-2 .4 0 .7.7.6 1.5zm72.8 2.3c1.4 1.3 2 1.4 2.3.4.6-1.6 2-1.5 2.6.2.4 1 .1 1.3-.9.9-.7-.3-1.4 0-1.4.7s-1.5.1-3.4-1.4c-1.9-1.4-4.2-2.6-5-2.6-.9 0-1.6-.4-1.6-1 0-1.3 4.9.6 7.4 2.8zm259.6-2.3c3.1 1.2 3.2 1.4 1 1.4-1.4 0-3.6-.6-5-1.4-3.1-1.8-.7-1.8 4 0zM458.1 429c.5 0 .9.7.9 1.5s.5 1.5 1.1 1.5c.5 0 .7-.5.4-1-.3-.6.4-1 1.7-1 1.8 0 2-.2.8-1-1.1-.7-1.1-1-.2-1 .7 0 1.7 1 2.2 2.2.5 1.3.9 1.7.9 1 .1-.6.6-1.2 1.2-1.2.5 0 .7.4.4 1-.3.5-.1 1 .4 1 .6 0 1.1-.5 1.1-1.1 0-.6.5-.7 1.3-.2 1.9 1.2 4.1 1.3 4.8.2.4-.8 1.2-.8 2.5-.1 1.1.6 4.3 2.2 7.2 3.7 10.5 5.2 20.1 15 25.4 26.1 3.7 7.7 4 8.7 2.8 10.9-.7 1.4-1 2.8-.7 3.2.4.3.7-.1.7-1 0-3.2 1.7-1.7 2.3 2 .8 5-.1 20.6-1.3 23.8-.5 1.4-2.1 3-3.4 3.5-1.6.6-2.8 2.1-3.4 4.1-.4 1.8-1.4 3.5-2.1 3.7-.9.3-1.1 0-.6-.8.6-1 .4-1.2-.8-.7-1.9.7-2.1-.1-.7-2.3.9-1.3 1-1.3 1 0 0 2.5 2.9-3.8 3.2-7.2.2-1.7.9-3.4 1.7-3.6 1-.3 1.2 0 .8 1.2-.4 1-.1 1.9.9 2.3 1.8.7 2 .5 2.8-3.2.5-2.4.4-2.6-.4-1.2-1.5 2.4-3 1.2-3-2.4 0-1.6-.4-2.9-1-2.9-.5 0-1 1.3-1 2.9 0 1.6-.8 3.5-1.7 4.2-1.5 1.2-1.6 1.2-.9-.6.5-1.1 1.1-3.1 1.3-4.5.3-1.4.7-3.2 1-4 1.3-3.4.1-9.5-2.4-12.4-1.9-2.3-2.4-3.7-2-6.3.6-3.8 0-4.3-1.2-1.1-.7 2-1 1.7-3.1-2.5-1.3-2.6-2.8-4.7-3.2-4.7-.5 0-.7-.8-.4-1.8.3-.9.1-2.4-.5-3.2-.8-1.1-.9-.9-.3 1 .6 2.2.5 2.4-1 1.1-.9-.8-1.5-2-1.2-2.7.3-.8 0-1.1-.8-.8-.7.3-1.8-.7-2.5-2.3-1-2.1-1.4-2.4-2.2-1.2-.5.8-.9.9-.9.2 0-.6-.9-1.5-2-1.8-2.2-.7-1.8-2.5.6-2.5.8 0 1.2.4.9 1-.3.5-.2 1 .4 1 .5 0 1.2-.4 1.6-.9.7-1.2-2.1-1.9-6-1.7-1.6.1-3.9-.2-5-.8-1.1-.6-3.9-1.3-6.2-1.6-4-.5-4.1-.6-2.7-2.5 1.4-1.9 1.6-1.9 2.5-.3.6 1 1.8 1.8 2.7 1.7 1.4 0 1.4-.2.2-.6-2-.8-3-2.4-3-5.1 0-2-.5-2.4-2.7-2.1-.5.1-.7.5-.5 1 .1.5-.3.9-.9.9-.6 0-.9-.9-.6-2 .5-2.1-1.6-4.5-3.3-3.5-.5.3-1 1.5-1 2.6 0 1.6-.5 1.9-1.9 1.4-2.1-.6-3.8 1-2.2 2 .6.3 1.9 1.9 3.1 3.5l2.1 2.9h-3.3c-1.8-.1-4.6.4-6.3 1.1-1.6.7-3.6 1.2-4.4 1.1-.8-.1-1 .2-.5 1s.3 1-.5.4c-.7-.4-2.2.1-3.4 1.3-1.2 1.1-3.2 2.5-4.5 3.1-1.2.7-2.1 1.5-1.9 1.9.4.7-2.6 4-4 4.4-.4.2-.8.9-1 1.7-.1.8-.6 1.7-1.1 2-3.2 2-6.2 13.5-6.3 23.9 0 4.7-.3 6.1-.9 4.7-.8-1.9-.9-1.9-.9.2-.1 1.2.5 2.8 1.3 3.6 1.1 1.1 1.2 1.7.4 2.5-.7.7-.8 1.5-.4 1.9.4.4 1 .2 1.4-.4.5-.7 1.1-.3 1.9 1.3.6 1.3.7 2.4.2 2.4-.5 0-.9-.5-.9-1.2 0-.6-.3-.9-.6-.5-.3.3 1 2.3 3 4.3 2 2.1 3.5 4.3 3.2 5-.5 1.2 2.6 6.1 4.9 7.6.5.4-.3.8-1.8.8-1.9 0-2.6-.4-2.1-1.2.4-.7.3-.8-.4-.4-1.5.9-1.5 3.3-.1 3.8.7.2.8 1.4.1 3.8-.6 1.9-1.1 2.7-1.1 1.7-.1-1.6-1.9-5.5-3.1-6.7-.3-.3-.6-1.2-.8-2-.2-.8-1-2-1.9-2.5-.9-.6-2.5-1.8-3.5-2.8-1.1-1-2.3-1.6-2.6-1.2-.4.3 0 1 .8 1.5s1.1 1.3.6 1.7c-.5.4-1.1.2-1.3-.5-.3-.6-1.1-1.2-1.9-1.2-.9 0-1.3-.4-1-.8.3-.5-.9-.6-2.5-.4-2.3.3-3.4-.1-4.5-1.7-.9-1.2-1.9-1.9-2.3-1.6-.5.2-.7-2.2-.6-5.5.2-3.3-.1-5.8-.5-5.5-.4.2-1.3-3.5-1.9-8.3-.7-4.8-1.5-9.2-1.6-9.9-.4-1.3 1-7 3.2-13 1.1-3 1.9-4 3-3.6 1.2.5 1.4.1.9-1.4-.4-1.2.1-2.7 1.3-3.9 1-1.1 2.2-3 2.5-4.2 1.7-5.1 19.2-18.3 26.3-19.7 2.3-.4 2.4-.4.8.4-1.4.7-1.5 1-.5 1 1.9.1 4.2-1.3 4.2-2.5-.1-.5.6-.8 1.5-.6 1 .2 1.2-.1.7-.9-.4-.7-.3-1 .3-.6.5.3 2.3.2 3.9-.3 1.6-.4 3.5-.6 4.2-.4.8.2 1.8.4 2.3.4zm11.6-.4c-.3.3-1.2.4-1.9.1-.8-.3-.5-.6.6-.6 1.1-.1 1.7.2 1.3.5zm-51.5 2.2c-1.6.5-1.5 1.7.3 3.6.9.9 1.1 1.7.5 2.1-.5.3-1 .1-1-.4 0-.6-.5-1.1-1.1-1.1-.6 0-.8 1-.5 2.2.3 1.3.3 1.7 0 1-.3-.6-1-1-1.5-.7-.5.4-.6 0-.3-.8.8-2.2-1.5-3.1-3.4-1.5-.9.8-2.4 1.8-3.2 2.2-.8.5.3-.8 2.5-2.7 3.8-3.4 4-3.4 4.5-1.4.7 2.6 1.7 1.1 1.5-2-.2-1.5.2-2 1.3-1.5 1.1.4 1.2.7.4 1zm86.4-.7c.3.6.1 1.6-.6 2.2-1 .9-1.2.8-.7-.5.4-1.2.2-1.5-.9-1.1-.7.3-1.4 0-1.4-.6 0-1.4 2.7-1.4 3.6 0zm-77.7.2c-.2.1-1.3.9-2.4 1.7-1.9 1.4-1.9 1.4-.6-.3.7-.9 1.8-1.7 2.4-1.7.6 0 .8.1.6.3zm-91.9 14c0 8.7-.8 11.7-3.2 11.7-.4 0-.8-4.7-.8-10.5 0-9.8.1-10.5 2-10.5s2 .7 2 9.3zm225.4-8.4c.3.4.3 1.1 0 1.4-.8.8-3.4-.3-3.4-1.4 0-1.1 2.7-1.2 3.4 0zm-47.4 2.5c.9 1.1.9 1.9 0 3.3-1 1.6-1 1.5-.5-.5.7-2.3-1-3.2-1.8-1-.2.8-.8.9-1.3.4s-.4-1.1.4-1.3c.6-.3 1-.9.6-1.4-.9-1.5 1.3-1 2.6.5zm45.3.6c.9 1.1 2.5 2 3.6 2 1.3 0 1.8.6 1.6 1.7-.2 1-.4 2.1-.4 2.5-.1.5-1.2.8-2.5.8s-3.2.3-4 .6c-1.5.6-1.5.8.1 2 2.1 1.6 3.7 1.8 2.8.4-.3-.6-.4-1-.1-1 1.5 0 1.4 2.1-.1 3.6-1.7 1.7-1.7 1.8 0 1.1 1.6-.6 5.6 1.8 4.6 2.7-.2.2-4.8.6-10.1.8-7.6.3-9.8.1-9.8-.9 0-.7.5-1.3 1-1.3.6 0 .9-1.2.8-2.8-.3-2.5 0-2.7 4-3 4.6-.3 4.9-.6 2.7-2.8-2.2-2.2-1.8-5 .7-6.8 2.8-2 3-2 5.1.4zm-165.3.9c0 1-1.5 1.6-7 2.6-15.7 2.9-27.7 11.2-34.1 23.7-7.3 14.4-7.5 28.5-.4 45.2.6 1.4.5 1.8-.6 1.4-1.9-.6-5.6-12-6.5-19.5-1.9-17.8 8.2-37.6 23.9-46.8 7.8-4.5 24.7-9 24.7-6.6zM85 442c12.4.3 23.6 1.1 25 1.7 1.4.6 3.6 2.2 4.9 3.6 2 2.2 2.1 2.5.5 2.1-1.7-.5-1.9.1-1.6 5.8l.4 6.3-3-4c-7.3-10.2-16-10.9-25.8-2.3-5.4 4.7-5.9 4.9-10.3 4.4-14-1.7-17.2-1.2-22.1 3.6l-4.3 4.2.5-5.7c.3-4 1.1-6.4 2.6-8 1.2-1.3 2.2-3.6 2.2-5.1 0-5.3 3.1-9.1 6.5-8 1.1.4 12.1 1 24.5 1.4zm510.5 1c.3.5.1 1-.4 1-.6 0-1.1-.5-1.1-1 0-.6.2-1 .4-1 .3 0 .8.4 1.1 1zm-84.7 2.5c-.3.3-.9-.2-1.2-1.2-.6-1.4-.5-1.5.5-.6.7.7 1 1.5.7 1.8zm86.4.7c-.8.8-.9.4-.5-1.3.4-1.3.8-1.8 1.1-1 .2.7-.1 1.8-.6 2.3zM390 444.8c0 .4-.4 1.2-1 1.8-.5.5-3.2 6.5-5.9 13.4-2.8 6.9-5.1 11.6-5.1 10.5l-.1-2-.9 2c-.8 1.8-.9 1.8-.9.2-.1-1.1-.5-1.5-1.3-1.1-.6.4-2.3.8-3.7 1-1.4.1-6.6 1.1-11.4 2.2l-8.9 2 .7-2.5c2.1-8.6 10.6-18.7 19.3-23.2 6.4-3.3 19.2-6.1 19.2-4.3zm88.3 6.1c5.9 2.9 13.9 10.8 16.6 16.5 8.7 17.9 1 40.1-16.8 48.5-4.7 2.2-7 2.6-14.1 2.6-7.2 0-9.3-.4-14.1-2.8-13.4-6.5-22.2-22.1-20.5-36.5 1.6-13.2 10.8-25 23.4-29.7 5.8-2.3 19.5-1.5 25.5 1.4zm-161.5-.3c7.8.8 7.1 2.4-1.1 2.4-7.4.1-14.2 1.4-34.7 6.9-18 4.8-74.9 19.4-99.3 25.5-9.2 2.3-17 3.9-17.3 3.5-.7-1.1 3.6-3.8 7.6-4.8 12.7-3.3 71.2-18.5 94.8-24.7 34.5-9.1 39-9.9 50-8.8zm207.4 6.6c.3 1.5.1 2.5-.4 2.2-.4-.3-.8-1.4-.8-2.5s-.7-3.2-1.6-4.7l-1.6-2.7 2 2.5c1.1 1.3 2.2 3.7 2.4 5.2zm-167.7-4.3c-.6.5-4.2 1.6-8.2 2.4-9.9 2.2-16.1 5.6-21.9 12-6.4 6.9-9.1 12.6-10.5 21.8-1.1 7.2-.3 14.4 2.6 23.6.4 1.3.3 2.3-.1 2.3-1.6 0-4.4-11.9-4.4-18.7.1-8.4 1.3-14 4.7-21 5.3-10.7 12.4-16.6 25.3-21 6.5-2.2 14.2-3.1 12.5-1.4zm-95 2.1c-1.6.4-4.3.8-6 .8-2.9-.1-2.9-.1.5-.8 1.9-.4 4.6-.7 6-.8 2.2 0 2.2.1-.5.8zm90.1 3.2c-2.7 3.9-5.9 10.1-7.1 14.2-1.3 4.4-2.9 5.1-15.9 7.6-6 1.1-7.8 2.1-5.8 3.3.4.2.1.2-.5.1-.7-.2-1.5.7-1.8 1.9-1.1 5.2-1.4 5.9-1 2.2.8-8.5 2.8-13.2 8.1-19.4 5.4-6.3 16.2-11.8 23.8-12 1.7-.1 1.7 0 .2 2.1zm-218.6.5c-.1 1.6-5 6.4-6 5.8-1.4-.9-1.2-5.2.3-5.8 1.9-.8 5.7-.8 5.7 0zm78.7 1.1c2.4 1.5-3.1 7.8-8 9.2-5.4 1.4-9.2.8-13.2-2.4-2.7-2.1-2.8-2.6-1.7-5 1.1-2.6 1.3-2.6 11.4-2.6 5.7 0 10.9.4 11.5.8zm369.8 2.5c16.2 1 20.6 1.5 22.8 3 3 1.9 3 1.9 2.1 4.1-.5 1.3-2.6 1.6-13 1.6-11.3 0-12.8.2-15.5 2.2-2.7 2-3.2 2.1-6.2.8-2-.9-7.8-1.5-15.2-1.8-6.6-.2-12.5-.8-13.2-1.4-2.1-1.7-1.5-4.6 1.5-7.9 2.7-3.1 2.8-3.1 9.7-2.4 3.9.4 16 1.2 27 1.8zm-256.5.2c0 .3-1.2 1.8-2.6 3.3-1.4 1.5-4.2 6.1-6.2 10.2s-4.1 7.8-4.6 8.2c-1.9 1.3-7.6.9-7.6-.5 0-2.2 5.5-10 10.1-14.3 6-5.6 10.9-8.6 10.9-6.9zm68.7 7.7c-.2 1.3-.4.3-.4-2.2s.2-3.5.4-2.3c.2 1.3.2 3.3 0 4.5zm135.7-.6c.3.8.2 1.2-.4.9-.6-.3-1-1-1-1.6 0-1.4.7-1.1 1.4.7zm115.6.3c13.9 2.2 25.4 2.4 31.8.6 7-2 11.2-1.7 24 1.6 8.1 2.1 9.2 2.6 9.2 4.6 0 1.2-.4 2.5-1 2.8-.5.3-1 2.9-1 5.6 0 3.6-.7 6.1-2.6 9-1.4 2.3-2.3 4.7-2 5.5.4 1-.3 1.4-2.7 1.4-1.8 0-4.1.2-5.2.4-1.1.2-1.4.1-.7-.1.6-.3 1.2-1.1 1.2-1.9 0-.8-.6-1.4-1.2-1.5-1 0-1-.2 0-.6 1.9-.8 1.4-2.5-.6-1.9-1 .4-3.8-.1-6.2-.9-3.5-1.2-5-1.3-7.2-.4-1.5.6-3.3.9-4 .6-.7-.3.2-.8 2-1.2 4.7-1.1 2.6-2.5-2.6-1.8-2.4.3-3.9.9-3.3 1.3.6.3-1 .6-3.6.6-3.7-.1-4.8.3-5.1 1.6-.3 1.5.4 1.8 3.7 1.8 2.3 0 4.1-.5 4.1-1 0-.6.7-1 1.5-1s1.5.4 1.5.9 2 1.2 4.5 1.5c2.5.4 4.5 1.1 4.5 1.5 0 1.4-4.2 1.8-9.5 1l-5-.8 5.3.3c2.8.2 5.2-.1 5.2-.5 0-.5-3.4-.9-7.6-.9-6.7 0-8 .3-10.6 2.5-2.2 1.8-3.7 2.3-5.6 1.9-1.9-.4-2.3-.3-1.4.4 1.1.7 1 1-.3 1.6-.9.3-2.4.6-3.3.6-1.5 0-1.5-.2-.2-1 .9-.6 1-1 .3-1-.6 0-1.9.7-2.8 1.6-1.3 1.4-2.8 1.5-8.3 1-6.8-.7-18.2-3.4-14.9-3.5.9-.1 1.7-.6 1.7-1.2 0-.5-.4-.8-.8-.5-.5.3-1.6-.4-2.5-1.5-2.1-2.4-2.1-2.9-.2-2.9.8 0 1.5.4 1.5 1 0 .5.4 1 .9 1 .6 0 .9-.8.8-1.8-.1-1.8-3.2-2.3-5.6-.8-2.4 1.5-6.4-6.4-4.5-8.9 7.6-10.3 13.2-16.9 14.9-17.5 2.1-.8 2.5-.8 13.5.9zm97.6-.4c11.5 0 14.3.3 15.6 1.6 1.5 1.5.8 1.7-9.1 2.7-6 .6-14.7 2.1-19.4 3.3-9.9 2.5-13.7 2.1-13.7-1.5 0-1.3 1-3.6 2.2-5.1 1.9-2.5 2.5-2.7 6.2-1.9 2.3.5 10.4.8 18.2.9zm-352.9 2.7c-.3.8-.6.5-.6-.6-.1-1.1.2-1.7.5-1.3.3.3.4 1.2.1 1.9zm-107.2 55.3c0 52.9-.1 53-2.3 57.2-3.2 6.1-4.8 6.7-17.6 6-12.5-.6-66.4-5.4-71.3-6.3-4.8-.9-4.3-3.3.5-2.8 6.3.7 45.8 4.2 62.4 5.5 18.1 1.5 20.5 1 23-4.1 1.6-3.2 1.8-8 1.8-56.3 0-49.8.1-52.8 1.8-52.5 1.6.3 1.7 3.6 1.7 53.3zm220.2-51.3c-.3.8-.6.5-.6-.6-.1-1.1.2-1.7.5-1.3.3.3.4 1.2.1 1.9zm-106.5 2c-.8.8-.9.4-.5-1.3.4-1.3.8-1.8 1.1-1 .2.7-.1 1.8-.6 2.3zm-120.8-.7c-.3.8-2.2 1.9-4.3 2.4-4.6 1.2-32.5 6.9-37.1 7.5-1.9.3-10.2 1.9-18.3 3.6-8.1 1.7-15.3 2.8-15.9 2.4-.5-.4-1.4-.1-1.8.6-.5.8-1.8 1-4.1.4l-3.4-.8 4-.7c4.5-.8 25.9-4.9 29-5.5 1.1-.2 7.1-1.5 13.4-2.9 6.3-1.4 12.3-2.2 13.4-1.9 1.2.4 1.7.2 1.3-.4-.7-1.2 10.5-3.5 12.9-2.6 1.3.5 1.6.4 1.1-.5-.6-.9.1-1.1 3.1-.6 2.6.5 3.4.3 2.4-.3-1.1-.8-.9-1.1 1-1.5 1.3-.2 2.7-.5 3.1-.6.4 0 .5.6.2 1.4zm80.6-1.1c0 .2-1.3.6-3 .8-1.6.3-3 .1-3-.4 0-.4 1.4-.8 3-.8 1.7 0 3 .2 3 .4zm33.4 5.3c-.9 7.8-1.5 8-1.2.5.2-3.4.7-6.2 1.1-6.2.5 0 .5 2.6.1 5.7zm140.3-1.5c-.3.7-.5.2-.5-1.2s.2-1.9.5-1.3c.2.7.2 1.9 0 2.5zm-26 4c-.2 1.3-.4.3-.4-2.2s.2-3.5.4-2.3c.2 1.3.2 3.3 0 4.5zm56.8-4.7c-3.3.7-5.1 1.3-4 1.4 1.1.1 3.1.4 4.5.7 2 .4 2.2.3 1-.5-1.2-.8-.8-1.1 1.9-1.1 3.3 0 3.3.1 1.7 1.9-1.5 1.6-1.5 1.9-.1 2.4.8.4 2.1.4 2.9.1.7-.3 1.6.1 1.9.9 1 2.7-9.4 5.8-20 6l-7.8.2-.7-4.5c-1.2-8.5-1.3-8.4 14.7-8.6l10-.1-6 1.2zm-449.1 1.8c2.9 2.1 1.6 5-2.9 6.3-2.2.7-9.2 1.3-15.6 1.3-8.4.1-13.8.7-19.5 2.2-4.3 1.2-11 2.2-14.7 2.3-6.1.1-7.1-.2-8.8-2.3-2.1-2.6-2.5-8.1-.7-9.9 1.8-1.8 59.7-1.7 62.2.1zm222.3.3c-.3.3-1.2.4-1.9.1-.8-.3-.5-.6.6-.6 1.1-.1 1.7.2 1.3.5zm276.7 1c2.4 2.3 2 3.3-1.9 5-4 1.6-14.1 1.9-15 .3-.8-1.2 2.2-4.8 5-6 3.5-1.4 10.2-1 11.9.7zm-283.4 1c0 .8-.5 1.2-1 .9-.6-.4-.8-1.1-.5-1.6.9-1.4 1.5-1.1 1.5.7zm22.7 1.6c-.3.7-.5.2-.5-1.2s.2-1.9.5-1.3c.2.7.2 1.9 0 2.5zm41 .5c-.3 1-.5.4-.5-1.2 0-1.7.2-2.4.5-1.8.2.7.2 2.1 0 3zm341.1-2.3c1.2.4 2 1.1 1.7 1.6-1.1 1.7-11 3.9-15.2 3.3-3.6-.5-4.3-.9-4.3-2.8 0-1.2.2-2.4.4-2.6.7-.7 15-.3 17.4.5zM404.6 493c.4 3.6.3 6.2-.1 5.8-.4-.4-1.1-3.7-1.4-7.3-.4-3.6-.3-6.1.1-5.7.4.4 1.1 3.7 1.4 7.2zm126.1-5.8c-.3.8-.6.5-.6-.6-.1-1.1.2-1.7.5-1.3.3.3.4 1.2.1 1.9zm-181 6c-.3.7-.5.2-.5-1.2s.2-1.9.5-1.3c.2.7.2 1.9 0 2.5zm40-.2c-.4 1.7-.2 3 .3 3 .6 0 1-1.2 1-2.6 0-2.3.2-2.5 1.6-1.3 1 .8 1.2 1.5.5 1.7-.6.2-1.6 2.2-2.3 4.5l-1.1 4.2-.7-3.8c-.7-3.7-.3-8.7.7-8.7.3 0 .3 1.3 0 3zm354.3-.1c6.9.5 13.3 1.2 14.3 1.6 1.7.7 3.4 5.1 2.4 6.1-1.2 1.3-9.1 2.4-24.2 3.4-17.4 1.3-16.5.9-22 8.4-1.5 2-2.5 2.6-3.8 2-1.5-.5-1.7-1.3-1.2-3.8.4-1.7.7-6 .6-9.7-.2-6.4-.1-6.5 3.1-8.2 2.6-1.3 4.9-1.6 10.8-1.2 4.1.3 13.1.9 20 1.4zm-241.3 1.3c-.3.8-.6.5-.6-.6-.1-1.1.2-1.7.5-1.3.3.3.4 1.2.1 1.9zm-452.2 2.3c2.4 1 3.3 1.2 10.6 1.4 5.8.1 7.5 1.4 6.3 4.5-1.1 2.8-15.7 4.7-20.8 2.7-1-.4-2.4-1.8-3.1-3.1-1.1-2-.9-2.6 1.3-5.2 1.4-1.5 2.8-2.5 3.1-2 .3.5 1.5 1.2 2.6 1.7zm221.9-.3c1.3 1.9 1.6 6.1 1.6 26 0 24.9-.5 28.2-4.4 29.2-4.9 1.3-11.6.6-13.6-1.4-1.9-1.9-2-3.3-2-26.3 0-17.9.3-24.8 1.3-26 1.5-2.1 5.8-3.5 11.4-3.6 3.3-.1 4.5.4 5.7 2.1zm396.1-1.2c.3.5-.1 1-.9 1-.9 0-1.6-.5-1.6-1 0-.6.4-1 .9-1 .6 0 1.3.4 1.6 1zm-479.5.6c0 .1-1.4.7-3 1.3-1.7.5-2.8.6-2.5.1.3-.4 0-1-.6-1.2-.7-.2.4-.4 2.5-.4 2 0 3.6.1 3.6.2zm500 .4c1.2.8.9 1-1.2 1-1.5 0-3-.5-3.3-1-.8-1.3 2.5-1.3 4.5 0zm-510.5 2c-.3.4-2.9 1.1-5.8 1.5-2.8.4-6.7 1-8.4 1.5-1.8.5-3.5.5-3.8 0-.7-1.1 6.9-2.8 10.1-2.2 1.7.3 2.5.1 2.1-.6-.5-.6.6-1 2.8-1 1.9 0 3.3.4 3 .8zm146.2-.4c-.3.3-1.2.4-1.9.1-.8-.3-.5-.6.6-.6 1.1-.1 1.7.2 1.3.5zm-78.7 2.3c1.3 2.5 1.4 46.6 0 49-2.2 4.2-15.2 3.3-16.4-1.2-.8-2.9-.8-40.6 0-44.6.7-3.5 3.7-4.9 11.1-5 3.2-.1 4.5.4 5.3 1.8zm377.5.2c1.1 1.7-1.3 1.7-3-.1-1.6-1.8-1.6-1.8.4-1.3 1.2.3 2.4.9 2.6 1.4zm-229.8 1.1c-.3.8-.6.5-.6-.6-.1-1.1.2-1.7.5-1.3.3.3.4 1.2.1 1.9zm273-1.6c-.3.3-1.2.4-1.9.1-.8-.3-.5-.6.6-.6 1.1-.1 1.7.2 1.3.5zm25.6.1c-.7.2-2.1.2-3 0-1-.3-.4-.5 1.2-.5 1.7 0 2.4.2 1.8.5zm-469.9 2.9c1.4 1.3 1.6 4.8 1.6 23 0 12.9-.4 22.3-1 23.5-.9 1.5-2.2 1.9-6.5 1.9-8.6 0-8.5.3-8.5-24.3 0-11.7.4-21.8.8-22.5.5-.7 2.8-1.6 5.3-2.1 6.4-1.3 6.6-1.3 8.3.5zm277.9-.1c-.3.9-.8 1.4-1 1.1-.3-.3-.2-.9.2-1.5.9-1.6 1.5-1.3.8.4zm4.2-.5c.3.6-.1 1.3-.9 1.6-.9.3-1.6 1.5-1.6 2.5s-.5 1.9-1.1 1.9c-.7 0-.8-.7-.4-1.8.4-.9 1-2.5 1.2-3.5.6-1.9 1.9-2.2 2.8-.7zM201 505c1.2.8 1.6 4.6 1.8 21.8.3 23.5.2 24.2-6.4 24.2-7.5 0-7.4.4-7.4-23 0-22.3-.1-21.7 5.4-23.1 4.3-1 4.9-1 6.6.1zm297.4 1.2c-.4.7-1.2 2-1.9 2.8-3.2 4.1-2.6 4.7 4.3 4.7h6.7l-6-.7-6-.7 6.3-.1c5.2-.2 6.2-.5 6.2-2 0-2.1 1.7-4.9 2.5-4 .3.3-.2 2.4-1.1 4.7l-1.6 4.1h-9c-8.2 0-8.8-.1-7.4-1.6.9-.9 2.8-3.1 4.2-5 2.6-3.3 4.2-4.6 2.8-2.2zm116.4 1.1c.2 1-.3 2.9-1.2 4.2-2.2 3.3-8.7 4.1-19.3 2.5-6.8-1.1-8.8-1.1-10.8 0-1.3.7-4.3 1.2-6.7 1.1-2.4-.1-10.9-.2-19-.4-13.5-.2-14.9-.4-16.9-2.3-1.4-1.5-1.9-2.8-1.4-4.3.6-2 1.1-2.1 35.3-2.4 19.1-.1 35.8-.3 37.2-.2 1.6 0 2.6.7 2.8 1.8zm-431 20.6c.2 14.2-.1 20.8-.9 21.7-1.3 1.6-7.6 1.8-9.9.4-1.2-.8-1.6-4.4-1.8-20-.2-13.2 0-19.6.8-20.5 1.3-1.6 4.2-2.3 8.5-2.1l3 .1.3 20.4zM500 509.4c0 .3-.4.8-1 1.1-.5.3-1 .1-1-.4 0-.6.5-1.1 1-1.1.6 0 1 .2 1 .4zM165 513c0 2-.5 3-1.5 3s-1.5-1-1.5-3 .5-3 1.5-3 1.5 1 1.5 3zm272.6 1.7c-.7.7-2.6-.7-2.6-1.9 0-.6.6-.6 1.5.2.9.7 1.3 1.5 1.1 1.7zM633 514c2.5.6 6.3 1.5 8.5 2.1 7.5 2.1 7 1.8 5.4 3.4-1.6 1.7-10.8 3.6-18.4 3.9-2.8.1-5.6.6-6.3 1-1.1.6-2.6.1-6.1-2.2-1.7-1.2.2-5.2 2.4-5.2.8 0 1.5-.6 1.5-1.4 0-2.6 5.2-3.3 13-1.6zm-209.7 1.5c-.3.9-.8 1.4-1 1.1-.3-.3-.2-.9.2-1.5.9-1.6 1.5-1.3.8.4zm17.7 1c.5-.3 1.1-.1 1.4.4.4.5-.2.8-1.1.7-.9-.2-1.8-.8-1.9-1.5-.1-.6 0-.7.3-.1.2.5.9.8 1.3.5zm-17.1 11.6c3.9 6.1 6.9 11.4 6.6 11.9-1.3 2.1-4.6-.9-9.5-8.8-3-4.8-5.9-9-6.5-9.4-.5-.4-11.5-.8-24.3-.8h-23.3l3.3 5.7c1.8 3.2 5.8 10.5 8.8 16.3l5.5 10.5 85.8.3c47.1.1 85.7.4 85.7.6 0 .3-.3 1.1-.6 2-.6 1.4-9.1 1.6-85.9 1.6-79.8 0-85.4-.1-87.3-1.8-1.2-.9-6.2-9.2-11.2-18.5-8.4-15.1-9.4-16.7-11.8-16.7-1.5 0-8.3.5-15.2 1-6.9.5-20.1 1.4-29.5 1.9-9.3.6-19.4 1.4-22.2 1.7-4.8.5-5.3.3-5.3-1.4 0-1.8 1.3-2 15.3-3.2 8.3-.6 21.7-1.8 29.7-2.5s30.3-1.3 49.6-1.4l35.1-.1 7.2 11.1zm69.7-6.9c2.3 2.4 6.3 7.2 8.9 10.8 2.7 3.6 5.4 6.8 5.9 7.2 1.6 1.1.2 1.8-2.3 1.1-2.1-.5-19.1-20.6-19.1-22.5 0-2 2.9-.5 6.6 3.4zm-48.1-1.2c.3.5-.3 1-1.3 1-1.1 0-2.5.7-3.2 1.5-1.5 1.8-3.6.5-2.7-1.7.6-1.6 6.3-2.3 7.2-.8zm256.1.9c2.9 2.3 1.7 3.5-2 2.1-2.6-.9-3.2-2.1-1.9-3.3.9-1 1.2-.9 3.9 1.2zm-274.2.7c.3.8.2 1.2-.4.9-.6-.3-1-1-1-1.6 0-1.4.7-1.1 1.4.7zm28.3 1.4c3.1.5 6.1 1.5 6.6 2.2.7 1 1 1 1.4 0 .2-.6.9-1.2 1.4-1.2.6 0 .7.4.4 1-.3.6.6 1.1 2.2 1.1 1.5.1 3.5.2 4.3.3 2.1.2 6.3 2.6 5.6 3.3-.3.3-1.2.1-1.9-.5-1.4-1.2-8-1.7-15.7-1.2-2.5.1-3.7.4-2.7.7.9.2 1.7 1 1.7 1.8 0 2.4-3.2 3.9-8.3 3.9-4.8.1-5.2-.1-5.1-2.2.1-2.6-1.2-2.8-3.6-.7-1.5 1.4-1.8 1.4-3 0-.9-1.1-1-1.9-.3-2.6.8-.8 1.3-.8 1.7 0 .9 1.3 3.6.2 5.9-2.4.9-1.1 1.7-1.6 1.6-1-.4 3 .3 4.5 2.1 4.5 2.6 0 2.6-1.7-.1-2.5-3.8-1.2.1-2.5 6.1-2 3.5.3 5 .1 4-.5-2.1-1.2-11.7-1.6-15.9-.6-2.3.6-3.1.5-2.7-.3.8-1.2 6.7-3 7.8-2.4.4.2 3.3.8 6.5 1.3zm76.8-.4c.9.9 3.2 4.2 5.2 7.3 1.9 3.1 4.4 6.6 5.6 7.8 2.3 2.5 1.5 4.3-1.1 2.7-.9-.6-4.2-4.6-7.2-9l-5.6-7.9-9.2-.3c-12.2-.4-11.1-2.2 1.3-2.2 7.3 0 9.7.4 11 1.6zm-51.5 1.6c0 1-2.9.9-5.5-.2-1.5-.6-1.1-.8 1.7-.7 2.1.1 3.8.5 3.8.9zm-346.3 3.5c1.1 2.1 4 5.1 6.4 6.8l4.4 3-4.3.3c-3 .2-4.7-.2-5.9-1.4-2.2-2.2-9.2-5.3-11.9-5.4-1.2 0-3.9.7-6 1.6-2.2.9-7.6 2-12.2 2.5-6.8.6-9 1.2-11.8 3.4-3.2 2.5-4.2 2.7-9 2.1-4.3-.5-6-.2-8.6 1.4-1.9 1.1-5 2-7.3 2-3.5 0-4.5-.6-8.4-5-2.5-2.8-4.8-5-5.3-5-.4 0-3.3 1.2-6.5 2.7-3.7 1.7-7.6 2.7-10.8 2.7l-5 .1-.3-3.6c-.3-3.3 0-3.7 4-5.4 2.4-1 5.2-2.7 6.3-3.6 2.7-2.4 5.5-2.5 51.2-2.7l39.1-.2 1.9 3.7zm350.3-1.5c0 .6-.3.8-.7.5-.3-.4-1.1.1-1.8 1-1.1 1.5-1.4 1.5-3.6-.2-2.4-1.7-2.4-1.7-.2-1.2 1.3.3 2.6.1 2.9-.4.8-1.3 3.4-1.1 3.4.3zm-45.1.2c-.2.2-1.7.6-3.4 1-2.2.5-2.6.4-1.5-.4 1.4-.9 5.9-1.5 4.9-.6zm132.6 6.1c-2.5 3.1-4.5 6.1-4.5 6.8 0 .9-2 1.2-7.2.9-4-.2-7.8-.5-8.4-.7-.6-.2-2.9-3.1-5.2-6.4l-4-6.1H577l-4.5 5.5zm195.4-2.7c.7 1.6 2.6 3.7 4.4 4.7 8 4.7 7.4 9-1.5 10.9-1.9.4-3 .1-4-1.3-1.8-2.5-8.7-7.1-10.7-7.1-.9 0-4 1.6-7 3.6-5.7 3.9-15.5 6.1-21.9 4.9-1.9-.4-3.9-.1-4.7.5-1 .8-1.9.8-3.4 0-1.2-.6-2.1-1.3-2.1-1.6 0-.3.4-.3.9 0s1.4-.1 2.1-.9c1.5-1.8.3-1.9-3.7-.4l-2.8 1.1 2.8 2.4c3.2 2.8 2.4 3.2-1.3.7-4.4-3-5.2-5.9-2.5-8.7 2.4-2.4 1.8-2.7-4-2-5.9.7-6.8-.2-4.5-4.6 2.4-4.6 4.8-4.9 34.6-5h28.2l1.1 2.8zm-279.1 1.7c-.3.3-.9-.2-1.2-1.2-.6-1.4-.5-1.5.5-.6.7.7 1 1.5.7 1.8zm115.6-1.9c.9.3 2.3 3 3.1 5.9 1.1 3.7 2.7 6.2 5.5 8.8 2.2 2 4 4.1 4 4.7 0 1.8-6.3 7-9.5 7.9l-3 .7-1.1-6.3c-1.2-6.8-2.7-9.4-4.5-7.6-.5.5-1.6 7-2.4 14.3-.8 7.3-1.6 13.5-2 13.8-.3.3-3.4-.9-6.9-2.6-4-2-7.9-3.2-10.3-3.1h-3.8l4 3.2c2.2 1.7 6.8 6 10.3 9.4 4.8 4.8 6.2 6.9 6.2 9.2 0 1.6-.4 3.2-.9 3.5-.4.3-2.9-.8-5.5-2.5-4.7-3.2-9.8-8.8-13.2-14.7-1.9-3.3-3.4-4.2-3.4-1.9 0 1.5-3.7 5.7-5 5.7-1.8 0-6-7.5-6-10.6 0-4.2 5-10.8 10-13.4 3.1-1.6 4-2.6 4-4.6 0-5.7 4.8-13.2 10.2-16 6-3.1 16.7-5.1 20.2-3.8zM468 530.9c0 .5-.7 1.1-1.5 1.5-1.5.5-2-.5-.8-1.7.9-1 2.3-.9 2.3.2zm15.5.2c-.4.6-1.3.8-2.1.5-.8-.3-1.4-.1-1.4.4 0 .6-.7 1-1.5 1s-1.5.4-1.5 1c0 .5-.6 1-1.2 1-2-.1 4.5-5 6.5-5 1 0 1.5.5 1.2 1.1zm-15.1 2.5c2.3-.4 3.6-.3 3.6.4 0 .5-1.2 1-2.7 1-2.2 0-2.5.2-1.3 1 1.2.7.8 1-1.5 1-2.5 0-3-.4-3.2-2.7-.1-1.6.2-2.1.7-1.3.5.9 1.9 1.1 4.4.6zm18.6-1.2c0 .3-.4.8-1 1.1-.5.3-1 .1-1-.4 0-.6.5-1.1 1-1.1.6 0 1 .2 1 .4zm-183 2c0 1.6-3 2.6-8.2 2.6-5.6 0-5.1-2.8.5-3.3 2.3-.2 5-.4 6-.5.9-.1 1.7.4 1.7 1.2zm135.5-.4c.3.6-.1.7-.9.4-1.8-.7-2.1-1.4-.7-1.4.6 0 1.3.4 1.6 1zm44 0c.3.5.2 1-.4 1-.5 0-1.3-.5-1.6-1-.3-.6-.2-1 .4-1 .5 0 1.3.4 1.6 1zm-37.1 2.5c2.5 1.9 1.6 1.9-2 0-1.6-.8-2.2-1.5-1.4-1.5.8.1 2.4.7 3.4 1.5zm9.6-.5c0 .5-.2 1-.4 1-.3 0-.8-.5-1.1-1-.3-.6-.1-1 .4-1 .6 0 1.1.4 1.1 1zm24.7-.4c-.3.3-1.2.4-1.9.1-.8-.3-.5-.6.6-.6 1.1-.1 1.7.2 1.3.5zm-4.2 1.4c-.3.5-1.6 1-2.8.9-2.1 0-2.1-.1-.2-.9 2.8-1.2 3.7-1.2 3 0zm-10.2 1.7c-2.9.2-7.8.2-11 0s-.8-.3 5.2-.3c6.1 0 8.7.1 5.8.3zM299 570c0 16.8-.4 30-.9 30-.8 0-2.2-57.7-1.4-59.3 1.8-3.5 2.3 2.6 2.3 29.3zm259-23c0 2-.7 2-75.7 2-41.7 0-76.9.3-78.3.5-1.4.3-.7-.2 1.5-1 2.2-.9 6.3-2 9-2.4 2.8-.5 36.2-.9 74.3-1 68.6-.1 69.2-.1 69.2 1.9zm168 1.5c-1.4.8-3.4 1.4-4.5 1.4-1.8.1-1.7-.1.5-1.3 1.4-.8 3.4-1.4 4.5-1.5 1.7 0 1.7.2-.5 1.4zm-84.7 9.3c2 5.5 2.3 26.2.7 50.3-1 15.6-1.5 17.9-3.6 17.9-2.7 0-4.3-4.2-3.4-9 1.6-7.8 1.2-44.9-.5-53.7-1.5-7.6-1.5-7.8.5-9.5 2.9-2.4 4.4-1.5 6.3 4zm-317.4-2.7c3.4 3.7 5.3 10.8 5.8 21.9.8 16.2-2.9 26-9.7 26-6.1 0-10.5-10.4-10.4-25 0-18.5 7.4-30.3 14.3-22.9zm31.4.9c5.5 6.5 8 23.3 5.3 35.9-2.1 9.9-4.3 13.5-8.5 13.9-4.4.4-7.1-1.6-10.1-7.4-3.6-7.1-4.1-23.4-1.1-33.2 3.7-12.2 9-15.6 14.4-9.2zm362.2.1c6.7 1.8 12.3 2.2 35 2.8 14.9.4 27.9 1.1 29 1.6 7.2 3.2 11.1 8.7 11.9 16.5.3 3 .3 4.6 0 3.5-.3-1.1-1.1-2.5-1.6-3-.7-.7-.8-.3-.3 1.2.6 2.3-.8 3.2-2 1.3-.4-.6-1.1-.7-1.7-.4-2.1 1.3-8.1 2.2-9.7 1.5-.9-.5-3.1-1.6-5-2.6-2.2-1.2-5.3-1.7-9-1.6-3.3 0-6.6-.5-8.1-1.3-11.1-6.4-15.5-6.8-22.9-2.2-7.6 4.8-19.5 5.2-27.6.9-4.4-2.4-9.5-3.5-9.5-2.2 0 .5.5.9 1 .9.6 0 1 1 1 2.2 0 2.1-.1 2.1-1.5-.5-.8-1.6-1.4-3.1-1.3-3.5.1-.4-.4-2.7-1.1-5.1-1.2-4.3-1.2-4.5 1.6-6.7 4-3.3 8.4-5.4 11.3-5.4 1.4 0 6.1 1 10.5 2.1zM131 557.2c1.1 1.2 2 2.7 2 3.4 0 .7.6 1.4 1.3 1.6.9.4 1.3 8.2 1.5 33.8.3 33.5.2 34.9-3 35-.5 0-.9-8.9-.9-19.8-.1-17.4-1.3-39.2-1.7-32-.1 1.6-.4 2.8-.6 2.8-.3 0-1.8-1.2-3.5-2.8-5-4.6-7.6-14.6-4.9-19.5 2.6-5 6.5-6 9.8-2.5zm248.3 3.4c-.1.5-1.4 3.8-2.9 7.3-2.4 5.9-2.6 7.3-2.2 17.5.3 8.2.9 12 2.2 14.6 4.4 8.5 8.7 10.1 13 5 3.2-3.8 4.6-8.6 5.3-17.5.5-7.5-1.6-19.2-4.3-23.2-1.3-2-1.3-2.3.1-2.3 2.4 0 4.3 3.9 6 12.6 2.1 10.3.9 21.1-3.3 29.4-4.9 10-11.5 9.6-17.1-1-3-5.7-3.5-7.5-3.9-16-.2-5.2 0-12 .6-15 1.4-7.3 4-13.3 5.5-12.7.7.3 1.1.8 1 1.3zm304.5 0c2.2 1.5 3 4.4 1.2 4.4-1.9 0-6.3 5.5-14.8 18.4l-8.7 13.1-.6-4.3c-.6-4.5-2.1-6.8-3.7-5.8-.5.3-1.1 5-1.4 10.3-.3 5.4-1.1 10.9-1.8 12.3l-1.3 2.4-1-2.4c-.5-1.4-.8-6.3-.7-11 .1-8.3.2-8.6 3.8-12.5 2-2.2 4.8-6.2 6.2-8.9 3-6 9.5-12.7 15.2-15.5 5.1-2.5 4.8-2.5 7.6-.5zm-295.9 6.3c2.8 6.5 2.7 7.7-.5 5.2-1.5-1.2-4.1-2.1-6-2.1-1.9 0-3.4-.2-3.4-.5s1-2.1 2.3-4c3.1-4.8 5-4.5 7.6 1.4zm27.9-1.7c1.1 1.8 6.1 11.6 11.2 21.8 5.1 10.2 10.4 20 11.8 21.9 4.7 6.3 2.6 6.1 74.3 6.1 57.7 0 65-.2 64.5-1.5-.3-.8-7.5-12.3-16.1-25.5-8.5-13.2-15.5-24.5-15.5-25 0-1.7 1.5-1.1 3.7 1.2 1.1 1.3 8 11.5 15.3 22.8 7.3 11.3 14.8 22.9 16.7 25.8 1.9 2.8 3.1 5.7 2.8 6.2-.9 1.5-136.1 1.4-140.6-.1-6.4-2.2-9.4-6.4-21.4-30.3-6.4-12.7-12.1-23.5-12.6-24.1-1.5-1.6-1-2.5 1.5-2.5 1.7 0 3.1 1 4.4 3.2zm-302.4 0c.3 1.3.6 4.2.6 6.4 0 3.4-.4 4.3-2.1 4.7-1.2.3-1.8 1-1.4 1.6.3.6-1 .2-3-1-3.8-2.3-6.9-2.2-14 .3-3 1.1-6.3 1.3-13.5.7-5.2-.4-10.5-1-11.8-1.4-1.8-.6-2.1-.4-1.6 1 .9 2.2-3.1 5.4-6.7 5.5-1.5 0-4.6-.9-7-2-5.3-2.4-12.6-2.5-19.4-.5-2.7.9-5.9 1.3-7.1 1.1-2.9-.8-6.4-4-6.4-6.1 0-2.7 4.7-8.3 8.8-10.5 3.5-1.8 6-1.9 43.8-2h40.2l.6 2.2zm220.3 2.5c-.3 1-.5.4-.5-1.2 0-1.7.2-2.4.5-1.8.2.7.2 2.1 0 3zm69.2 1.5c2 10.1 2.3 16.4 1.2 24.2-1.1 7.9-4.2 16.6-5.9 16.6-.5 0-.1-1.7.9-3.8 3.7-7.6 4.8-22.1 2.5-35-1.4-8.2-.3-10 1.3-2zM208 566.6c3.6.3 11 .8 16.5 1 22 .8 27.5.9 38.8 1.2 9.8.2 11.7.4 11.7 1.8 0 1.3-1.6 1.5-13.2.9-17.9-.8-47-2.5-53.8-3-3-.2-12.1-.7-20.3-1.1-8.1-.3-15-1-15.3-1.5-.5-.9 23.3-.4 35.6.7zm158.7 16.7c-.2 2.3-.3.1-.3-4.8 0-5 .1-6.8.3-4.2.2 2.6.2 6.7 0 9zm164.9-9.1c1.5 2.4 5.8 9 9.7 14.8 3.8 5.7 7.1 11 7.4 11.7.7 1.9-90 1.9-91.5 0-1.2-1.5-15.2-29.1-15.2-30 0-.4 19.6-.7 43.5-.7H529l2.6 4.2zm-196.9 6c-.2 1.8-.4.6-.4-2.7 0-3.3.2-4.8.4-3.3s.2 4.2 0 6zm410.6-7.5c-.7.2-1.9.2-2.5 0-.7-.3-.2-.5 1.2-.5s1.9.2 1.3.5zm-597.4 6.6-6.4 6.4-.3-5c-.5-7.4-.1-7.7 6.9-7.7h6.1l-6.3 6.3zm235.5-1.1c2.1 2.9 2 10.1 0 14-1.4 2.8-1.7 2.9-3.2 1.5-1.7-1.8-2.8-11.1-1.8-15.2.8-3.1 3-3.2 5-.3zm-205.7 3.4c2.9 3.1 4.9 6.9 5.7 11 .7 3 .9 3.1 7.3 3.7 3.6.4 7.9 1.5 9.6 2.5 4.6 2.6 9.9 10.5 10.4 15.6.5 3.8.2 4.5-2.7 6.9-1.7 1.5-4.3 2.7-5.7 2.7-2.4 0-2.5-.2-1.8-3.3.3-1.7.9-4.9 1.2-7l.6-3.7-3.9-.2c-6.5-.3-10.6.3-13.5 1.8-4.4 2.2-4.9 1.8-5-4.4 0-8.5-1.2-13.6-3-14-1.9-.4-2.8 2.4-3 8.8 0 2.5-.4 5.3-.8 6.3-.6 1.7-.8 1.7-2 .3-1.7-2-8-4.1-9.2-2.9-.5.5.9 2.4 3.4 4.5 4.6 3.8 7.9 9.2 7 11.5-.3.9-2.4 1.3-6.4 1.3-6.9 0-9-1.7-10.9-8.6-.7-2.5-3-7.4-5.1-10.9-2.2-3.5-3.9-7-3.9-7.8 0-2.5 5.7-9.4 10.4-12.6 8-5.6 17-6.2 21.3-1.5zm613.4.4c1 .6 1.9 1.6 1.9 2.2 0 .7-.7.5-1.7-.4s-2.5-1.8-3.3-2.1c-1-.4-1.1-.6-.2-.6.7-.1 2.2.4 3.3.9zm-2.1 2c0 .5-.7 1-1.6 1-.8 0-1.2-.5-.9-1 .3-.6 1-1 1.6-1 .5 0 .9.4.9 1zm-455.3 5.7c-.3 1-.5.4-.5-1.2 0-1.7.2-2.4.5-1.8.2.7.2 2.1 0 3zM698 587c0 .5-.2 1-.4 1-.3 0-.8-.5-1.1-1-.3-.6-.1-1 .4-1 .6 0 1.1.4 1.1 1zm92.5.9c-.3.6-1.1 1.1-1.7 1.1-.6 0-.6-.6.2-1.5 1.4-1.7 2.6-1.3 1.5.4zm-425 5.8c-.8 4.6-4.3 12.8-5.1 12.1-.3-.4.4-2.4 1.4-4.5 1.1-2.1 2.3-5.6 2.7-7.6.4-2 .9-3.7 1.2-3.7.3 0 .2 1.7-.2 3.7zm-155.5-.1c0 .8-.6 1.1-1.5.8-.8-.4-1.5-1.2-1.5-2s.6-1.1 1.5-.8c.8.4 1.5 1.2 1.5 2zm8 .2c0 2.6-1.1 3.4-2.7 2.1-2-1.7-1.6-3.9.7-3.9 1.3 0 2 .7 2 1.8zm114 3.7c-.6 1.9-1.5 3.7-1.9 3.9-.4.3 0-1.7.8-4.4.9-2.7 1.7-4.4 1.9-3.9.2.5-.2 2.5-.8 4.4zm-107.2-2.2c.2 1-.3 1.7-1.2 1.7-1 0-1.6-.9-1.6-2.1 0-2.4 2.3-2.1 2.8.4zm-125 2.2c2.2 2 7.1 8.1 10.8 13.6 3.7 5.5 7.2 10.3 7.9 10.7 2.2 1.4 4.5 5.7 4.5 8.4 0 3.2-1.1 3.5-3.6 1.1-1.5-1.6-1.6-1.5-1 1.8.7 3.3.6 3.3-.7.9-.8-1.4-1.7-4.5-2.1-7-.8-5.5-3.4-9.9-4.6-8-.5.8-.7 3.3-.6 5.6l.2 4.2-2.6-3.7c-9.7-13.4-19.2-28.9-18.5-30.2 1.3-2.1 6.3-.8 10.3 2.6zm626.5-2.8c-1.3.2-3.3.2-4.5 0-1.3-.2-.3-.4 2.2-.4s3.5.2 2.3.4zm-338.5 5c-1.4 3-4.8 3.8-5.6 1.4-.3-1 0-1.2 1.1-.8 1.1.4 2.3-.2 3.4-1.7 2.3-3.1 2.9-2.5 1.1 1.1zm-114.3.8c0 1.1-.8 2.1-1.7 2.3-1.4.3-1.8-.3-1.8-2.3 0-2 .4-2.6 1.8-2.3.9.2 1.7 1.2 1.7 2.3zm-142.6 20.2c.1 7.1-.2 11.3-.9 11.3-.6 0-1-5.5-.9-15.3.1-17.5 1.6-14.3 1.8 4zm184-14.4c7.2.9 10.6 1.7 10.9 2.6.4 1.2-.8 1.3-6.9.7-16.8-1.5-24.9-2.9-24.9-4.4 0-1 1.1-1.2 5.3-.7 2.8.3 9.9 1.2 15.6 1.8zm-71.4 5.2c10.5 1.4 23.5 3.2 29 4.1 38.3 6 171.6 25 200.5 28.6l10.5 1.3-8 1.2c-6.7 1.1-9.6 1.1-17.5-.1-32.3-5-116.1-17.7-143-21.7-11.3-1.6-24.5-3.6-29.5-4.4-4.9-.8-20-3.1-33.5-5.1-13.5-2-26.5-3.9-28.9-4.2-2.4-.4-4.6-1.3-4.9-2.1-.4-1.1.3-1.2 2.9-.8 1.9.4 12 1.8 22.4 3.2zm114.5 1.3c0 1.2-1.3 1.3-8.2.7-7.4-.6-10.4-1.7-9.3-3.5.2-.3 4.2-.1 8.9.4 6.5.7 8.6 1.3 8.6 2.4zm31 2.2c13.4 1.9 17.3 3 15.8 4.6-.6.5-22.6-1.9-28.5-3.2-1.3-.2-2.3-1.1-2.3-1.9 0-.8.1-1.5.3-1.5.1 0 6.8.9 14.7 2zm-120 7c26.1 4.3 54.3 9.1 62.5 10.5 32.4 5.6 103.3 17.4 108.2 18 2.9.4 5.5 1 5.8 1.5.2.4-3.3 1.6-8 2.5-9.9 2.1-2.1 3.2-73-10-28.6-5.3-54.2-10-57-10.5-25.5-4.6-82.4-15.2-84.9-15.8-3-.8-5-4.2-2.4-4.2.7 0 22.7 3.6 48.8 8zm-15.9 6.5c17.8 3.5 45.7 9.1 61.9 12.5 16.2 3.3 43.9 8.9 61.5 12.5 17.7 3.5 33.1 6.8 34.4 7.3 1.9.7.7 1.2-6.5 2.7-9.8 2-11.3 1.9-31.9-3-6-1.4-14.6-3.2-19-4.1-9.3-1.8-53.7-11.3-84-17.9-18.6-4.1-38.7-8.5-46.7-10.2-2.3-.4-2.8-1.1-2.8-3.4 0-1.6.2-2.9.3-2.9.2 0 15 2.9 32.8 6.5zm269.6 2.3c.7.9 3.4 1.7 6.5 1.9 22.4 1.8 57.7 5.8 58.6 6.8.3.3-.3.5-1.4.5-2 0-50.7-5.3-63.9-7-4.4-.5-11.6-1.3-15.9-1.6-7.5-.6-7.8-.7-5-1.9 4-1.8 19.5-.8 21.1 1.3zm113.8 5.9c8.2 4.2 13.6 9.7 17.5 17.9 2.8 6 3.2 7.6 2.8 13.6-.3 5.8-.8 7.2-3.2 9.7-3.1 3.2-7.3 4.6-10.6 3.6-1.4-.4-1.9-1.2-1.6-2.3 1.2-3.7 1.7-9.6 1.2-11.8-.9-3.3-3.8-3.1-7.4.6-3.6 3.5-6.2 3.8-10.9.9-3.1-2-3.5-2-5.8-.5-1.9 1.2-2.5 2.5-2.5 5.2 0 3.6-.5 4.2-9.1 12-2.3 2.1-4.2 5.3-5.8 9.7-1.2 3.6-2.8 7-3.4 7.5-.7.5-3.8 1.2-6.9 1.5-3.8.4-8.7 2-14.5 4.7-8.2 4-9.1 4.2-14.3 3.5-11.9-1.6-12-1.5-15.3 4-3.5 6-4.2 6.5-8.7 6.5-1.9 0-4.9.2-6.6.6-9.4 1.9-4.9-12.7 5.8-18.2 4.2-2.2 12.4-3.2 19-2.5 5.6.7 5.9.6 8.9-2.5 4.9-5 7.9-5.9 15.4-4.6 3.4.7 6.7 1.2 7.4 1.2 2.1 0 1.1-4.2-1.9-7.6-5.2-6-7.3-11.2-7.7-19.4-.3-6.4-.1-8.1 1.9-11.5 1.3-2.2 4.5-5.6 7.3-7.7 2.7-2 5.6-5 6.4-6.7 2.1-3.9 6-6.8 12.4-9.2 4.2-1.6 7.1-1.9 14.7-1.6 8.2.3 10.3.8 15.5 3.4zm-401.1.8c8.3 2 18.7 4.5 23.1 5.5 55.9 13.5 103.1 24 107.4 24 1.1 0 2.2.3 2.5.8.7 1.2-19.4-.5-32.1-2.8-11.2-2-26.3-5.5-75.8-17.5-12.1-2.9-26.4-6.4-31.7-7.6-7.9-1.9-9.8-2.6-9.8-4.1 0-1 .3-1.8.6-1.8.4 0 7.4 1.6 15.8 3.5zm233.3 0c30 3.9 38.9 5.2 35.9 5.4-3 .2-35.1-3.6-53.1-6.3-24.4-3.6-14.1-3 17.2.9zm15.6-2.8c-.7.2-2.1.2-3 0-1-.3-.4-.5 1.2-.5 1.7 0 2.4.2 1.8.5zm-330 1.8c2 .8 6.3 1.5 9.6 1.5 7.4 0 10 1 15.7 5.7 5.4 4.6 9.1 11.8 10 19.5.5 4.5.3 6-1 7.3-1.8 1.8-2.1 3.5-.6 3.5 1.7 0 1.1 4.3-1.5 9.8-1.4 3-2.5 6-2.5 6.8 0 .7 2.4 2.5 5.3 3.8 2.9 1.4 7.6 4.5 10.4 7 4.2 3.6 6.2 4.5 10.5 5.1 4.5.6 13.7 4.9 12.6 6-.9 1-18.3-1.9-25.2-4.2-7.3-2.4-8.3-2.5-13.2-1.3-13.4 3.2-21.6-5.6-12.9-14 1.9-1.9 3.5-3.7 3.5-4.1 0-.4-1.6-1-3.5-1.3-5.9-1.1-8.5-6-6.1-11.8.6-1.3-.3-2.1-3.8-3.6-4.6-2.1-5.4-3.4-5.9-9.7-.3-3.6-2.5-3.6-7.4.1-1.7 1.3-3.5 2.4-3.9 2.4-.4 0-2.1 1.6-3.8 3.6-3 3.5-3.6 3.7-11.3 4.4-8.1.7-11.2 1.9-16.1 6.3-2.1 2-2.3 2-3.9.4-2.4-2.4-1.9-9.7.9-15.4 2.6-5.2 8.6-10.5 13.9-12.2 2.8-.9 4.1-2.1 5.4-5.2 4.6-10.2 15-14.5 24.8-10.4zm338.4-.9c-.3.3-1.2.4-1.9.1-.8-.3-.5-.6.6-.6 1.1-.1 1.7.2 1.3.5zm7.6 1.1c-.7.2-1.9.2-2.5 0-.7-.3-.2-.5 1.2-.5s1.9.2 1.3.5zm8.5 1c-1 .2-2.6.2-3.5 0-1-.3-.2-.5 1.7-.5s2.7.2 1.8.5zm8 1c-1 .2-2.8.2-4 0-1.3-.2-.5-.4 1.7-.4 2.2-.1 3.2.1 2.3.4zm19.2 1.7c6.3.8 18.5 2.2 27 3.2 17.8 1.9 19.5 2.2 16.3 3.4-1.3.6-5 .3-9.5-.6-4-.8-17.2-2.8-29.3-4.3-12.1-1.6-20.6-2.9-19-3 1.7-.1 8.2.5 14.5 1.3zm-22.7 3.3c-.7.2-1.9.2-2.5 0-.7-.3-.2-.5 1.2-.5s1.9.2 1.3.5zm-270 15.4c10.6 1.6 21.3 4.4 39.2 10.4 44.4 14.8 80.4 19.1 117.3 14 12-1.7 17.6-3 37.2-9 40.7-12.4 74.9-17.1 105-14.5 19.3 1.6 26.4 3.1 26.8 5.4.3 1.6 0 1.8-3 1.2-1.8-.3-12.8-.9-24.4-1.2-37.3-1.2-64 2.7-104.9 15.1-26.2 7.9-39.2 9.9-65.5 9.9-32.9 0-54.6-3.8-95-16.9-13.4-4.4-24.7-7.5-26.9-7.5-.7 0-.2 1 .9 2.2 4.5 4.9 3.3 11-2.7 13.5-4.5 1.8-7 1.6-11-.8-2.7-1.7-4.3-2-7.6-1.4-2.3.3-6.2 1-8.7 1.4-2.5.4-5.5 1.3-6.7 1.9-1.9 1-2.8 1-5.3-.3-5.8-3-6.9-10.5-2.2-14.6 7.4-6.6 11-8.8 14.8-9.2 8-.8 15.7-.7 22.7.4zm48.4 23.8c23.7 6.6 43.4 9.9 71.1 11.7 5.6.3 10.2 1 10.2 1.5 0 2.3-29.1.4-48.5-3.2-17.7-3.3-45.7-10.9-47.9-13-1.7-1.5.8-1.1 15.1 3zm264.5 1.3c4.3.7 7.8 1.5 7.8 1.9 0 1.8-6.9 3.1-21.4 3.9-31.9 1.9-50.8 4.5-68.1 9.2-33 9.1-41 11-55.3 13.4-13.1 2.2-19 2.7-35.7 2.8-12.7 0-21.8-.4-25-1.1-2.7-.7-7.2-1.7-10-2.1-3.2-.6 3.3-.7 18-.4 21.3.4 24.3.3 39.5-2.2 18.7-2.9 26.7-4.8 46-11 26.1-8.5 42.4-12.1 63-14.1 17.8-1.7 31.7-1.8 41.2-.3zm-435.9 9.5c3 2 9.9 2.9 16.3 2.2 3.7-.4 7.4-.5 8.1-.2 1.7.7.8 4-2 7-3 3.4-7.5 4.4-17.3 4.1-8.1-.3-9.4-.1-14.5 2.6-6.5 3.3-9.3 3.1-13.5-1.1-2.1-2.1-2.5-3.2-2-5.7.8-3.8 4.7-8 8.9-9.4 3.3-1.2 14-.8 16 .5zm537 3.8c4.6 3.2 4.9 6.7 1.1 10.9-2.2 2.3-3.3 2.7-6 2.3-2-.3-4.4-1.7-5.8-3.3l-2.4-2.8-.7 3.2c-.9 4.4-4.5 8.5-9.4 10.7-5.1 2.2-6.8 1.1-7.4-4.8l-.4-4.2-.1 4.7c-.1 3.1.2 4.8 1 4.8.6 0 .1 1.1-1.2 2.5-1.7 1.8-3.4 2.5-6.2 2.5-3.7 0-4.2.5-3.9 4 .1.8-1.2-.6-2.9-3.2-1.6-2.7-3-5.4-2.9-6 0-.7.5-.2 1.1 1.2.7 1.6 1.2 2 1.5 1.2.3-.8-.7-2.6-2.1-4.1-3.8-3.9-3.5-8.7.7-14.3 2-2.6 4-4.2 5-4 .9.2 1.7-.2 1.7-.7 0-1.7 5.9-2.1 16.8-1.3 5.6.4 10.6.4 11 .1.8-.8 3.7-1.6 6.2-1.8.9 0 3.2 1 5.3 2.4zm-154 7.2c-.7.2-1.9.2-2.5 0-.7-.3-.2-.5 1.2-.5s1.9.2 1.3.5zM276.5 706c-.3.5-1.1 1-1.6 1-.6 0-.7-.5-.4-1 .3-.6 1.1-1 1.6-1 .6 0 .7.4.4 1zm222.2-.4c-.3.3-1.2.4-1.9.1-.8-.3-.5-.6.6-.6 1.1-.1 1.7.2 1.3.5zm-209.1 5.9c.9.8 1.9 1.5 2.3 1.5 1.4 0 5.1 4.1 5.1 5.7 0 2.2-7.1 1.2-9.7-1.4-1.1-1.1-4.1-3.5-6.7-5.2-4.3-3-4.6-3.4-3-4.6 1.5-1 2.5-.9 6.2.6 2.4 1 5 2.6 5.8 3.4zm200.9-4.5c-1.6.4-3.9.8-5 .8-1.6 0-1.5-.2.5-.8 1.4-.4 3.6-.8 5-.8 2.2 0 2.2.1-.5.8zm-7.6 1.4c-.8.7-30.1 7.8-30.5 7.3-.2-.2 6-2 13.8-4 13.4-3.4 17.7-4.2 16.7-3.3zM449 717c-1.4.4-3.6.8-5 .8-2.2 0-2.2-.1.5-.8 1.7-.4 3.9-.8 5-.8 1.6 0 1.5.2-.5.8zm-8.7 1.7c-.7.2-2.1.2-3 0-1-.3-.4-.5 1.2-.5 1.7 0 2.4.2 1.8.5zm-6 1c-.7.2-2.1.2-3 0-1-.3-.4-.5 1.2-.5 1.7 0 2.4.2 1.8.5zm-6.5 1c-1 .2-2.8.2-4 0-1.3-.2-.5-.4 1.7-.4 2.2-.1 3.2.1 2.3.4zm-10 1c-1 .2-2.6.2-3.5 0-1-.3-.2-.5 1.7-.5s2.7.2 1.8.5zM620 727c0 .5-.7.7-1.5.4-.8-.4-1.5-.8-1.5-1 0-.2.7-.4 1.5-.4s1.5.4 1.5 1z"/><path d="M426 196.8c0 .6 1.7 1.4 3.8 1.8 5.9 1.1 10.5 3.9 15.9 9.8 8.2 9 10 20.9 4.9 32.2-3 6.5-3.1 7.4-1.2 7.4 2.4 0 7.6-7.2 9.3-12.9 5.4-18.7-7.3-37.3-26.4-38.9-4.2-.3-6.3-.1-6.3.6zM450.5 290.6c-2.9 5.4-10 11.1-16.1 13.1-5.8 1.8-6.3 2.3-3.9 4.3 2.6 2.2 10.3.7 13.6-2.6 3.6-3.7 9.9-14.2 9.9-16.6 0-2.8-1.4-2.1-3.5 1.8zM696 316.4c0 .2.7.7 1.6 1 .8.3 1.2.2.9-.4-.6-1-2.5-1.4-2.5-.6zM670.3 405.7c.9.2 2.3.2 3 0 .6-.3-.1-.5-1.8-.5-1.6 0-2.2.2-1.2.5zM672 410.5c0 .8.4 1.5 1 1.5.5 0 .7-.7.4-1.5-.4-.8-.8-1.5-1-1.5-.2 0-.4.7-.4 1.5zM667.6 411.5c.4.8.7 1.5.9 1.5.2 0 .5-.7.9-1.5.3-.9 0-1.5-.9-1.5s-1.2.6-.9 1.5zM680 412c0 .5.5 1 1.1 1 .5 0 .7-.5.4-1-.3-.6-.8-1-1.1-1-.2 0-.4.4-.4 1zM686.8 412.7c.6.2 1.8.2 2.5 0 .6-.3.1-.5-1.3-.5-1.4 0-1.9.2-1.2.5zM661.8 415.7c.6.2 1.8.2 2.5 0 .6-.3.1-.5-1.3-.5-1.4 0-1.9.2-1.2.5zM688.8 415.7c.6.2 1.8.2 2.5 0 .6-.3.1-.5-1.3-.5-1.4 0-1.9.2-1.2.5zM209.1 414.1c-1.8.6-3.1 1.2-2.9 1.4.2.2 2.6-.2 5.3-1 2.8-.7 4.1-1.3 3-1.3-1.1 0-3.5.4-5.4.9zM378.9 411.3c-4.3 2.9-5.1 5.7-1.5 5 1.5-.3 3.3-1.9 4.5-3.9 2.4-4 1.7-4.2-3-1.1zM340.2 426.5l-3.7 3.4 2.6.1c1.9 0 3.5-1 5.3-3.5 3.7-4.7.9-4.8-4.2 0zM429.5 422c-1.6.7-1.7.9-.3.9.9.1 2-.4 2.3-.9.7-1.1.7-1.1-2 0zM433.5 422c.3.5 1.1 1 1.6 1 .6 0 .7-.5.4-1-.3-.6-1.1-1-1.6-1-.6 0-.7.4-.4 1zM729.3 458.7c.9.2 2.3.2 3 0 .6-.3-.1-.5-1.8-.5-1.6 0-2.2.2-1.2.5zM735.8 459.7c.7.3 1.6.2 1.9-.1.4-.3-.2-.6-1.3-.5-1.1 0-1.4.3-.6.6zM455 430c.8.5 2 1 2.5 1 .6 0 .3-.5-.5-1s-1.9-1-2.5-1c-.5 0-.3.5.5 1zM476 433c0 .5.7 1 1.6 1 .8 0 1.2-.5.9-1-.3-.6-1-1-1.6-1-.5 0-.9.4-.9 1zM436.8 435.7c.7.3 1.6.2 1.9-.1.4-.3-.2-.6-1.3-.5-1.1 0-1.4.3-.6.6zM474 436c0 .5 1 1 2.3 1 1.8 0 1.9-.2.7-1-1.9-1.3-3-1.3-3 0zM471 438c0 .5.5 1 1 1 .6 0 1-.5 1-1 0-.6-.4-1-1-1-.5 0-1 .4-1 1zM456 439.4c0 .2.8 1 1.8 1.7 1.5 1.3 1.6 1.2.3-.4s-2.1-2.1-2.1-1.3zM452.8 442.7c.6.2 1.8.2 2.5 0 .6-.3.1-.5-1.3-.5-1.4 0-1.9.2-1.2.5zM440.8 448.3c.2 1 .5 1.6.6 1.5.1-.2.7-1 1.3-1.8 1-1.3.8-1.6-.6-1.6-1.3 0-1.7.6-1.3 1.9zM434.3 454.5c0 .8.4 1.2.9.9.5-.3.6-1 .3-1.5-.9-1.3-1.2-1.1-1.2.6zM504.2 453.7c2.5 5.1 4.4 8.3 5 8.3.3 0-.5-2-1.9-4.5-1.3-2.5-2.7-4.5-2.9-4.5-.3 0-.4.3-.2.7zM412 459c0 .5.5 1 1.1 1 .5 0 .7-.5.4-1-.3-.6-.8-1-1.1-1-.2 0-.4.4-.4 1zM427.6 463.7c-.6 1.4-.5 1.5.5.6.7-.7 1-1.5.7-1.8-.3-.3-.9.2-1.2 1.2zM499 463.4c0 .8.5 1.8 1 2.1.6.3 1-.1 1-.9s-.4-1.8-1-2.1c-.5-.3-1 .1-1 .9zM406.6 468.7c-.6 1.4-.5 1.5.5.6.7-.7 1-1.5.7-1.8-.3-.3-.9.2-1.2 1.2zM425.2 469.5c0 1.6.2 2.2.5 1.2.2-.9.2-2.3 0-3-.3-.6-.5.1-.5 1.8zM405.7 472.6c-.4.4-.7 1.7-.7 2.8.1 1.9.1 2 1.1.3 1.1-1.9.8-4.3-.4-3.1zM513.2 479c0 1.9.2 2.7.5 1.7.2-.9.2-2.5 0-3.5-.3-.9-.5-.1-.5 1.8zM405.2 480c0 1.4.2 1.9.5 1.2.2-.6.2-1.8 0-2.5-.3-.6-.5-.1-.5 1.3zM512.4 486.4c-.3.8-.4 2.3-.1 3.3.3 1.1.5.7.7-1.2.2-3 .2-3 1-.5.7 2.3.8 2.3.9.3.1-2.6-1.7-4-2.5-1.9zM426 507.1c0 .5.5.7 1 .4.6-.3 1-.8 1-1.1 0-.2-.4-.4-1-.4-.5 0-1 .5-1 1.1zM457 452.3c-12 3.4-20.2 12.7-23 26-2.7 13 4.9 28.6 16.8 34.4 7.7 3.8 18.9 3.8 27.2.1 15.7-7.1 22.2-25.9 14.7-42.3-6.5-14-22.2-22-35.7-18.2zm16.5 4.8c11.4 4.3 17.8 13.6 17.7 25.8-.1 15.9-11.3 27.3-26.9 27.3-12.8 0-23.3-8.4-26.2-21.2l-.9-4.3 4.5.7c2.5.3 6.8.6 9.4.6 3.2 0 4.9.4 4.9 1.2.1.7.9 2.3 2 3.6 6.2 7.5 19 3 19-6.7 0-4.4-3.2-9.8-6.4-11.1-2.1-.8-2.6-1.8-3.2-6.9-1-8.9-3-9.8-3.6-1.7-.5 5.9-.9 6.8-4.2 9.9-2 1.9-3.6 4.1-3.6 4.9 0 1.7-5.7 2.8-14.2 2.8h-5l.7-3.3c3.9-18.4 19.5-27.8 36-21.6zm-3.1 21c5 4 2.4 11.9-4 11.9-6.9 0-10.1-7.8-4.8-11.9 1.5-1.2 3.4-2.1 4.4-2.1 1 0 2.9.9 4.4 2.1zM665 491c-3 1.1-6.3 2-7.2 2-1 0-1.8.5-1.8 1.1 0 .6.9.8 2.1.4 1.4-.5 2.5-.1 3.4 1.2.8 1 1.5 1.3 1.5.6 0-.6-.5-1.5-1.2-1.9-1.7-1.1 11.1-4.5 14-3.7 1.7.4 2.3.2 1.8-.6-1-1.6-6.3-1.2-12.6.9zM632.8 492.7c.7.3 1.6.2 1.9-.1.4-.3-.2-.6-1.3-.5-1.1 0-1.4.3-.6.6zM656.6 498.8c-.2.4 0 1.4.5 2.2.8 1.3 1 1.3 1.9 0 .5-.8 1-1.8 1-2.3 0-1-2.8-.9-3.4.1zM640.8 504.7c.7.3 1.6.2 1.9-.1.4-.3-.2-.6-1.3-.5-1.1 0-1.4.3-.6.6zM260.8 480.7c.7.3 1.6.2 1.9-.1.4-.3-.2-.6-1.3-.5-1.1 0-1.4.3-.6.6zM262.1 497c-7 1.1-7.1 1.4-7.1 27.1 0 19.9.2 22.8 1.7 24 2.1 1.8 12.7 1.9 14.5.1 1-1 1.3-7 1.3-25.8 0-28.8.7-27.2-10.4-25.4zm.8 26.4c.2 10.6-.1 15.6-.8 15.6-.7 0-1.1-5.3-1.1-16.1 0-8.8.4-15.8.8-15.5.5.3 1 7.5 1.1 16zM236.1 501.1c-2.4.5-4.7 1.1-5 1.5-1.1 1.1-.7 44.2.5 45.4 1.7 1.7 11.6 1.5 12.9-.3 1.2-1.7 1.3-44.5.1-46.5-.8-1.3-2.2-1.4-8.5-.1zm1.9 25.4-.7 14-.1-15c-.1-8.7.2-14.5.7-14 .5.6.6 7.1.1 15zM211.3 505.5c-2.2 1.6-2.3 2-2.3 20.6 0 11.2.4 19.8 1 21 .8 1.5 2.1 1.9 5.9 1.9 2.9 0 5.3-.6 6-1.4.8-.9 1.1-7.7.9-22.2l-.3-20.9-4.5-.3c-2.9-.2-5.3.3-6.7 1.3zm5.4 28.2c-.2 3.8-.3.7-.3-6.7s.1-10.5.3-6.8c.2 3.8.2 9.8 0 13.5zM194.5 506.7c-1.6.3-3.3 1-3.7 1.6-1.3 2.1-.9 38.2.4 39.5.7.7 2.8 1.2 4.8 1.2s4.1-.5 4.8-1.2c.8-.8 1.2-6.8 1.2-20.3 0-18.9-.5-21.8-3.4-21.4-.6.1-2.4.4-4.1.6zm2.3 27.5c-.2 4.4-.6 5.8-1.2 4.5-.5-1-.4-6.5 0-12.5.8-9.6.9-10.1 1.2-4.5.2 3.5.2 9.1 0 12.5zM172.6 511.6c-.8 2-.8 31.2 0 34.2.7 2.5 4.1 3.7 7.9 2.8l2.5-.6v-38h-4.9c-3.5 0-5.1.4-5.5 1.6zm5.1 23.6c-.2 3.5-.3.9-.3-5.7 0-6.6.1-9.4.3-6.3.2 3.2.2 8.6 0 12zM715.8 535.7c.7.3 1.6.2 1.9-.1.4-.3-.2-.6-1.3-.5-1.1 0-1.4.3-.6.6zM728.8 544.7c.6.2 1.8.2 2.5 0 .6-.3.1-.5-1.3-.5-1.4 0-1.9.2-1.2.5zM316.7 557.7c-7.3 8.2-7.5 32.7-.2 41 2.3 2.7 2.5 2.7 5.2 1.3 4.2-2.3 6.6-9.6 6.6-20-.1-9.7-1.3-15.3-4.6-20.1-2.7-4-4.7-4.6-7-2.2zm5.8 7.3c2.4 4.7 2.3 6.4-.2 3.9-.6-.6-2.5-1.4-4.1-1.8-3-.6-3-.6-1.7-3.9.8-1.7 1.9-3.2 2.4-3.2.6 0 2.2 2.2 3.6 5zm-2.7 13.9c.4 5.7-.4 9.1-2.3 9.1s-2.9-4.4-2.6-11.3c.1-2.3.5-2.8 2.4-2.5 1.8.2 2.3 1 2.5 4.7zM346.3 558.2c-3.1 3.4-6.3 14.9-6.3 22.9 0 14.9 8.4 26.7 14.3 20.1 3.7-4.1 5-9.4 5-20.2 0-11-1.3-16.4-5.3-22.1-2.5-3.5-4.9-3.7-7.7-.7zm7.8 8.3c3.6 8.1 3.6 8.6-.2 4.7-2-2-4.2-3.2-6.5-3.4l-3.4-.3 2.5-3.8c1.4-2 3-3.7 3.6-3.7.6 0 2.3 2.9 4 6.5zm-5.4 8.3c2 1.3 2.6 6 1.3 11.2-2.1 8.7-6 5.6-6-4.8 0-7.1 1.2-8.7 4.7-6.4zM703.4 571.5c.8.8 1.8 1.5 2.2 1.5.3 0 .1-.7-.6-1.5s-1.7-1.5-2.2-1.5c-.5 0-.3.7.6 1.5zM228.3 568.7c.9.2 2.3.2 3 0 .6-.3-.1-.5-1.8-.5-1.6 0-2.2.2-1.2.5zM449 574.6c0 .3.5 1.4 1 2.5 1 1.8 2.5 1.9 40 1.9 31.3 0 39-.3 39-1.3 0-3.5-1.7-3.7-41.2-3.7-21.3 0-38.8.3-38.8.6zM454 583.9c0 4.2-.8 4.1 41.6 4.1H536l-1.6-2.5-1.6-2.5h-39.4c-23.3 0-39.4.4-39.4.9zM458.7 592.6c-.3.4.1 1.7 1 3l1.5 2.4h40.4c22.2 0 40.4-.3 40.4-.8 0-.4-.7-1.8-1.6-3l-1.5-2.2h-39.8c-21.9 0-40 .3-40.4.6zM624 698c0 .5 1 1 2.3 1 1.8 0 1.9-.2.7-1-1.9-1.3-3-1.3-3 0zM648.3 697.7c1.5.2 3.9.2 5.5 0 1.5-.2.2-.4-2.8-.4s-4.3.2-2.7.4zM619.8 698.7c.6.2 1.8.2 2.5 0 .6-.3.1-.5-1.3-.5-1.4 0-1.9.2-1.2.5zM613.9 701c-2.5 1.4-5.5 8.8-4.1 10.2.8.8 1.1.6 1-.9-.2-2.6 4.1-9.5 5.4-8.7.7.4.8.2.4-.4-.8-1.4-.7-1.4-2.7-.2zM627 701.1c0 .5.5.7 1 .4.6-.3 1-.8 1-1.1 0-.2-.4-.4-1-.4-.5 0-1 .5-1 1.1z"/><path d="M613.3 707.5c-.6 1.4-.7 2.5-.2 2.5.5 0 .9-.6 1-1.3.1-.6.5-.1.9 1.3.6 2 .8 2.1.8.5 0-1.1-.2-2.8-.6-3.7-.6-1.5-.9-1.4-1.9.7zM613 722.7c0 .4.5 1.5 1 2.3.8 1.3 1 1.3 1-.2 0-.9-.4-2-1-2.3-.5-.3-1-.3-1 .2z"/></svg>