<svg version="1.0" xmlns="http://www.w3.org/2000/svg" width="370.667" height="370.667" viewBox="0 0 278 278"><path d="M0 139v139h50.1c32.2 0 49.8-.3 49.4-1-.3-.5-2.3-1.7-4.3-2.7-2.9-1.3-10.7-6.1-13.1-7.9-.6-.6 3-7.7 7.4-14.4 2.3-3.6 5-8 5.9-9.7.9-1.8 1.9-3.3 2.2-3.3.4 0 4.7 2.3 9.6 5.2 6.6 3.8 8.8 5.6 8.4 6.7-2.7 8.1-4.8 12.8-7.8 17.3-1.9 3-3.8 6.4-4.2 7.6l-.7 2.2H278V0H0v139zM66 8.1c0 4 .8 6.2 4.5 12.2 2.5 4.1 4.5 8.1 4.5 9 0 1.2-9.3 6.7-11.4 6.7-.5 0-2.3.7-4.2 1.6-4 1.9-6.1 1.3-7.4-2-.5-1.3-1.3-2.7-1.9-3-.5-.4-2.1-3-3.6-6-2.1-4.4-2.5-6.5-2.3-11.7l.3-6.3 4.8-1.8c2.6-1 6.8-2.6 9.5-3.6C64.7.8 66 1.7 66 8.1zM31.2 7c-.2 1.9-.3 9.5-.4 16.9v13.4l-7.6-.7c-4.1-.3-9.2-.6-11.3-.6H8.2L7 28.9c-.7-4-.9-9-.6-11.3.3-2.3.9-5.9 1.2-8.1 1-6.4 1.4-6.6 13.3-6.3l10.6.3-.3 3.5zm79.9-2.3c.5.5.1 3.5-.7 6.8-1.9 7.5-1.8 6.4-.9 16.9l.8 8.9-10.4-.8c-5.7-.4-11.1-1.1-12-1.5-1-.6-1.9-3.5-2.7-8.7-1.1-7.2-1-8.3 1.1-14.3 3.4-9.9 2.6-9.4 14-8.7 5.5.4 10.4 1 10.8 1.4zm32.1 1.5c1.2 1.8 4.2 5.7 6.5 8.6 2.4 2.9 4.3 5.9 4.3 6.7 0 .8-1.7 2.6-3.7 4.2-2.1 1.5-5.5 4.2-7.6 6-5 4.4-8 4.3-11.2-.5-1.4-2-4.1-5.6-6-8-1.9-2.4-3.5-4.7-3.5-5.1 0-.8 5.9-6.2 13.2-12.3 4.3-3.5 5.2-3.5 8 .4zm45.1 6.3 6.8 5.6-3.8 4.8c-7.8 9.7-10.8 13.1-11.6 13.1-1 0-17.1-12.9-17.5-14.1-.4-1.1 2.9-5.7 9.7-13.6l4.4-5.2 2.6 1.9c1.4 1 5.7 4.4 9.4 7.5zm40.8 1.5c.3 5.8.9 12.8 1.3 15.7.9 6.3 1 6.2-13.4 6.6l-9.5.2-1.2-7c-.8-4.2-1.1-10.4-.7-15.7l.6-8.7 4.2-1c2.2-.5 7.3-.9 11.1-.8l7 .2.6 10.5zm35.4-9.6 6.9 1.2 1.2 6.4c2.2 11.4 1.9 12.9-3.3 19.3-5.4 6.5-3.3 6.1-19.1 4.1-6.4-.8-6.9-1.5-8.3-12.3l-1.1-8 5.3-6.1c6-6.7 6.1-6.8 18.4-4.6zM182 44.9c0 1.6.7 3.4 1.5 4.1.8.7 1.5 1.8 1.5 2.4 0 .7 1.4 2.5 3 4.1 1.7 1.6 3 3.3 3 3.8s.9 2 2 3.4c2.5 3.2 2.5 5.2.3 6-1 .4-3.7 1.9-6 3.5-2.3 1.5-4.6 2.8-5.1 2.8s-1.7.9-2.7 2c-1 1.1-2.3 2-2.9 2-.7 0-3.8-3.5-7.1-7.8-5.3-6.9-5.9-8.3-6.3-13.3l-.4-5.6 6.3-3.8c3.5-2.1 7.5-4.7 8.8-5.7 2.9-2.2 4.1-1.6 4.1 2.1zm81.1 1.4c.6 2.3 3.1 7.3 5.6 11 6.8 10.5 6.6 11.1-4.6 16.9-5.2 2.6-9.6 4.8-9.7 4.8-.2 0-2.7-3.5-5.6-7.8-4-5.9-5.4-9-5.9-13.1-.4-2.9-.5-6-.2-6.8.6-1.6 17.4-10.3 18.5-9.7.4.3 1.2 2.4 1.9 4.7zM142.6 44c1.9 1.1 5.7 3.5 8.4 5.3l4.8 3.3-1.9 3.9c-1 2.2-1.8 4.6-1.9 5.4 0 .8-1.7 3.7-3.9 6.5-2.1 2.8-4.6 6.3-5.6 7.8-1.7 2.7-4 3.7-4.7 2-.4-1-9.4-7.2-10.3-7.2-.4 0-2-.9-3.6-2-3.8-2.8-4.2-1.9 11-23.6 1.3-1.8 2.8-3.4 3.2-3.4.5 0 2.5.9 4.5 2zm-32.1 3.2c.3 2.4.9 9.5 1.1 15.9l.6 11.6-4.4.6c-2.4.4-7.5.9-11.4 1.3-6.9.6-7.1.6-7.7-1.7-.4-1.3-.7-5.3-.7-8.9-.1-3.6-.4-9.5-.9-13.3-.4-3.7-.5-7.1-.2-7.6.9-1.3 4.5-1.8 14.2-2l8.7-.1.7 4.2zm115.4 2.7c4.5 3.5 8.1 6.8 8.1 7.5 0 1.7-12.9 17.6-14.3 17.6-.6 0-4.6-2.7-8.7-6s-7.8-6-8.2-6c-.5 0-.8-.7-.8-1.6 0-2.2 13.1-18.5 14.6-18.2.7.2 4.9 3.2 9.3 6.7zM24.7 48.7c1.5 2 4.5 5.5 6.6 7.8 2 2.3 3.7 4.9 3.7 5.8 0 .9-1.9 2.9-4.3 4.6-2.3 1.6-5.8 4.5-7.6 6.5-1.9 2-4.2 3.6-5.2 3.6-.9 0-3.4-2.1-5.4-4.8-2.1-2.6-5.4-6.3-7.3-8.3l-3.4-3.7 5-4.6c6.2-5.8 12.3-10.4 13.9-10.5.7-.1 2.5 1.5 4 3.6zm47.6-.1 3.7.7V71l-16.7-.2-16.8-.3.3-7c.1-3.9.5-9.2.8-11.9l.6-4.9 12.2.7c6.6.3 13.8.9 15.9 1.2zm114.1 39.2c1.8 3.7 3.8 8.3 4.5 10.2.8 1.9 2 5 2.8 6.8.8 1.9 1.3 3.4 1.1 3.5-.1.1-1.3.8-2.5 1.4-1.3.7-2.9 1.3-3.7 1.3-.8 0-4 1.3-7.1 3-5.6 3-7.5 3.1-7.5.6 0-.8-.7-2-1.7-2.7-.9-.8-3.1-4.8-5-8.9-1.9-4.1-3.8-8.3-4.4-9.2-1.7-3.2-.9-4.3 4.5-6.7 3-1.3 7.4-3.3 9.8-4.5 2.4-1.3 4.6-2.1 5.1-1.9.4.3 2.2 3.5 4.1 7.1zM28.5 86.2c4.4 2.8 8.2 5.3 8.4 5.5.8.6-3.6 9.1-9.3 17.8-3.2 4.9-6 9.2-6.1 9.3-.2.2-2.3-.9-4.7-2.6-2.4-1.6-6.3-4.1-8.8-5.5-6.9-3.9-7-4.4-.9-13.1 3-4.3 6.8-9.8 8.4-12.2 1.7-2.4 3.5-4.4 4-4.4.6 0 4.6 2.3 9 5.2zm193.2-3c2.1 1.2 5.8 3.3 8.3 4.6 2.5 1.4 4.6 2.6 4.7 2.7.5.3-2.8 10-4.6 13.5-2.7 5.2-6.2 11.3-7.4 12.8-1.8 2.3-.9 10.1 1.7 13.5 6.1 8.2 10.4 15.1 10 15.9-.8 1.2-10 7.2-16.1 10.4-3.1 1.7-3.2 1.7-5.7-1.2-1.4-1.6-2.6-3.4-2.6-4 0-.6-1.1-2.1-2.5-3.4-3.8-3.6-5.1-7-4.7-12.3.3-3.9.8-5 2.7-5.7 1.3-.5 2.6-1.4 3-1.9.3-.6 2.5-2 4.9-3.1 8.2-3.7 8.3-6.2.3-9.9-2.9-1.4-6.9-3.6-8.9-4.9l-3.7-2.4 4.4-8.7C213.3 84 215.2 81 216.6 81c.7 0 3 1 5.1 2.2zm-117.8 3c7.8 5.8 11.1 9 11.1 10.4 0 .7-2 3.7-4.4 6.7-2.4 2.9-4.9 6.3-5.5 7.5-2.5 4.7-4.3 4.5-12.2-1.5-12.1-9.1-11.7-8.6-8.3-12.6 1.6-1.9 4.8-6 7.2-9.1 2.4-3.1 4.8-5.6 5.4-5.6.6 0 3.6 1.9 6.7 4.2zm43.5.9c4.2 2.8 7.6 5.4 7.6 5.7 0 2.3-4.2 10.9-8.5 17.5-4.4 6.8-5.3 7.7-7.4 7.2-3.7-.9-17.1-10.4-17.1-12.1 0-1.9 10.6-18.4 11.8-18.4.5 0 1.4-1.1 2-2.5.6-1.4 1.8-2.5 2.5-2.5.8 0 4.8 2.3 9.1 5.1zm114.2-1.8c7.8 9.3 11.5 14.9 10.9 16.6-.5 1.8-13.8 12.5-16.9 13.7-1.2.5-12.8-13.4-14.2-17-.3-.8 1.1-2.7 3.3-4.5 8.9-7.2 13.8-11 14.4-11.1.3 0 1.4 1 2.5 2.3zm-195 6.4c3.3 3.8 6.8 8 7.7 9.4l1.7 2.6-6.2 4.9c-12.7 10.1-11.8 9.7-14.1 7.7-3.3-2.9-12.7-15.1-12.7-16.4C43 98.4 53.6 88 55.1 88c.6 0 1.7-.7 2.5-1.5.9-.8 1.9-1.5 2.3-1.5.4 0 3.4 3 6.7 6.7zm117.1 33.4c1.6 2.3 3.3 5 3.9 6 .6 1.1 1.8 2.7 2.7 3.7 1 1 1.7 2.3 1.7 2.8s.6 2.1 1.4 3.6c1.4 2.7 1.4 2.7-7.2 8.5-8.3 5.6-8.8 5.8-11.3 4.4-1.4-.8-3.7-3.5-5.2-6-1.4-2.5-3.9-6.6-5.6-9.1-3-4.5-3-4.5-1-6.5 2.7-2.8 15.1-11.3 16.6-11.4.7-.1 2.5 1.8 4 4zm-77.6-2.1h4.8l-.5 15.7-.5 15.8-10.8.3-10.8.3-1.1-3.9c-1.5-4.9-1.5-13-.2-20.8 1.7-9.2 1.2-8.8 8.2-8 3.3.3 8.2.6 10.9.6zm-74.5 4.6 6.1 4.5-2.1 10.2-2.1 10.2-8.9 1.2-8.9 1.3-6.9-4.7c-6.1-4.2-6.9-5-6.4-7.3.3-1.4 1-4.8 1.6-7.5 1.9-10.1 2.4-11 6.1-11.6 1.9-.4 6.1-.7 9.4-.8 5.6-.1 6.4.2 12.1 4.5zm36.1-2.4c1.8.5 3.7.7 4.3.3 1.5-.9 4 6.2 4 11.7 0 2.7.5 5.8 1 6.8.9 1.7.1 2.5-6.1 6.6-7.6 5.1-9.4 5.4-18.3 3.4-7.8-1.8-8-2-9.3-10.1-1.8-11.7-1.7-12.4 2-14.4 5.6-2.9 7.8-4.2 9-5.4 1.2-1.2 7.7-.7 13.4 1.1zm201.8 2.5 4.4 3.8v8c-.1 13 .1 12.7-10.9 14.6-10.5 1.9-10.9 1.8-17.1-3.8-3.8-3.4-3.9-3.7-3.9-10.2 0-3.6.3-8.3.6-10.3.6-3.3 1.1-3.8 3.8-4.2 1.7-.3 5.4-.9 8.1-1.5 7.1-1.3 10-.6 15 3.6zm-120.1-.7 6.6 2.9-.1 4.3c0 2.4-.6 7.4-1.3 11.1l-1.2 6.9h-10.2c-8.4 0-11.2-.4-15.8-2.3l-5.6-2.4.6-7c1.4-15.9 1.2-15.4 6.5-15.8 11.9-.9 13.9-.7 20.5 2.3zM64 164.8c0 2.6.5 5.3 1.1 5.9.6.6 1.6 2 2.3 3.1.6 1.1 2.8 4.4 4.9 7.3 2 3 3.7 5.8 3.7 6.4 0 .5-4.6 3.2-10.1 5.9-9.6 4.6-10.1 4.7-12 3-1-.9-1.9-2.1-1.9-2.5 0-.5-1.8-3.2-4-6.1-3.6-4.8-4-5.8-4-11.4 0-4.4.4-6.5 1.6-7.5 1.8-1.5 16.5-8.9 17.7-8.9.4 0 .7 2.2.7 4.8zm200-.7c10.2 5.5 10.7 6.1 9.2 10.2-.7 1.8-1.2 4.1-1.2 5 0 1-2.5 5.5-5.6 10.1-6.2 9.3-5.4 9.1-14.4 4.3-3-1.7-6.5-3.5-7.7-4.1-1.3-.6-2.5-1.7-2.8-2.4-.6-1.5 3.2-9.4 8-16.7 1.9-2.8 3.9-6.2 4.6-7.8.7-1.5 1.5-2.7 1.8-2.7.3 0 4 1.9 8.1 4.1zm-79.8-1.6c3.2.4 6 1.1 6.4 1.6.3.5 0 3.5-.7 6.7-.7 3.1-1.3 9.9-1.3 15.1l-.1 9.4-10.5-.2c-5.8-.1-10.8-.5-11.2-1-.5-.4-1.3-4.3-1.9-8.8-.9-6.8-.8-8.8.5-12.7.9-2.6 1.6-5.1 1.6-5.6s.5-2.1 1-3.5c1-2.5 1.3-2.6 5.8-2.1 2.6.3 7.3.8 10.4 1.1zm39.8 1.7c4.2 7 10.1 20 9.6 21.3-.4 1.2-10.7 7.1-16.7 9.6-1.9.9-6.9-5.6-11.8-15.4-3.8-7.4-3.6-9 1-11.5 1.3-.7 4.7-2.6 7.4-4.2 6.5-3.7 8.1-3.7 10.5.2zm-123.3-.8c-.3.8 1.4 3.5 3.9 6.3 5.1 5.3 10.4 12.6 10.4 14.1 0 1.2-10.4 9.3-16 12.6-2.5 1.4-2.7 1.3-6.5-3.5-2.2-2.8-5.4-6.7-7.2-8.7-2.9-3.5-3-3.9-1.7-6.2.7-1.4 1.3-3.3 1.4-4.3 0-.9.6-1.7 1.3-1.7.6 0 2.6-1.4 4.4-3 1.8-1.7 3.6-3 4.1-3 .5 0 1.7-.9 2.7-2 2.1-2.3 4-2.7 3.2-.6zm47.1-.5c1 .6 1.3 3.6 1.1 11.5-.2 7.1.2 11.1.9 11.8.7.7 1.2 2.6 1.2 4.4v3.2l-9.4.7c-9.2.7-13.6-.1-13.6-2.6 0-.5-1-2.3-2.2-3.9-2.4-3.3-2.5-6.4-.7-17.7l1.2-7.2 4.6-.4c9.1-.7 15.6-.7 16.9.2zM13 168.1c3.8 1.7 5 1.9 8 .9 1.9-.6 6-1 9-.8l5.5.3.3 11.1.3 11.2-4.8 1c-2.6.6-7.5 1.3-10.8 1.6-5.2.5-6.6.2-11-2.2l-5-2.7-.3-9.9c-.1-5.5 0-10.6.2-11.3.7-1.8 3.4-1.6 8.6.8zm87.2 32.7c1.8 1 5.9 2.7 9.1 3.7l5.8 1.9-.7 4.1c-.3 2.2-1 4.4-1.5 4.9-.5.6-.9 2-.9 3.3 0 1.2-.9 3.8-2 5.8s-2 4.2-2 4.9c0 .7-.7 2.7-1.6 4.4-1.9 3.8-4.7 4.1-9.9 1.2-2-1.1-4.1-2-4.7-2-.6 0-2.9-.8-5-1.7-3.6-1.6-3.8-2-3.2-4.8.3-1.6 1-3.5 1.4-4 .4-.6 1.1-2.1 1.5-3.5.4-1.4 1.5-4.3 2.5-6.5 1.1-2.2 2.8-6.1 3.9-8.8 1.1-2.6 2.4-4.7 3-4.7.6 0 2.5.8 4.3 1.8zm39.3.2c1.2 0 2.5.4 3.1.8.5.5 3.5 1.7 6.7 2.7 4.1 1.4 5.6 2.3 5.3 3.5-.2.8-1 4-1.7 7-.6 3-2.3 7.9-3.6 10.8-1.4 2.9-2.8 6.5-3.2 8-.9 3.3-4 4-8.4 1.9-1.8-.9-4.4-1.9-6-2.2-1.5-.4-3-1.1-3.3-1.6-.3-.5-1.7-.9-3.1-.9-2.4 0-2.5-.2-1.8-3.6.3-2 1-4.4 1.5-5.3.5-.9 2.5-5.9 4.5-11.1 4.2-10.7 5.3-12.6 6.9-11 .5.5 1.9 1 3.1 1zM25 204.8c0 3.8.7 5.9 3.3 9.7 5.4 8.1 7.6 11.9 7.6 13 .1 1-19.7 11-20.4 10.4-1.9-2.1-7.5-10.1-7.5-10.8 0-.4-.9-1.6-2-2.6-2.1-1.9-2.6-6.5-1.4-13.8.5-2.5 1.2-3.7 2.3-3.7 1 0 4.8-1.6 8.7-3.5 3.8-1.9 7.5-3.5 8.2-3.5.8 0 1.2 1.6 1.2 4.8zm44.8-.3c.7 1.4 1.2 3.1 1.2 3.8 0 .7.9 1.9 2 2.7 2.1 1.5 2.8 5 1 5-.5 0-1 2.1-1 4.7 0 2.7-.3 6.4-.6 8.4l-.6 3.7-7.7.6c-4.2.4-8.8.9-10.2 1.2-2.3.4-3.1-.2-6.4-5.1-4-6.1-3.9-4.8-1.9-20 .3-2.8 1.3-5.6 2.2-6.3 1-.8 5-1.2 11.2-1.2 9.4 0 9.7.1 10.8 2.5zm119 5.1c.1 3.8-.1 8.1-.6 9.4-.7 1.8-.4 3.3.9 5.8 2.7 4.6 2.5 8.2-.3 8.3-1.3 0-6.3.4-11.2.8l-8.9.6-2.7-5.6c-2.5-5.3-2.6-6.1-1.8-13.8 1.5-13.8.9-13.2 13.5-12.9l10.8.3.3 7.1zm33.8-5.2c.8.8 1.4 1.9 1.4 2.3 0 .5.8 1.8 1.8 2.9 1 1 3.2 4 5 6.6l3.2 4.7-5.7 4.6c-3.2 2.5-7.5 5.7-9.7 7.2l-3.8 2.7-2.9-3.4c-1.7-1.9-4.8-6.2-7-9.5l-4-6 3.8-3.3c5.4-4.6 13.6-10.2 15.1-10.2.7 0 2 .6 2.8 1.4zm38.7.8c3.3 2.6 11.8 15.2 11.5 17.2-.3 1.8-2.7 3.9-13.5 11.5l-4.1 2.9-3.9-5c-2.1-2.7-5-6.4-6.5-8.2-1.6-1.9-2.8-4.2-2.8-5.3 0-1.8 6.8-8.3 8.8-8.3.4 0 2.1-1.4 3.7-3 3.2-3.3 4.3-3.6 6.8-1.8zm-35.8 38c3.4 8.3 8.4 24.2 7.9 25-.3.4-1.4.8-2.4.8-1.1 0-3.5.9-5.5 2s-4.4 2-5.5 2c-1 0-2.2.5-2.5 1-1 1.6-5.5 1.2-5.5-.5 0-.9-.8-2.8-1.7-4.2-1-1.5-3.2-6.7-5-11.7-3.2-9-3.2-9.1-1.2-10.6 1.1-.9 5.2-2.7 9.2-4 4-1.3 7.6-2.7 8.2-3.2 1.6-1.4 2.2-.9 4 3.4zm-157.7-2.4c.7.5 1.7 4.7 2.3 10.3.5 5.2 1.6 11.6 2.4 14.4.8 2.7 1 5.4.6 5.8-1 1-12.5 2.9-18.5 3.1l-3.8.1-2-6c-1.1-3.3-2.2-10.3-2.5-15.5l-.6-9.5 9.9-1.6c5.5-.9 10.1-1.7 10.4-1.7.3-.1 1.1.2 1.8.6zm80 8.7c2.4 5 5.1 10.3 5.9 11.8 2 3.8 1.9 3.9-11.5 10.9l-6.3 3.3-2.7-3.5c-2.8-3.6-11.2-19.7-11.2-21.5 0-.5 3.6-2.7 8-4.8 4.4-2.1 8.2-4.2 8.6-4.8.3-.6 1.5-.9 2.7-.7 1.5.2 3.3 2.7 6.5 9.3zm123.9-6.1c.1.1.5 4.9.9 10.7.5 8.5.4 10.8-.8 11.9-.8.8-2.2 2.7-3.2 4.3-1.8 2.7-2 2.7-12.6 2.7h-10.7l-.7-7.7c-1.1-13.1-.9-14.6 2.5-19.3l3.1-4.2 10.6.7c5.9.4 10.8.8 10.9.9zm-258.5 4.7c2.9 2.1 6.3 2.5 7.3.9.3-.6 4-1 8.1-1h7.5l-.3 11.2-.3 11.2-3 .8c-1.6.5-6.3 1.3-10.3 1.9l-7.3 1-5.5-3.6-5.4-3.6v-10.3c0-5.6.2-10.5.5-10.8.9-.9 5.9.4 8.7 2.3zm181.6 6.4c2 12.9 2.1 12.7-10.6 17.6-3.1 1.2-7 1.1-14.6-.3-6.3-1.2-6.4-1.3-7-4.8-.3-1.9-.6-7-.6-11.3V248h5.3c2.8 0 6.8.4 8.7 1 2.2.6 3.8.6 4.4 0 .6-.6 1.9-1 3.1-1 1.2 0 2.5-.4 3.1-.9 1-1 4.4-2 5.9-1.7.5.2 1.6 4.2 2.3 9.1z"/></svg>